Tajawal-Bold.ufo
<glyph name="exclam" format="1">
 <advance width="280" />
 <unicode hex="0021" />
 <outline>
  <contour>
   <point x="74" y="177" type="line" smooth="no" name="13" />
   <point x="200" y="177" type="line" smooth="no" name="13" />
   <point x="200" y="633" type="line" smooth="no" name="13" />
   <point x="74" y="633" type="line" smooth="no" name="13" />
  </contour>
  <contour>
   <point x="215" y="52" type="curve" smooth="yes" name="15" />
   <point x="215" y="90" type="offcurve" name="14" />
   <point x="190" y="124" type="offcurve" name="14" />
   <point x="142" y="124" type="curve" smooth="yes" name="15" />
   <point x="94" y="124" type="offcurve" name="14" />
   <point x="69" y="91" type="offcurve" name="14" />
   <point x="67" y="55" type="curve" smooth="yes" name="15" />
   <point x="67" y="54" type="offcurve" name="14" />
   <point x="67" y="53" type="offcurve" name="14" />
   <point x="67" y="53" type="curve" smooth="yes" name="15" />
   <point x="67" y="14" type="offcurve" name="14" />
   <point x="91" y="-22" type="offcurve" name="14" />
   <point x="142" y="-22" type="curve" smooth="yes" name="15" />
   <point x="191" y="-22" type="offcurve" name="14" />
   <point x="215" y="12" type="offcurve" name="14" />
   <point x="215" y="50" type="curve" smooth="yes" name="15" />
   <point x="215" y="51" type="offcurve" name="14" />
   <point x="215" y="51" type="offcurve" name="14" />
  </contour>
 </outline>
</glyph>
<glyph name="quotedbl" format="1">
 <advance width="356" />
 <unicode hex="0022" />
 <outline>
  <contour>
   <point x="70" y="433" type="line" smooth="no" name="13" />
   <point x="160" y="482" type="line" smooth="no" name="13" />
   <point x="160" y="645" type="line" smooth="no" name="13" />
   <point x="70" y="596" type="line" smooth="no" name="13" />
  </contour>
  <contour>
   <point x="195" y="433" type="line" smooth="no" name="13" />
   <point x="286" y="482" type="line" smooth="no" name="13" />
   <point x="286" y="645" type="line" smooth="no" name="13" />
   <point x="195" y="596" type="line" smooth="no" name="13" />
  </contour>
 </outline>
</glyph>
<glyph name="numbersign" format="1">
 <advance width="477" />
 <unicode hex="0023" />
 <outline>
  <contour>
   <point x="329" y="131" type="line" smooth="no" name="13" />
   <point x="439" y="131" type="line" smooth="no" name="13" />
   <point x="439" y="232" type="line" smooth="no" name="13" />
   <point x="348" y="232" type="line" smooth="no" name="13" />
   <point x="375" y="351" type="line" smooth="no" name="13" />
   <point x="472" y="351" type="line" smooth="no" name="13" />
   <point x="472" y="451" type="line" smooth="no" name="13" />
   <point x="397" y="451" type="line" smooth="no" name="13" />
   <point x="431" y="609" type="line" smooth="no" name="13" />
   <point x="346" y="609" type="line" smooth="no" name="13" />
   <point x="310" y="451" type="line" smooth="no" name="13" />
   <point x="225" y="451" type="line" smooth="no" name="13" />
   <point x="258" y="609" type="line" smooth="no" name="13" />
   <point x="172" y="609" type="line" smooth="no" name="13" />
   <point x="139" y="451" type="line" smooth="no" name="13" />
   <point x="35" y="451" type="line" smooth="no" name="13" />
   <point x="35" y="351" type="line" smooth="no" name="13" />
   <point x="116" y="351" type="line" smooth="no" name="13" />
   <point x="89" y="232" type="line" smooth="no" name="13" />
   <point x="5" y="232" type="line" smooth="no" name="13" />
   <point x="5" y="131" type="line" smooth="no" name="13" />
   <point x="70" y="131" type="line" smooth="no" name="13" />
   <point x="60" y="88" type="offcurve" name="14" />
   <point x="50" y="43" type="offcurve" name="14" />
   <point x="41" y="0" type="curve" smooth="no" name="13" />
   <point x="128" y="0" type="line" smooth="no" name="13" />
   <point x="156" y="131" type="line" smooth="no" name="13" />
   <point x="244" y="131" type="line" smooth="no" name="13" />
   <point x="214" y="0" type="line" smooth="no" name="13" />
   <point x="300" y="0" type="line" smooth="no" name="13" />
  </contour>
  <contour>
   <point x="202" y="351" type="line" smooth="no" name="13" />
   <point x="290" y="351" type="line" smooth="no" name="13" />
   <point x="262" y="232" type="line" smooth="no" name="13" />
   <point x="176" y="232" type="line" smooth="no" name="13" />
  </contour>
 </outline>
</glyph>
<glyph name="dollar" format="1">
 <advance width="567" />
 <unicode hex="0024" />
 <outline>
  <contour>
   <point x="298" y="700" type="line" smooth="no" name="13" />
   <point x="249" y="700" type="line" smooth="no" name="13" />
   <point x="249" y="642" type="line" smooth="no" name="13" />
   <point x="132" y="629" type="offcurve" name="14" />
   <point x="76" y="557" type="offcurve" name="14" />
   <point x="76" y="473" type="curve" smooth="yes" name="15" />
   <point x="76" y="369" type="offcurve" name="14" />
   <point x="151" y="323" type="offcurve" name="14" />
   <point x="249" y="284" type="curve" smooth="no" name="13" />
   <point x="249" y="106" type="line" smooth="no" name="13" />
   <point x="217" y="106" type="offcurve" name="14" />
   <point x="133" y="129" type="offcurve" name="14" />
   <point x="122" y="138" type="curve" smooth="no" name="13" />
   <point x="113" y="126" type="offcurve" name="14" />
   <point x="105" y="114" type="offcurve" name="14" />
   <point x="96" y="103" type="curve" smooth="yes" name="15" />
   <point x="85" y="89" type="offcurve" name="14" />
   <point x="74" y="74" type="offcurve" name="14" />
   <point x="64" y="59" type="curve" smooth="no" name="13" />
   <point x="101" y="36" type="offcurve" name="14" />
   <point x="163" y="-2" type="offcurve" name="14" />
   <point x="249" y="-11" type="curve" smooth="no" name="13" />
   <point x="249" y="-74" type="line" smooth="no" name="13" />
   <point x="298" y="-74" type="line" smooth="no" name="13" />
   <point x="298" y="-11" type="line" smooth="no" name="13" />
   <point x="413" y="-8" type="offcurve" name="14" />
   <point x="499" y="58" type="offcurve" name="14" />
   <point x="499" y="181" type="curve" smooth="yes" name="15" />
   <point x="499" y="281" type="offcurve" name="14" />
   <point x="416" y="347" type="offcurve" name="14" />
   <point x="298" y="392" type="curve" smooth="no" name="13" />
   <point x="298" y="533" type="line" smooth="no" name="13" />
   <point x="344" y="531" type="offcurve" name="14" />
   <point x="398" y="512" type="offcurve" name="14" />
   <point x="427" y="500" type="curve" smooth="no" name="13" />
   <point x="483" y="581" type="line" smooth="no" name="13" />
   <point x="444" y="607" type="offcurve" name="14" />
   <point x="390" y="641" type="offcurve" name="14" />
   <point x="298" y="644" type="curve" smooth="no" name="13" />
  </contour>
  <contour>
   <point x="298" y="107" type="curve" smooth="no" name="13" />
   <point x="298" y="260" type="line" smooth="no" name="13" />
   <point x="353" y="232" type="offcurve" name="14" />
   <point x="360" y="205" type="offcurve" name="14" />
   <point x="360" y="175" type="curve" smooth="yes" name="15" />
   <point x="360" y="140" type="offcurve" name="14" />
   <point x="344" y="111" type="offcurve" name="14" />
  </contour>
  <contour>
   <point x="249" y="532" type="curve" smooth="no" name="13" />
   <point x="249" y="413" type="line" smooth="no" name="13" />
   <point x="217" y="434" type="offcurve" name="14" />
   <point x="212" y="453" type="offcurve" name="14" />
   <point x="212" y="473" type="curve" smooth="yes" name="15" />
   <point x="212" y="510" type="offcurve" name="14" />
   <point x="229" y="524" type="offcurve" name="14" />
  </contour>
 </outline>
</glyph>
<glyph name="ampersand" format="1">
 <advance width="593" />
 <unicode hex="0026" />
 <outline>
  <contour>
   <point x="369" y="329" type="line" smooth="no" name="13" />
   <point x="369" y="292" type="line" smooth="yes" name="15" />
   <point x="369" y="266" type="offcurve" name="14" />
   <point x="369" y="237" type="offcurve" name="14" />
   <point x="357" y="218" type="curve" smooth="no" name="13" />
   <point x="325" y="255" type="offcurve" name="14" />
   <point x="294" y="294" type="offcurve" name="14" />
   <point x="263" y="333" type="curve" smooth="yes" name="15" />
   <point x="246" y="354" type="offcurve" name="14" />
   <point x="229" y="375" type="offcurve" name="14" />
   <point x="212" y="396" type="curve" smooth="yes" name="15" />
   <point x="209" y="400" type="offcurve" name="14" />
   <point x="206" y="404" type="offcurve" name="14" />
   <point x="202" y="408" type="curve" smooth="yes" name="15" />
   <point x="184" y="429" type="offcurve" name="14" />
   <point x="166" y="451" type="offcurve" name="14" />
   <point x="166" y="482" type="curve" smooth="yes" name="15" />
   <point x="166" y="517" type="offcurve" name="14" />
   <point x="195" y="536" type="offcurve" name="14" />
   <point x="231" y="536" type="curve" smooth="yes" name="15" />
   <point x="247" y="536" type="offcurve" name="14" />
   <point x="285" y="535" type="offcurve" name="14" />
   <point x="340" y="506" type="curve" smooth="no" name="13" />
   <point x="356" y="530" type="offcurve" name="14" />
   <point x="373" y="556" type="offcurve" name="14" />
   <point x="390" y="581" type="curve" smooth="no" name="13" />
   <point x="362" y="602" type="offcurve" name="14" />
   <point x="307" y="645" type="offcurve" name="14" />
   <point x="226" y="645" type="curve" smooth="yes" name="15" />
   <point x="130" y="645" type="offcurve" name="14" />
   <point x="58" y="591" type="offcurve" name="14" />
   <point x="58" y="487" type="curve" smooth="yes" name="15" />
   <point x="58" y="422" type="offcurve" name="14" />
   <point x="90" y="382" type="offcurve" name="14" />
   <point x="130" y="342" type="curve" smooth="no" name="13" />
   <point x="75" y="297" type="offcurve" name="14" />
   <point x="38" y="235" type="offcurve" name="14" />
   <point x="38" y="164" type="curve" smooth="yes" name="15" />
   <point x="38" y="76" type="offcurve" name="14" />
   <point x="98" y="-12" type="offcurve" name="14" />
   <point x="228" y="-12" type="curve" smooth="yes" name="15" />
   <point x="315" y="-12" type="offcurve" name="14" />
   <point x="366" y="23" type="offcurve" name="14" />
   <point x="380" y="36" type="curve" smooth="no" name="13" />
   <point x="387" y="30" type="offcurve" name="14" />
   <point x="392" y="23" type="offcurve" name="14" />
   <point x="397" y="17" type="curve" smooth="no" name="13" />
   <point x="401" y="11" type="offcurve" name="14" />
   <point x="405" y="6" type="offcurve" name="14" />
   <point x="411" y="0" type="curve" smooth="no" name="13" />
   <point x="555" y="0" type="line" smooth="no" name="13" />
   <point x="518" y="39" type="offcurve" name="14" />
   <point x="480" y="80" type="offcurve" name="14" />
   <point x="445" y="120" type="curve" smooth="no" name="13" />
   <point x="476" y="168" type="offcurve" name="14" />
   <point x="495" y="230" type="offcurve" name="14" />
   <point x="495" y="290" type="curve" smooth="yes" name="15" />
   <point x="495" y="329" type="line" smooth="no" name="13" />
  </contour>
  <contour>
   <point x="192" y="265" type="curve" smooth="no" name="13" />
   <point x="210" y="240" type="offcurve" name="14" />
   <point x="230" y="216" type="offcurve" name="14" />
   <point x="251" y="192" type="curve" smooth="yes" name="15" />
   <point x="269" y="170" type="offcurve" name="14" />
   <point x="287" y="149" type="offcurve" name="14" />
   <point x="304" y="126" type="curve" smooth="no" name="13" />
   <point x="292" y="112" type="offcurve" name="14" />
   <point x="260" y="101" type="offcurve" name="14" />
   <point x="241" y="101" type="curve" smooth="yes" name="15" />
   <point x="209" y="101" type="offcurve" name="14" />
   <point x="167" y="118" type="offcurve" name="14" />
   <point x="167" y="183" type="curve" smooth="yes" name="15" />
   <point x="167" y="204" type="offcurve" name="14" />
   <point x="169" y="238" type="offcurve" name="14" />
  </contour>
 </outline>
</glyph>
<glyph name="quotesingle" format="1">
 <advance width="230" />
 <unicode hex="0027" />
 <outline>
  <contour>
   <point x="70" y="433" type="line" smooth="no" name="13" />
   <point x="160" y="482" type="line" smooth="no" name="13" />
   <point x="160" y="645" type="line" smooth="no" name="13" />
   <point x="70" y="596" type="line" smooth="no" name="13" />
  </contour>
 </outline>
</glyph>
<glyph name="parenleft" format="1">
 <advance width="311" />
 <unicode hex="0028" />
 <outline>
  <contour>
   <point x="296" y="645" type="curve" smooth="no" name="13" />
   <point x="185" y="645" type="line" smooth="no" name="13" />
   <point x="103" y="560" type="offcurve" name="14" />
   <point x="38" y="405" type="offcurve" name="14" />
   <point x="38" y="260" type="curve" smooth="yes" name="15" />
   <point x="38" y="2" type="offcurve" name="14" />
   <point x="179" y="-140" type="offcurve" name="14" />
   <point x="185" y="-140" type="curve" smooth="yes" name="15" />
   <point x="295" y="-140" type="line" smooth="no" name="13" />
   <point x="281" y="-140" type="offcurve" name="14" />
   <point x="157" y="33" type="offcurve" name="14" />
   <point x="157" y="260" type="curve" smooth="yes" name="15" />
   <point x="157" y="419" type="offcurve" name="14" />
   <point x="238" y="572" type="offcurve" name="14" />
  </contour>
 </outline>
</glyph>
<glyph name="parenright" format="1">
 <advance width="311" />
 <unicode hex="0029" />
 <outline>
  <contour>
   <point x="36" y="-140" type="curve" smooth="no" name="13" />
   <point x="146" y="-140" type="line" smooth="yes" name="15" />
   <point x="152" y="-140" type="offcurve" name="14" />
   <point x="293" y="2" type="offcurve" name="14" />
   <point x="293" y="260" type="curve" smooth="yes" name="15" />
   <point x="293" y="405" type="offcurve" name="14" />
   <point x="228" y="560" type="offcurve" name="14" />
   <point x="146" y="645" type="curve" smooth="no" name="13" />
   <point x="35" y="645" type="line" smooth="no" name="13" />
   <point x="93" y="572" type="offcurve" name="14" />
   <point x="174" y="419" type="offcurve" name="14" />
   <point x="174" y="260" type="curve" smooth="yes" name="15" />
   <point x="174" y="33" type="offcurve" name="14" />
   <point x="50" y="-140" type="offcurve" name="14" />
  </contour>
 </outline>
</glyph>
<glyph name="asterisk" format="1">
 <advance width="300" />
 <unicode hex="002a" />
 <outline>
  <contour>
   <point x="135" y="542" type="line" smooth="no" name="13" />
   <point x="122" y="558" type="offcurve" name="14" />
   <point x="109" y="574" type="offcurve" name="14" />
   <point x="95" y="591" type="curve" smooth="yes" name="15" />
   <point x="86" y="601" type="offcurve" name="14" />
   <point x="77" y="612" type="offcurve" name="14" />
   <point x="68" y="623" type="curve" smooth="no" name="13" />
   <point x="7" y="534" type="line" smooth="no" name="13" />
   <point x="30" y="526" type="offcurve" name="14" />
   <point x="52" y="519" type="offcurve" name="14" />
   <point x="74" y="512" type="curve" smooth="yes" name="15" />
   <point x="87" y="508" type="offcurve" name="14" />
   <point x="100" y="503" type="offcurve" name="14" />
   <point x="113" y="499" type="curve" smooth="no" name="13" />
   <point x="101" y="494" type="offcurve" name="14" />
   <point x="89" y="489" type="offcurve" name="14" />
   <point x="77" y="485" type="curve" smooth="yes" name="15" />
   <point x="55" y="476" type="offcurve" name="14" />
   <point x="33" y="467" type="offcurve" name="14" />
   <point x="13" y="458" type="curve" smooth="no" name="13" />
   <point x="79" y="375" type="line" smooth="no" name="13" />
   <point x="93" y="395" type="offcurve" name="14" />
   <point x="107" y="413" type="offcurve" name="14" />
   <point x="121" y="432" type="curve" smooth="yes" name="15" />
   <point x="128" y="442" type="offcurve" name="14" />
   <point x="135" y="451" type="offcurve" name="14" />
   <point x="142" y="461" type="curve" smooth="no" name="13" />
   <point x="143" y="450" type="offcurve" name="14" />
   <point x="143" y="438" type="offcurve" name="14" />
   <point x="144" y="427" type="curve" smooth="yes" name="15" />
   <point x="145" y="403" type="offcurve" name="14" />
   <point x="146" y="379" type="offcurve" name="14" />
   <point x="148" y="354" type="curve" smooth="no" name="13" />
   <point x="163" y="360" type="offcurve" name="14" />
   <point x="178" y="366" type="offcurve" name="14" />
   <point x="194" y="373" type="curve" smooth="yes" name="15" />
   <point x="213" y="381" type="offcurve" name="14" />
   <point x="231" y="389" type="offcurve" name="14" />
   <point x="250" y="396" type="curve" smooth="no" name="13" />
   <point x="227" y="425" type="offcurve" name="14" />
   <point x="205" y="452" type="offcurve" name="14" />
   <point x="183" y="480" type="curve" smooth="no" name="13" />
   <point x="209" y="475" type="offcurve" name="14" />
   <point x="236" y="468" type="offcurve" name="14" />
   <point x="263" y="461" type="curve" smooth="yes" name="15" />
   <point x="273" y="459" type="offcurve" name="14" />
   <point x="283" y="456" type="offcurve" name="14" />
   <point x="293" y="454" type="curve" smooth="no" name="13" />
   <point x="283" y="566" type="line" smooth="no" name="13" />
   <point x="177" y="526" type="line" smooth="no" name="13" />
   <point x="190" y="545" type="offcurve" name="14" />
   <point x="201" y="565" type="offcurve" name="14" />
   <point x="212" y="584" type="curve" smooth="yes" name="15" />
   <point x="219" y="597" type="offcurve" name="14" />
   <point x="227" y="609" type="offcurve" name="14" />
   <point x="234" y="621" type="curve" smooth="no" name="13" />
   <point x="223" y="624" type="offcurve" name="14" />
   <point x="211" y="627" type="offcurve" name="14" />
   <point x="199" y="630" type="curve" smooth="yes" name="15" />
   <point x="178" y="636" type="offcurve" name="14" />
   <point x="156" y="641" type="offcurve" name="14" />
   <point x="135" y="646" type="curve" smooth="no" name="13" />
  </contour>
 </outline>
</glyph>
<glyph name="plus" format="1">
 <advance width="498" />
 <unicode hex="002b" />
 <outline>
  <contour>
   <point x="190" y="176" type="line" smooth="no" name="13" />
   <point x="190" y="0" type="line" smooth="no" name="13" />
   <point x="307" y="0" type="line" smooth="no" name="13" />
   <point x="307" y="176" type="line" smooth="no" name="13" />
   <point x="466" y="176" type="line" smooth="no" name="13" />
   <point x="466" y="276" type="line" smooth="no" name="13" />
   <point x="307" y="276" type="line" smooth="no" name="13" />
   <point x="307" y="454" type="line" smooth="no" name="13" />
   <point x="190" y="454" type="line" smooth="no" name="13" />
   <point x="190" y="276" type="line" smooth="no" name="13" />
   <point x="32" y="276" type="line" smooth="no" name="13" />
   <point x="32" y="176" type="line" smooth="no" name="13" />
  </contour>
 </outline>
</glyph>
<glyph name="comma" format="1">
 <advance width="176" />
 <unicode hex="002c" />
 <outline>
  <contour>
   <point x="61" y="-105" type="line" smooth="no" name="13" />
   <point x="131" y="-90" type="offcurve" name="14" />
   <point x="166" y="-21" type="offcurve" name="14" />
   <point x="166" y="38" type="curve" smooth="yes" name="15" />
   <point x="166" y="78" type="offcurve" name="14" />
   <point x="143" y="124" type="offcurve" name="14" />
   <point x="95" y="124" type="curve" smooth="yes" name="15" />
   <point x="52" y="124" type="offcurve" name="14" />
   <point x="25" y="94" type="offcurve" name="14" />
   <point x="25" y="57" type="curve" smooth="yes" name="15" />
   <point x="25" y="20" type="offcurve" name="14" />
   <point x="45" y="0" type="offcurve" name="14" />
   <point x="73" y="0" type="curve" smooth="no" name="13" />
   <point x="73" y="-23" type="offcurve" name="14" />
   <point x="47" y="-39" type="offcurve" name="14" />
   <point x="29" y="-46" type="curve" smooth="no" name="13" />
  </contour>
 </outline>
</glyph>
<glyph name="hyphen" format="1">
 <advance width="298" />
 <unicode hex="002d" />
 <outline>
  <contour>
   <point x="283" y="188" type="line" smooth="no" name="13" />
   <point x="283" y="288" type="line" smooth="no" name="13" />
   <point x="15" y="288" type="line" smooth="no" name="13" />
   <point x="15" y="188" type="line" smooth="no" name="13" />
  </contour>
 </outline>
</glyph>
<glyph name="period" format="1">
 <advance width="328" />
 <unicode hex="002e" />
 <outline>
  <contour>
   <point x="239" y="69" type="curve" smooth="yes" name="15" />
   <point x="239" y="107" type="offcurve" name="14" />
   <point x="214" y="141" type="offcurve" name="14" />
   <point x="166" y="141" type="curve" smooth="yes" name="15" />
   <point x="118" y="141" type="offcurve" name="14" />
   <point x="93" y="108" type="offcurve" name="14" />
   <point x="91" y="72" type="curve" smooth="yes" name="15" />
   <point x="91" y="71" type="offcurve" name="14" />
   <point x="91" y="70" type="offcurve" name="14" />
   <point x="91" y="70" type="curve" smooth="yes" name="15" />
   <point x="91" y="31" type="offcurve" name="14" />
   <point x="115" y="-5" type="offcurve" name="14" />
   <point x="166" y="-5" type="curve" smooth="yes" name="15" />
   <point x="215" y="-5" type="offcurve" name="14" />
   <point x="239" y="29" type="offcurve" name="14" />
   <point x="239" y="67" type="curve" smooth="yes" name="15" />
   <point x="239" y="68" type="offcurve" name="14" />
   <point x="239" y="68" type="offcurve" name="14" />
  </contour>
 </outline>
</glyph>
<glyph name="slash" format="1">
 <advance width="307" />
 <unicode hex="002f" />
 <outline>
  <contour>
   <point x="377" y="633" type="line" smooth="no" name="13" />
   <point x="276" y="633" type="line" smooth="no" name="13" />
   <point x="-35" y="-30" type="line" smooth="no" name="13" />
   <point x="64" y="-30" type="line" smooth="no" name="13" />
  </contour>
 </outline>
</glyph>
<glyph name="zero" format="1">
 <advance width="563" />
 <unicode hex="0030" />
 <outline>
  <contour>
   <point x="280" y="645" type="curve" smooth="yes" name="15" />
   <point x="131" y="645" type="offcurve" name="14" />
   <point x="38" y="493" type="offcurve" name="14" />
   <point x="38" y="315" type="curve" smooth="yes" name="15" />
   <point x="38" y="129" type="offcurve" name="14" />
   <point x="128" y="-12" type="offcurve" name="14" />
   <point x="280" y="-12" type="curve" smooth="yes" name="15" />
   <point x="431" y="-12" type="offcurve" name="14" />
   <point x="525" y="129" type="offcurve" name="14" />
   <point x="525" y="315" type="curve" smooth="yes" name="15" />
   <point x="525" y="493" type="offcurve" name="14" />
   <point x="428" y="645" type="offcurve" name="14" />
  </contour>
  <contour>
   <point x="282" y="533" type="curve" smooth="yes" name="15" />
   <point x="361" y="533" type="offcurve" name="14" />
   <point x="389" y="450" type="offcurve" name="14" />
   <point x="389" y="321" type="curve" smooth="yes" name="15" />
   <point x="389" y="191" type="offcurve" name="14" />
   <point x="352" y="98" type="offcurve" name="14" />
   <point x="279" y="98" type="curve" smooth="yes" name="15" />
   <point x="212" y="98" type="offcurve" name="14" />
   <point x="174" y="191" type="offcurve" name="14" />
   <point x="174" y="321" type="curve" smooth="yes" name="15" />
   <point x="174" y="450" type="offcurve" name="14" />
   <point x="202" y="533" type="offcurve" name="14" />
  </contour>
 </outline>
</glyph>
<glyph name="one" format="1">
 <advance width="369" />
 <unicode hex="0031" />
 <outline>
  <contour>
   <point x="289" y="633" type="line" smooth="no" name="13" />
   <point x="158" y="633" type="line" smooth="no" name="13" />
   <point x="139" y="620" type="offcurve" name="14" />
   <point x="120" y="607" type="offcurve" name="14" />
   <point x="101" y="594" type="curve" smooth="yes" name="15" />
   <point x="67" y="571" type="offcurve" name="14" />
   <point x="34" y="549" type="offcurve" name="14" />
   <point x="0" y="525" type="curve" smooth="no" name="13" />
   <point x="6" y="516" type="offcurve" name="14" />
   <point x="11" y="506" type="offcurve" name="14" />
   <point x="17" y="497" type="curve" smooth="yes" name="15" />
   <point x="32" y="473" type="offcurve" name="14" />
   <point x="47" y="448" type="offcurve" name="14" />
   <point x="61" y="424" type="curve" smooth="no" name="13" />
   <point x="79" y="436" type="offcurve" name="14" />
   <point x="98" y="447" type="offcurve" name="14" />
   <point x="117" y="459" type="curve" smooth="yes" name="15" />
   <point x="130" y="467" type="offcurve" name="14" />
   <point x="144" y="475" type="offcurve" name="14" />
   <point x="158" y="484" type="curve" smooth="no" name="13" />
   <point x="158" y="0" type="line" smooth="no" name="13" />
   <point x="289" y="0" type="line" smooth="no" name="13" />
  </contour>
 </outline>
</glyph>
<glyph name="two" format="1">
 <advance width="466" />
 <unicode hex="0032" />
 <outline>
  <contour>
   <point x="40" y="0" type="line" smooth="no" name="13" />
   <point x="427" y="0" type="line" smooth="no" name="13" />
   <point x="427" y="105" type="line" smooth="no" name="13" />
   <point x="200" y="105" type="line" smooth="no" name="13" />
   <point x="214" y="121" type="offcurve" name="14" />
   <point x="228" y="136" type="offcurve" name="14" />
   <point x="241" y="152" type="curve" smooth="yes" name="15" />
   <point x="339" y="263" type="offcurve" name="14" />
   <point x="434" y="370" type="offcurve" name="14" />
   <point x="434" y="472" type="curve" smooth="yes" name="15" />
   <point x="434" y="595" type="offcurve" name="14" />
   <point x="343" y="646" type="offcurve" name="14" />
   <point x="244" y="646" type="curve" smooth="yes" name="15" />
   <point x="169" y="646" type="offcurve" name="14" />
   <point x="106" y="623" type="offcurve" name="14" />
   <point x="35" y="567" type="curve" smooth="no" name="13" />
   <point x="90" y="487" type="line" smooth="no" name="13" />
   <point x="139" y="520" type="offcurve" name="14" />
   <point x="175" y="535" type="offcurve" name="14" />
   <point x="220" y="535" type="curve" smooth="yes" name="15" />
   <point x="257" y="535" type="offcurve" name="14" />
   <point x="298" y="512" type="offcurve" name="14" />
   <point x="298" y="465" type="curve" smooth="yes" name="15" />
   <point x="298" y="416" type="offcurve" name="14" />
   <point x="283" y="393" type="offcurve" name="14" />
   <point x="197" y="290" type="curve" smooth="yes" name="15" />
   <point x="166" y="254" type="offcurve" name="14" />
   <point x="135" y="218" type="offcurve" name="14" />
   <point x="104" y="184" type="curve" smooth="yes" name="15" />
   <point x="82" y="159" type="offcurve" name="14" />
   <point x="61" y="135" type="offcurve" name="14" />
   <point x="40" y="111" type="curve" smooth="no" name="13" />
  </contour>
 </outline>
</glyph>
<glyph name="three" format="1">
 <advance width="503" />
 <unicode hex="0033" />
 <outline>
  <contour>
   <point x="227" y="283" type="line" smooth="yes" name="15" />
   <point x="289" y="283" type="offcurve" name="14" />
   <point x="329" y="262" type="offcurve" name="14" />
   <point x="329" y="194" type="curve" smooth="yes" name="15" />
   <point x="329" y="133" type="offcurve" name="14" />
   <point x="288" y="103" type="offcurve" name="14" />
   <point x="236" y="103" type="curve" smooth="yes" name="15" />
   <point x="167" y="103" type="offcurve" name="14" />
   <point x="120" y="132" type="offcurve" name="14" />
   <point x="98" y="152" type="curve" smooth="no" name="13" />
   <point x="45" y="73" type="line" smooth="no" name="13" />
   <point x="79" y="41" type="offcurve" name="14" />
   <point x="166" y="-11" type="offcurve" name="14" />
   <point x="245" y="-11" type="curve" smooth="yes" name="15" />
   <point x="348" y="-11" type="offcurve" name="14" />
   <point x="465" y="35" type="offcurve" name="14" />
   <point x="465" y="196" type="curve" smooth="yes" name="15" />
   <point x="465" y="245" type="offcurve" name="14" />
   <point x="445" y="315" type="offcurve" name="14" />
   <point x="364" y="346" type="curve" smooth="no" name="13" />
   <point x="393" y="358" type="offcurve" name="14" />
   <point x="442" y="381" type="offcurve" name="14" />
   <point x="442" y="472" type="curve" smooth="yes" name="15" />
   <point x="442" y="587" type="offcurve" name="14" />
   <point x="345" y="645" type="offcurve" name="14" />
   <point x="244" y="645" type="curve" smooth="yes" name="15" />
   <point x="160" y="645" type="offcurve" name="14" />
   <point x="101" y="608" type="offcurve" name="14" />
   <point x="56" y="564" type="curve" smooth="no" name="13" />
   <point x="104" y="480" type="line" smooth="no" name="13" />
   <point x="137" y="508" type="offcurve" name="14" />
   <point x="186" y="536" type="offcurve" name="14" />
   <point x="231" y="536" type="curve" smooth="yes" name="15" />
   <point x="281" y="536" type="offcurve" name="14" />
   <point x="305" y="501" type="offcurve" name="14" />
   <point x="305" y="461" type="curve" smooth="yes" name="15" />
   <point x="305" y="390" type="offcurve" name="14" />
   <point x="263" y="389" type="offcurve" name="14" />
   <point x="227" y="389" type="curve" smooth="yes" name="15" />
   <point x="132" y="389" type="line" smooth="no" name="13" />
   <point x="132" y="283" type="line" smooth="no" name="13" />
  </contour>
 </outline>
</glyph>
<glyph name="four" format="1">
 <advance width="563" />
 <unicode hex="0034" />
 <outline>
  <contour>
   <point x="32" y="228" type="curve" smooth="no" name="13" />
   <point x="32" y="123" type="line" smooth="no" name="13" />
   <point x="297" y="123" type="line" smooth="no" name="13" />
   <point x="297" y="0" type="line" smooth="no" name="13" />
   <point x="427" y="0" type="line" smooth="no" name="13" />
   <point x="427" y="123" type="line" smooth="no" name="13" />
   <point x="531" y="123" type="line" smooth="no" name="13" />
   <point x="531" y="228" type="line" smooth="no" name="13" />
   <point x="427" y="228" type="line" smooth="no" name="13" />
   <point x="427" y="633" type="line" smooth="no" name="13" />
   <point x="298" y="633" type="line" smooth="no" name="13" />
   <point x="209" y="498" type="offcurve" name="14" />
   <point x="121" y="364" type="offcurve" name="14" />
  </contour>
  <contour>
   <point x="145" y="228" type="line" smooth="no" name="13" />
   <point x="297" y="465" type="line" smooth="no" name="13" />
   <point x="297" y="228" type="line" smooth="no" name="13" />
  </contour>
 </outline>
</glyph>
<glyph name="five" format="1">
 <advance width="497" />
 <unicode hex="0035" />
 <outline>
  <contour>
   <point x="418" y="528" type="line" smooth="no" name="13" />
   <point x="418" y="633" type="line" smooth="no" name="13" />
   <point x="67" y="633" type="line" smooth="no" name="13" />
   <point x="67" y="285" type="line" smooth="no" name="13" />
   <point x="107" y="294" type="offcurve" name="14" />
   <point x="137" y="302" type="offcurve" name="14" />
   <point x="190" y="302" type="curve" smooth="yes" name="15" />
   <point x="279" y="302" type="offcurve" name="14" />
   <point x="325" y="267" type="offcurve" name="14" />
   <point x="325" y="197" type="curve" smooth="yes" name="15" />
   <point x="325" y="134" type="offcurve" name="14" />
   <point x="282" y="103" type="offcurve" name="14" />
   <point x="220" y="103" type="curve" smooth="yes" name="15" />
   <point x="177" y="103" type="offcurve" name="14" />
   <point x="127" y="122" type="offcurve" name="14" />
   <point x="79" y="158" type="curve" smooth="no" name="13" />
   <point x="25" y="75" type="line" smooth="no" name="13" />
   <point x="83" y="18" type="offcurve" name="14" />
   <point x="164" y="-12" type="offcurve" name="14" />
   <point x="234" y="-12" type="curve" smooth="yes" name="15" />
   <point x="364" y="-12" type="offcurve" name="14" />
   <point x="459" y="86" type="offcurve" name="14" />
   <point x="459" y="205" type="curve" smooth="yes" name="15" />
   <point x="459" y="342" type="offcurve" name="14" />
   <point x="360" y="405" type="offcurve" name="14" />
   <point x="230" y="405" type="curve" smooth="yes" name="15" />
   <point x="223" y="405" type="offcurve" name="14" />
   <point x="204" y="403" type="offcurve" name="14" />
   <point x="197" y="400" type="curve" smooth="no" name="13" />
   <point x="197" y="528" type="line" smooth="no" name="13" />
  </contour>
 </outline>
</glyph>
<glyph name="six" format="1">
 <advance width="518" />
 <unicode hex="0036" />
 <outline>
  <contour>
   <point x="172" y="383" type="curve" smooth="no" name="13" />
   <point x="172" y="481" type="offcurve" name="14" />
   <point x="223" y="533" type="offcurve" name="14" />
   <point x="285" y="533" type="curve" smooth="yes" name="15" />
   <point x="325" y="533" type="offcurve" name="14" />
   <point x="364" y="521" type="offcurve" name="14" />
   <point x="405" y="501" type="curve" smooth="no" name="13" />
   <point x="450" y="583" type="line" smooth="no" name="13" />
   <point x="422" y="610" type="offcurve" name="14" />
   <point x="356" y="645" type="offcurve" name="14" />
   <point x="281" y="645" type="curve" smooth="yes" name="15" />
   <point x="110" y="645" type="offcurve" name="14" />
   <point x="38" y="504" type="offcurve" name="14" />
   <point x="38" y="288" type="curve" smooth="yes" name="15" />
   <point x="38" y="163" type="offcurve" name="14" />
   <point x="72" y="-12" type="offcurve" name="14" />
   <point x="257" y="-12" type="curve" smooth="yes" name="15" />
   <point x="413" y="-12" type="offcurve" name="14" />
   <point x="473" y="115" type="offcurve" name="14" />
   <point x="473" y="205" type="curve" smooth="yes" name="15" />
   <point x="473" y="364" type="offcurve" name="14" />
   <point x="370" y="414" type="offcurve" name="14" />
   <point x="273" y="414" type="curve" smooth="yes" name="15" />
   <point x="220" y="414" type="offcurve" name="14" />
   <point x="183" y="393" type="offcurve" name="14" />
  </contour>
  <contour>
   <point x="171" y="290" type="curve" smooth="no" name="13" />
   <point x="188" y="307" type="offcurve" name="14" />
   <point x="223" y="320" type="offcurve" name="14" />
   <point x="244" y="320" type="curve" smooth="yes" name="15" />
   <point x="287" y="320" type="offcurve" name="14" />
   <point x="336" y="302" type="offcurve" name="14" />
   <point x="336" y="205" type="curve" smooth="yes" name="15" />
   <point x="336" y="156" type="offcurve" name="14" />
   <point x="308" y="90" type="offcurve" name="14" />
   <point x="255" y="90" type="curve" smooth="yes" name="15" />
   <point x="178" y="90" type="offcurve" name="14" />
   <point x="175" y="199" type="offcurve" name="14" />
  </contour>
 </outline>
</glyph>
<glyph name="seven" format="1">
 <advance width="421" />
 <unicode hex="0037" />
 <outline>
  <contour>
   <point x="264" y="528" type="line" smooth="no" name="13" />
   <point x="38" y="0" type="line" smooth="no" name="13" />
   <point x="176" y="0" type="line" smooth="no" name="13" />
   <point x="406" y="533" type="line" smooth="no" name="13" />
   <point x="406" y="633" type="line" smooth="no" name="13" />
   <point x="32" y="633" type="line" smooth="no" name="13" />
   <point x="32" y="528" type="line" smooth="no" name="13" />
  </contour>
 </outline>
</glyph>
<glyph name="eight" format="1">
 <advance width="528" />
 <unicode hex="0038" />
 <outline>
  <contour>
   <point x="359" y="322" type="curve" smooth="no" name="13" />
   <point x="434" y="339" type="offcurve" name="14" />
   <point x="478" y="398" type="offcurve" name="14" />
   <point x="478" y="455" type="curve" smooth="yes" name="15" />
   <point x="478" y="576" type="offcurve" name="14" />
   <point x="380" y="645" type="offcurve" name="14" />
   <point x="272" y="645" type="curve" smooth="yes" name="15" />
   <point x="161" y="645" type="offcurve" name="14" />
   <point x="65" y="578" type="offcurve" name="14" />
   <point x="65" y="462" type="curve" smooth="yes" name="15" />
   <point x="65" y="400" type="offcurve" name="14" />
   <point x="88" y="349" type="offcurve" name="14" />
   <point x="174" y="323" type="curve" smooth="no" name="13" />
   <point x="115" y="315" type="offcurve" name="14" />
   <point x="38" y="259" type="offcurve" name="14" />
   <point x="38" y="161" type="curve" smooth="yes" name="15" />
   <point x="38" y="47" type="offcurve" name="14" />
   <point x="141" y="-12" type="offcurve" name="14" />
   <point x="265" y="-12" type="curve" smooth="yes" name="15" />
   <point x="389" y="-12" type="offcurve" name="14" />
   <point x="490" y="47" type="offcurve" name="14" />
   <point x="490" y="160" type="curve" smooth="yes" name="15" />
   <point x="490" y="259" type="offcurve" name="14" />
   <point x="433" y="302" type="offcurve" name="14" />
  </contour>
  <contour>
   <point x="270" y="368" type="curve" smooth="no" name="13" />
   <point x="235" y="380" type="offcurve" name="14" />
   <point x="193" y="412" type="offcurve" name="14" />
   <point x="193" y="462" type="curve" smooth="yes" name="15" />
   <point x="193" y="521" type="offcurve" name="14" />
   <point x="236" y="544" type="offcurve" name="14" />
   <point x="275" y="544" type="curve" smooth="yes" name="15" />
   <point x="313" y="544" type="offcurve" name="14" />
   <point x="348" y="517" type="offcurve" name="14" />
   <point x="348" y="464" type="curve" smooth="yes" name="15" />
   <point x="348" y="413" type="offcurve" name="14" />
   <point x="304" y="378" type="offcurve" name="14" />
  </contour>
  <contour>
   <point x="273" y="278" type="curve" smooth="no" name="13" />
   <point x="317" y="264" type="offcurve" name="14" />
   <point x="353" y="221" type="offcurve" name="14" />
   <point x="353" y="167" type="curve" smooth="yes" name="15" />
   <point x="353" y="114" type="offcurve" name="14" />
   <point x="307" y="90" type="offcurve" name="14" />
   <point x="266" y="90" type="curve" smooth="yes" name="15" />
   <point x="213" y="90" type="offcurve" name="14" />
   <point x="174" y="123" type="offcurve" name="14" />
   <point x="174" y="170" type="curve" smooth="yes" name="15" />
   <point x="174" y="217" type="offcurve" name="14" />
   <point x="208" y="262" type="offcurve" name="14" />
  </contour>
 </outline>
</glyph>
<glyph name="nine" format="1">
 <advance width="518" />
 <unicode hex="0039" />
 <outline>
  <contour>
   <point x="366" y="250" type="curve" smooth="no" name="13" />
   <point x="366" y="152" type="offcurve" name="14" />
   <point x="315" y="100" type="offcurve" name="14" />
   <point x="253" y="100" type="curve" smooth="yes" name="15" />
   <point x="213" y="100" type="offcurve" name="14" />
   <point x="174" y="112" type="offcurve" name="14" />
   <point x="133" y="132" type="curve" smooth="no" name="13" />
   <point x="88" y="50" type="line" smooth="no" name="13" />
   <point x="116" y="23" type="offcurve" name="14" />
   <point x="182" y="-12" type="offcurve" name="14" />
   <point x="257" y="-12" type="curve" smooth="yes" name="15" />
   <point x="428" y="-12" type="offcurve" name="14" />
   <point x="500" y="129" type="offcurve" name="14" />
   <point x="500" y="345" type="curve" smooth="yes" name="15" />
   <point x="500" y="470" type="offcurve" name="14" />
   <point x="466" y="645" type="offcurve" name="14" />
   <point x="281" y="645" type="curve" smooth="yes" name="15" />
   <point x="125" y="645" type="offcurve" name="14" />
   <point x="65" y="518" type="offcurve" name="14" />
   <point x="65" y="428" type="curve" smooth="yes" name="15" />
   <point x="65" y="269" type="offcurve" name="14" />
   <point x="168" y="219" type="offcurve" name="14" />
   <point x="265" y="219" type="curve" smooth="yes" name="15" />
   <point x="318" y="219" type="offcurve" name="14" />
   <point x="355" y="240" type="offcurve" name="14" />
  </contour>
  <contour>
   <point x="367" y="343" type="curve" smooth="no" name="13" />
   <point x="350" y="326" type="offcurve" name="14" />
   <point x="315" y="313" type="offcurve" name="14" />
   <point x="294" y="313" type="curve" smooth="yes" name="15" />
   <point x="251" y="313" type="offcurve" name="14" />
   <point x="202" y="331" type="offcurve" name="14" />
   <point x="202" y="428" type="curve" smooth="yes" name="15" />
   <point x="202" y="477" type="offcurve" name="14" />
   <point x="230" y="543" type="offcurve" name="14" />
   <point x="283" y="543" type="curve" smooth="yes" name="15" />
   <point x="360" y="543" type="offcurve" name="14" />
   <point x="363" y="434" type="offcurve" name="14" />
  </contour>
 </outline>
</glyph>
<glyph name="semicolon" format="1">
 <advance width="199" />
 <unicode hex="003b" />
 <outline>
  <contour>
   <point x="25" y="309" type="curve" smooth="yes" name="15" />
   <point x="25" y="271" type="offcurve" name="14" />
   <point x="55" y="242" type="offcurve" name="14" />
   <point x="93" y="242" type="curve" smooth="yes" name="15" />
   <point x="131" y="242" type="offcurve" name="14" />
   <point x="161" y="271" type="offcurve" name="14" />
   <point x="161" y="309" type="curve" smooth="yes" name="15" />
   <point x="161" y="347" type="offcurve" name="14" />
   <point x="131" y="378" type="offcurve" name="14" />
   <point x="93" y="378" type="curve" smooth="yes" name="15" />
   <point x="55" y="378" type="offcurve" name="14" />
   <point x="25" y="347" type="offcurve" name="14" />
  </contour>
  <contour>
   <point x="64" y="-105" type="line" smooth="no" name="13" />
   <point x="134" y="-90" type="offcurve" name="14" />
   <point x="169" y="-21" type="offcurve" name="14" />
   <point x="169" y="38" type="curve" smooth="yes" name="15" />
   <point x="169" y="78" type="offcurve" name="14" />
   <point x="146" y="124" type="offcurve" name="14" />
   <point x="98" y="124" type="curve" smooth="yes" name="15" />
   <point x="55" y="124" type="offcurve" name="14" />
   <point x="28" y="94" type="offcurve" name="14" />
   <point x="28" y="57" type="curve" smooth="yes" name="15" />
   <point x="28" y="20" type="offcurve" name="14" />
   <point x="48" y="0" type="offcurve" name="14" />
   <point x="76" y="0" type="curve" smooth="no" name="13" />
   <point x="76" y="-23" type="offcurve" name="14" />
   <point x="50" y="-39" type="offcurve" name="14" />
   <point x="32" y="-46" type="curve" smooth="no" name="13" />
  </contour>
 </outline>
</glyph>
<glyph name="less" format="1">
 <advance width="497" />
 <unicode hex="003c" />
 <outline>
  <contour>
   <point x="483" y="-15" type="line" smooth="no" name="13" />
   <point x="483" y="90" type="line" smooth="no" name="13" />
   <point x="116" y="236" type="line" smooth="no" name="13" />
   <point x="483" y="376" type="line" smooth="no" name="13" />
   <point x="483" y="479" type="line" smooth="no" name="13" />
   <point x="32" y="309" type="line" smooth="no" name="13" />
   <point x="32" y="162" type="line" smooth="no" name="13" />
  </contour>
 </outline>
</glyph>
<glyph name="equal" format="1">
 <advance width="516" />
 <unicode hex="003d" />
 <outline>
  <contour>
   <point x="484" y="257" type="line" smooth="no" name="13" />
   <point x="484" y="357" type="line" smooth="no" name="13" />
   <point x="32" y="357" type="line" smooth="no" name="13" />
   <point x="32" y="257" type="line" smooth="no" name="13" />
  </contour>
  <contour>
   <point x="484" y="97" type="line" smooth="no" name="13" />
   <point x="484" y="198" type="line" smooth="no" name="13" />
   <point x="32" y="198" type="line" smooth="no" name="13" />
   <point x="32" y="97" type="line" smooth="no" name="13" />
  </contour>
 </outline>
</glyph>
<glyph name="greater" format="1">
 <advance width="497" />
 <unicode hex="003e" />
 <outline>
  <contour>
   <point x="485" y="162" type="line" smooth="no" name="13" />
   <point x="485" y="309" type="line" smooth="no" name="13" />
   <point x="34" y="479" type="line" smooth="no" name="13" />
   <point x="34" y="376" type="line" smooth="no" name="13" />
   <point x="401" y="236" type="line" smooth="no" name="13" />
   <point x="34" y="90" type="line" smooth="no" name="13" />
   <point x="34" y="-15" type="line" smooth="no" name="13" />
  </contour>
 </outline>
</glyph>
<glyph name="question" format="1">
 <advance width="397" />
 <unicode hex="003f" />
 <outline>
  <contour>
   <point x="231" y="152" type="line" smooth="no" name="13" />
   <point x="231" y="219" type="line" smooth="yes" name="15" />
   <point x="231" y="265" type="offcurve" name="14" />
   <point x="252" y="284" type="offcurve" name="14" />
   <point x="275" y="304" type="curve" smooth="yes" name="15" />
   <point x="281" y="309" type="offcurve" name="14" />
   <point x="286" y="314" type="offcurve" name="14" />
   <point x="291" y="319" type="curve" smooth="yes" name="15" />
   <point x="333" y="361" type="offcurve" name="14" />
   <point x="365" y="418" type="offcurve" name="14" />
   <point x="365" y="484" type="curve" smooth="yes" name="15" />
   <point x="365" y="561" type="offcurve" name="14" />
   <point x="313" y="645" type="offcurve" name="14" />
   <point x="201" y="645" type="curve" smooth="yes" name="15" />
   <point x="130" y="645" type="offcurve" name="14" />
   <point x="72" y="617" type="offcurve" name="14" />
   <point x="32" y="580" type="curve" smooth="no" name="13" />
   <point x="79" y="510" type="line" smooth="no" name="13" />
   <point x="101" y="529" type="offcurve" name="14" />
   <point x="142" y="549" type="offcurve" name="14" />
   <point x="172" y="549" type="curve" smooth="yes" name="15" />
   <point x="208" y="549" type="offcurve" name="14" />
   <point x="247" y="523" type="offcurve" name="14" />
   <point x="247" y="479" type="curve" smooth="yes" name="15" />
   <point x="247" y="434" type="offcurve" name="14" />
   <point x="214" y="392" type="offcurve" name="14" />
   <point x="177" y="364" type="curve" smooth="yes" name="15" />
   <point x="108" y="311" type="offcurve" name="14" />
   <point x="108" y="287" type="offcurve" name="14" />
   <point x="108" y="227" type="curve" smooth="yes" name="15" />
   <point x="108" y="152" type="line" smooth="no" name="13" />
  </contour>
  <contour>
   <point x="99" y="55" type="curve" smooth="yes" name="15" />
   <point x="99" y="17" type="offcurve" name="14" />
   <point x="129" y="-12" type="offcurve" name="14" />
   <point x="167" y="-12" type="curve" smooth="yes" name="15" />
   <point x="205" y="-12" type="offcurve" name="14" />
   <point x="235" y="17" type="offcurve" name="14" />
   <point x="235" y="55" type="curve" smooth="yes" name="15" />
   <point x="235" y="93" type="offcurve" name="14" />
   <point x="205" y="124" type="offcurve" name="14" />
   <point x="167" y="124" type="curve" smooth="yes" name="15" />
   <point x="129" y="124" type="offcurve" name="14" />
   <point x="99" y="93" type="offcurve" name="14" />
  </contour>
 </outline>
</glyph>
<glyph name="at" format="1">
 <advance width="696" />
 <unicode hex="0040" />
 <outline>
  <contour>
   <point x="491" y="119" type="curve" smooth="yes" name="15" />
   <point x="491" y="307" type="line" smooth="no" name="13" />
   <point x="398" y="307" type="line" smooth="no" name="13" />
   <point x="388" y="292" type="line" smooth="no" name="13" />
   <point x="376" y="302" type="offcurve" name="14" />
   <point x="348" y="306" type="offcurve" name="14" />
   <point x="336" y="306" type="curve" smooth="yes" name="15" />
   <point x="264" y="306" type="offcurve" name="14" />
   <point x="182" y="245" type="offcurve" name="14" />
   <point x="182" y="130" type="curve" smooth="yes" name="15" />
   <point x="182" y="55" type="offcurve" name="14" />
   <point x="234" y="-12" type="offcurve" name="14" />
   <point x="308" y="-12" type="curve" smooth="yes" name="15" />
   <point x="372" y="-12" type="offcurve" name="14" />
   <point x="391" y="19" type="offcurve" name="14" />
   <point x="408" y="45" type="curve" smooth="no" name="13" />
   <point x="411" y="11" type="offcurve" name="14" />
   <point x="448" y="-12" type="offcurve" name="14" />
   <point x="501" y="-12" type="curve" smooth="yes" name="15" />
   <point x="624" y="-12" type="offcurve" name="14" />
   <point x="658" y="109" type="offcurve" name="14" />
   <point x="658" y="181" type="curve" smooth="yes" name="15" />
   <point x="658" y="361" type="offcurve" name="14" />
   <point x="508" y="466" type="offcurve" name="14" />
   <point x="355" y="466" type="curve" smooth="yes" name="15" />
   <point x="179" y="466" type="offcurve" name="14" />
   <point x="38" y="345" type="offcurve" name="14" />
   <point x="38" y="150" type="curve" smooth="yes" name="15" />
   <point x="38" y="-57" type="offcurve" name="14" />
   <point x="195" y="-175" type="offcurve" name="14" />
   <point x="366" y="-175" type="curve" smooth="yes" name="15" />
   <point x="383" y="-175" type="offcurve" name="14" />
   <point x="417" y="-173" type="offcurve" name="14" />
   <point x="430" y="-172" type="curve" smooth="no" name="13" />
   <point x="427" y="-88" type="line" smooth="no" name="13" />
   <point x="419" y="-89" type="offcurve" name="14" />
   <point x="404" y="-90" type="offcurve" name="14" />
   <point x="396" y="-90" type="curve" smooth="yes" name="15" />
   <point x="293" y="-90" type="offcurve" name="14" />
   <point x="144" y="-40" type="offcurve" name="14" />
   <point x="144" y="153" type="curve" smooth="yes" name="15" />
   <point x="144" y="298" type="offcurve" name="14" />
   <point x="234" y="380" type="offcurve" name="14" />
   <point x="355" y="380" type="curve" smooth="yes" name="15" />
   <point x="445" y="380" type="offcurve" name="14" />
   <point x="556" y="316" type="offcurve" name="14" />
   <point x="556" y="181" type="curve" smooth="yes" name="15" />
   <point x="556" y="111" type="offcurve" name="14" />
   <point x="540" y="74" type="offcurve" name="14" />
   <point x="509" y="74" type="curve" smooth="yes" name="15" />
   <point x="492" y="74" type="offcurve" name="14" />
   <point x="491" y="90" type="offcurve" name="14" />
  </contour>
  <contour>
   <point x="376" y="218" type="curve" smooth="no" name="13" />
   <point x="376" y="138" type="line" smooth="yes" name="15" />
   <point x="376" y="87" type="offcurve" name="14" />
   <point x="363" y="77" type="offcurve" name="14" />
   <point x="337" y="77" type="curve" smooth="yes" name="15" />
   <point x="311" y="77" type="offcurve" name="14" />
   <point x="298" y="102" type="offcurve" name="14" />
   <point x="298" y="147" type="curve" smooth="yes" name="15" />
   <point x="298" y="197" type="offcurve" name="14" />
   <point x="315" y="225" type="offcurve" name="14" />
   <point x="341" y="225" type="curve" smooth="yes" name="15" />
   <point x="350" y="225" type="offcurve" name="14" />
   <point x="368" y="222" type="offcurve" name="14" />
  </contour>
 </outline>
</glyph>
<glyph name="A" format="1">
 <advance width="586" />
 <unicode hex="0041" />
 <outline>
  <contour>
   <point x="238" y="633" type="line" smooth="no" name="13" />
   <point x="5" y="0" type="line" smooth="no" name="13" />
   <point x="136" y="0" type="line" smooth="no" name="13" />
   <point x="151" y="44" type="offcurve" name="14" />
   <point x="165" y="88" type="offcurve" name="14" />
   <point x="179" y="132" type="curve" smooth="no" name="13" />
   <point x="406" y="132" type="line" smooth="no" name="13" />
   <point x="420" y="87" type="offcurve" name="14" />
   <point x="433" y="44" type="offcurve" name="14" />
   <point x="448" y="0" type="curve" smooth="no" name="13" />
   <point x="581" y="0" type="line" smooth="no" name="13" />
   <point x="348" y="633" type="line" smooth="no" name="13" />
  </contour>
  <contour>
   <point x="294" y="462" type="curve" smooth="no" name="13" />
   <point x="319" y="386" type="offcurve" name="14" />
   <point x="345" y="312" type="offcurve" name="14" />
   <point x="369" y="240" type="curve" smooth="no" name="13" />
   <point x="217" y="240" type="line" smooth="no" name="13" />
   <point x="243" y="315" type="offcurve" name="14" />
   <point x="268" y="388" type="offcurve" name="14" />
  </contour>
 </outline>
</glyph>
<glyph name="B" format="1">
 <advance width="555" />
 <unicode hex="0042" />
 <outline>
  <contour>
   <point x="80" y="1" type="line" smooth="no" name="13" />
   <point x="113" y="-5" type="offcurve" name="14" />
   <point x="217" y="-12" type="offcurve" name="14" />
   <point x="252" y="-12" type="curve" smooth="yes" name="15" />
   <point x="417" y="-12" type="offcurve" name="14" />
   <point x="515" y="58" type="offcurve" name="14" />
   <point x="515" y="175" type="curve" smooth="yes" name="15" />
   <point x="515" y="245" type="offcurve" name="14" />
   <point x="478" y="325" type="offcurve" name="14" />
   <point x="372" y="337" type="curve" smooth="no" name="13" />
   <point x="372" y="338" type="line" smooth="no" name="13" />
   <point x="434" y="338" type="offcurve" name="14" />
   <point x="498" y="398" type="offcurve" name="14" />
   <point x="498" y="462" type="curve" smooth="yes" name="15" />
   <point x="498" y="566" type="offcurve" name="14" />
   <point x="428" y="645" type="offcurve" name="14" />
   <point x="264" y="645" type="curve" smooth="yes" name="15" />
   <point x="217" y="645" type="offcurve" name="14" />
   <point x="121" y="639" type="offcurve" name="14" />
   <point x="80" y="632" type="curve" smooth="no" name="13" />
  </contour>
  <contour>
   <point x="211" y="533" type="line" smooth="no" name="13" />
   <point x="231" y="537" type="offcurve" name="14" />
   <point x="250" y="539" type="offcurve" name="14" />
   <point x="264" y="539" type="curve" smooth="yes" name="15" />
   <point x="265" y="539" type="offcurve" name="14" />
   <point x="266" y="539" type="offcurve" name="14" />
   <point x="267" y="539" type="curve" smooth="yes" name="15" />
   <point x="317" y="538" type="offcurve" name="14" />
   <point x="369" y="522" type="offcurve" name="14" />
   <point x="369" y="458" type="curve" smooth="yes" name="15" />
   <point x="369" y="400" type="offcurve" name="14" />
   <point x="328" y="387" type="offcurve" name="14" />
   <point x="285" y="387" type="curve" smooth="yes" name="15" />
   <point x="211" y="387" type="line" smooth="no" name="13" />
  </contour>
  <contour>
   <point x="211" y="282" type="line" smooth="no" name="13" />
   <point x="279" y="282" type="line" smooth="yes" name="15" />
   <point x="345" y="282" type="offcurve" name="14" />
   <point x="379" y="242" type="offcurve" name="14" />
   <point x="379" y="176" type="curve" smooth="yes" name="15" />
   <point x="379" y="119" type="offcurve" name="14" />
   <point x="344" y="91" type="offcurve" name="14" />
   <point x="282" y="91" type="curve" smooth="yes" name="15" />
   <point x="277" y="91" type="offcurve" name="14" />
   <point x="236" y="91" type="offcurve" name="14" />
   <point x="211" y="99" type="curve" smooth="no" name="13" />
  </contour>
 </outline>
</glyph>
<glyph name="C" format="1">
 <advance width="572" />
 <unicode hex="0043" />
 <outline>
  <contour>
   <point x="532" y="71" type="curve" smooth="no" name="13" />
   <point x="481" y="150" type="line" smooth="no" name="13" />
   <point x="423" y="113" type="offcurve" name="14" />
   <point x="389" y="103" type="offcurve" name="14" />
   <point x="353" y="103" type="curve" smooth="yes" name="15" />
   <point x="225" y="103" type="offcurve" name="14" />
   <point x="176" y="223" type="offcurve" name="14" />
   <point x="176" y="310" type="curve" smooth="yes" name="15" />
   <point x="176" y="445" type="offcurve" name="14" />
   <point x="239" y="533" type="offcurve" name="14" />
   <point x="342" y="533" type="curve" smooth="yes" name="15" />
   <point x="391" y="533" type="offcurve" name="14" />
   <point x="433" y="510" type="offcurve" name="14" />
   <point x="473" y="481" type="curve" smooth="no" name="13" />
   <point x="524" y="564" type="line" smooth="no" name="13" />
   <point x="460" y="618" type="offcurve" name="14" />
   <point x="398" y="645" type="offcurve" name="14" />
   <point x="332" y="645" type="curve" smooth="yes" name="15" />
   <point x="124" y="645" type="offcurve" name="14" />
   <point x="40" y="479" type="offcurve" name="14" />
   <point x="40" y="310" type="curve" smooth="yes" name="15" />
   <point x="40" y="167" type="offcurve" name="14" />
   <point x="116" y="-12" type="offcurve" name="14" />
   <point x="337" y="-12" type="curve" smooth="yes" name="15" />
   <point x="411" y="-12" type="offcurve" name="14" />
   <point x="479" y="18" type="offcurve" name="14" />
  </contour>
 </outline>
</glyph>
<glyph name="D" format="1">
 <advance width="631" />
 <unicode hex="0044" />
 <outline>
  <contour>
   <point x="80" y="632" type="curve" smooth="no" name="13" />
   <point x="80" y="1" type="line" smooth="no" name="13" />
   <point x="115" y="-6" type="offcurve" name="14" />
   <point x="216" y="-12" type="offcurve" name="14" />
   <point x="245" y="-12" type="curve" smooth="yes" name="15" />
   <point x="476" y="-12" type="offcurve" name="14" />
   <point x="591" y="114" type="offcurve" name="14" />
   <point x="591" y="323" type="curve" smooth="yes" name="15" />
   <point x="591" y="517" type="offcurve" name="14" />
   <point x="469" y="645" type="offcurve" name="14" />
   <point x="253" y="645" type="curve" smooth="yes" name="15" />
   <point x="191" y="645" type="offcurve" name="14" />
   <point x="95" y="636" type="offcurve" name="14" />
  </contour>
  <contour>
   <point x="211" y="96" type="curve" smooth="no" name="13" />
   <point x="211" y="535" type="line" smooth="no" name="13" />
   <point x="235" y="540" type="offcurve" name="14" />
   <point x="245" y="540" type="offcurve" name="14" />
   <point x="258" y="540" type="curve" smooth="yes" name="15" />
   <point x="368" y="540" type="offcurve" name="14" />
   <point x="454" y="466" type="offcurve" name="14" />
   <point x="454" y="319" type="curve" smooth="yes" name="15" />
   <point x="454" y="164" type="offcurve" name="14" />
   <point x="382" y="91" type="offcurve" name="14" />
   <point x="261" y="91" type="curve" smooth="yes" name="15" />
   <point x="255" y="91" type="offcurve" name="14" />
   <point x="231" y="91" type="offcurve" name="14" />
  </contour>
 </outline>
</glyph>
<glyph name="E" format="1">
 <advance width="506" />
 <unicode hex="0045" />
 <outline>
  <contour>
   <point x="64" y="633" type="line" smooth="no" name="13" />
   <point x="64" y="0" type="line" smooth="no" name="13" />
   <point x="491" y="0" type="line" smooth="no" name="13" />
   <point x="491" y="105" type="line" smooth="no" name="13" />
   <point x="195" y="105" type="line" smooth="no" name="13" />
   <point x="195" y="274" type="line" smooth="no" name="13" />
   <point x="431" y="274" type="line" smooth="no" name="13" />
   <point x="431" y="379" type="line" smooth="no" name="13" />
   <point x="195" y="379" type="line" smooth="no" name="13" />
   <point x="195" y="528" type="line" smooth="no" name="13" />
   <point x="478" y="528" type="line" smooth="no" name="13" />
   <point x="478" y="633" type="line" smooth="no" name="13" />
  </contour>
 </outline>
</glyph>
<glyph name="F" format="1">
 <advance width="493" />
 <unicode hex="0046" />
 <outline>
  <contour>
   <point x="64" y="0" type="line" smooth="no" name="13" />
   <point x="195" y="0" type="line" smooth="no" name="13" />
   <point x="195" y="273" type="line" smooth="no" name="13" />
   <point x="431" y="273" type="line" smooth="no" name="13" />
   <point x="431" y="378" type="line" smooth="no" name="13" />
   <point x="195" y="378" type="line" smooth="no" name="13" />
   <point x="195" y="528" type="line" smooth="no" name="13" />
   <point x="478" y="528" type="line" smooth="no" name="13" />
   <point x="478" y="633" type="line" smooth="no" name="13" />
   <point x="64" y="633" type="line" smooth="no" name="13" />
  </contour>
 </outline>
</glyph>
<glyph name="G" format="1">
 <advance width="574" />
 <unicode hex="0047" />
 <outline>
  <contour>
   <point x="548" y="53" type="curve" smooth="no" name="13" />
   <point x="548" y="357" type="line" smooth="no" name="13" />
   <point x="311" y="357" type="line" smooth="no" name="13" />
   <point x="311" y="243" type="line" smooth="no" name="13" />
   <point x="424" y="243" type="line" smooth="no" name="13" />
   <point x="424" y="112" type="line" smooth="no" name="13" />
   <point x="408" y="106" type="offcurve" name="14" />
   <point x="384" y="99" type="offcurve" name="14" />
   <point x="347" y="99" type="curve" smooth="yes" name="15" />
   <point x="254" y="99" type="offcurve" name="14" />
   <point x="176" y="181" type="offcurve" name="14" />
   <point x="176" y="311" type="curve" smooth="yes" name="15" />
   <point x="176" y="461" type="offcurve" name="14" />
   <point x="260" y="533" type="offcurve" name="14" />
   <point x="333" y="533" type="curve" smooth="yes" name="15" />
   <point x="388" y="533" type="offcurve" name="14" />
   <point x="433" y="510" type="offcurve" name="14" />
   <point x="473" y="481" type="curve" smooth="no" name="13" />
   <point x="524" y="564" type="line" smooth="no" name="13" />
   <point x="470" y="614" type="offcurve" name="14" />
   <point x="398" y="645" type="offcurve" name="14" />
   <point x="325" y="645" type="curve" smooth="yes" name="15" />
   <point x="142" y="645" type="offcurve" name="14" />
   <point x="40" y="484" type="offcurve" name="14" />
   <point x="40" y="315" type="curve" smooth="yes" name="15" />
   <point x="40" y="156" type="offcurve" name="14" />
   <point x="118" y="-12" type="offcurve" name="14" />
   <point x="321" y="-12" type="curve" smooth="yes" name="15" />
   <point x="427" y="-12" type="offcurve" name="14" />
   <point x="494" y="23" type="offcurve" name="14" />
  </contour>
 </outline>
</glyph>
<glyph name="H" format="1">
 <advance width="692" />
 <unicode hex="0048" />
 <outline>
  <contour>
   <point x="209" y="0" type="line" smooth="no" name="13" />
   <point x="209" y="274" type="line" smooth="no" name="13" />
   <point x="481" y="274" type="line" smooth="no" name="13" />
   <point x="481" y="0" type="line" smooth="no" name="13" />
   <point x="612" y="0" type="line" smooth="no" name="13" />
   <point x="612" y="633" type="line" smooth="no" name="13" />
   <point x="481" y="633" type="line" smooth="no" name="13" />
   <point x="481" y="379" type="line" smooth="no" name="13" />
   <point x="209" y="379" type="line" smooth="no" name="13" />
   <point x="209" y="633" type="line" smooth="no" name="13" />
   <point x="80" y="633" type="line" smooth="no" name="13" />
   <point x="80" y="0" type="line" smooth="no" name="13" />
  </contour>
 </outline>
</glyph>
<glyph name="I" format="1">
 <advance width="289" />
 <unicode hex="0049" />
 <outline>
  <contour>
   <point x="209" y="633" type="line" smooth="no" name="13" />
   <point x="80" y="633" type="line" smooth="no" name="13" />
   <point x="80" y="0" type="line" smooth="no" name="13" />
   <point x="209" y="0" type="line" smooth="no" name="13" />
  </contour>
 </outline>
</glyph>
<glyph name="J" format="1">
 <advance width="269" />
 <unicode hex="004a" />
 <outline>
  <contour>
   <point x="189" y="633" type="line" smooth="no" name="13" />
   <point x="60" y="633" type="line" smooth="no" name="13" />
   <point x="60" y="-18" type="line" smooth="yes" name="15" />
   <point x="60" y="-62" type="offcurve" name="14" />
   <point x="45" y="-71" type="offcurve" name="14" />
   <point x="26" y="-71" type="curve" smooth="yes" name="15" />
   <point x="9" y="-71" type="offcurve" name="14" />
   <point x="-23" y="-63" type="offcurve" name="14" />
   <point x="-51" y="-45" type="curve" smooth="no" name="13" />
   <point x="-95" y="-117" type="line" smooth="no" name="13" />
   <point x="-66" y="-139" type="offcurve" name="14" />
   <point x="-10" y="-168" type="offcurve" name="14" />
   <point x="52" y="-168" type="curve" smooth="yes" name="15" />
   <point x="163" y="-168" type="offcurve" name="14" />
   <point x="189" y="-99" type="offcurve" name="14" />
   <point x="189" y="-25" type="curve" smooth="yes" name="15" />
  </contour>
 </outline>
</glyph>
<glyph name="K" format="1">
 <advance width="596" />
 <unicode hex="004b" />
 <outline>
  <contour>
   <point x="204" y="633" type="line" smooth="no" name="13" />
   <point x="80" y="633" type="line" smooth="no" name="13" />
   <point x="80" y="0" type="line" smooth="no" name="13" />
   <point x="204" y="0" type="line" smooth="no" name="13" />
   <point x="204" y="296" type="line" smooth="no" name="13" />
   <point x="207" y="296" type="line" smooth="no" name="13" />
   <point x="282" y="197" type="offcurve" name="14" />
   <point x="356" y="99" type="offcurve" name="14" />
   <point x="430" y="0" type="curve" smooth="no" name="13" />
   <point x="604" y="0" type="line" smooth="no" name="13" />
   <point x="513" y="112" type="offcurve" name="14" />
   <point x="422" y="223" type="offcurve" name="14" />
   <point x="329" y="335" type="curve" smooth="no" name="13" />
   <point x="404" y="432" type="offcurve" name="14" />
   <point x="481" y="533" type="offcurve" name="14" />
   <point x="557" y="633" type="curve" smooth="no" name="13" />
   <point x="396" y="633" type="line" smooth="no" name="13" />
   <point x="332" y="545" type="offcurve" name="14" />
   <point x="268" y="459" type="offcurve" name="14" />
   <point x="204" y="372" type="curve" smooth="no" name="13" />
  </contour>
 </outline>
</glyph>
<glyph name="L" format="1">
 <advance width="463" />
 <unicode hex="004c" />
 <outline>
  <contour>
   <point x="80" y="0" type="line" smooth="no" name="13" />
   <point x="448" y="0" type="line" smooth="no" name="13" />
   <point x="448" y="105" type="line" smooth="no" name="13" />
   <point x="211" y="105" type="line" smooth="no" name="13" />
   <point x="211" y="633" type="line" smooth="no" name="13" />
   <point x="80" y="633" type="line" smooth="no" name="13" />
  </contour>
 </outline>
</glyph>
<glyph name="M" format="1">
 <advance width="837" />
 <unicode hex="004d" />
 <outline>
  <contour>
   <point x="417" y="150" type="curve" smooth="no" name="13" />
   <point x="375" y="308" type="offcurve" name="14" />
   <point x="338" y="426" type="offcurve" name="14" />
   <point x="262" y="633" type="curve" smooth="no" name="13" />
   <point x="80" y="633" type="line" smooth="no" name="13" />
   <point x="80" y="0" type="line" smooth="no" name="13" />
   <point x="209" y="0" type="line" smooth="no" name="13" />
   <point x="209" y="509" type="line" smooth="no" name="13" />
   <point x="242" y="370" type="offcurve" name="14" />
   <point x="326" y="110" type="offcurve" name="14" />
   <point x="362" y="0" type="curve" smooth="no" name="13" />
   <point x="471" y="0" type="line" smooth="no" name="13" />
   <point x="518" y="136" type="offcurve" name="14" />
   <point x="593" y="375" type="offcurve" name="14" />
   <point x="625" y="514" type="curve" smooth="no" name="13" />
   <point x="625" y="0" type="line" smooth="no" name="13" />
   <point x="757" y="0" type="line" smooth="no" name="13" />
   <point x="757" y="633" type="line" smooth="no" name="13" />
   <point x="567" y="633" type="line" smooth="no" name="13" />
   <point x="504" y="446" type="offcurve" name="14" />
   <point x="461" y="309" type="offcurve" name="14" />
  </contour>
 </outline>
</glyph>
<glyph name="N" format="1">
 <advance width="718" />
 <unicode hex="004e" />
 <outline>
  <contour>
   <point x="209" y="424" type="line" smooth="no" name="13" />
   <point x="279" y="326" type="offcurve" name="14" />
   <point x="441" y="101" type="offcurve" name="14" />
   <point x="526" y="0" type="curve" smooth="no" name="13" />
   <point x="638" y="0" type="line" smooth="no" name="13" />
   <point x="638" y="633" type="line" smooth="no" name="13" />
   <point x="507" y="633" type="line" smooth="no" name="13" />
   <point x="507" y="196" type="line" smooth="no" name="13" />
   <point x="433" y="303" type="offcurve" name="14" />
   <point x="255" y="547" type="offcurve" name="14" />
   <point x="189" y="633" type="curve" smooth="no" name="13" />
   <point x="80" y="633" type="line" smooth="no" name="13" />
   <point x="80" y="0" type="line" smooth="no" name="13" />
   <point x="209" y="0" type="line" smooth="no" name="13" />
  </contour>
 </outline>
</glyph>
<glyph name="P" format="1">
 <advance width="540" />
 <unicode hex="0050" />
 <outline>
  <contour>
   <point x="80" y="0" type="line" smooth="no" name="13" />
   <point x="211" y="0" type="line" smooth="no" name="13" />
   <point x="211" y="236" type="line" smooth="no" name="13" />
   <point x="216" y="233" type="offcurve" name="14" />
   <point x="263" y="228" type="offcurve" name="14" />
   <point x="284" y="228" type="curve" smooth="yes" name="15" />
   <point x="372" y="228" type="offcurve" name="14" />
   <point x="500" y="275" type="offcurve" name="14" />
   <point x="500" y="447" type="curve" smooth="yes" name="15" />
   <point x="500" y="554" type="offcurve" name="14" />
   <point x="441" y="645" type="offcurve" name="14" />
   <point x="258" y="645" type="curve" smooth="yes" name="15" />
   <point x="207" y="645" type="offcurve" name="14" />
   <point x="96" y="636" type="offcurve" name="14" />
   <point x="80" y="632" type="curve" smooth="no" name="13" />
  </contour>
  <contour>
   <point x="211" y="533" type="line" smooth="no" name="13" />
   <point x="217" y="537" type="offcurve" name="14" />
   <point x="247" y="540" type="offcurve" name="14" />
   <point x="273" y="540" type="curve" smooth="yes" name="15" />
   <point x="327" y="540" type="offcurve" name="14" />
   <point x="362" y="513" type="offcurve" name="14" />
   <point x="362" y="439" type="curve" smooth="yes" name="15" />
   <point x="362" y="361" type="offcurve" name="14" />
   <point x="320" y="332" type="offcurve" name="14" />
   <point x="276" y="332" type="curve" smooth="yes" name="15" />
   <point x="259" y="332" type="offcurve" name="14" />
   <point x="232" y="334" type="offcurve" name="14" />
   <point x="211" y="342" type="curve" smooth="no" name="13" />
  </contour>
 </outline>
</glyph>
<glyph name="Q" format="1">
 <advance width="654" />
 <unicode hex="0051" />
 <outline>
  <contour>
   <point x="379" y="-8" type="curve" smooth="no" name="13" />
   <point x="465" y="-107" type="line" smooth="no" name="13" />
   <point x="618" y="-107" type="line" smooth="no" name="13" />
   <point x="576" y="-62" type="offcurve" name="14" />
   <point x="532" y="-14" type="offcurve" name="14" />
   <point x="491" y="32" type="curve" smooth="no" name="13" />
   <point x="572" y="89" type="offcurve" name="14" />
   <point x="614" y="192" type="offcurve" name="14" />
   <point x="614" y="305" type="curve" smooth="yes" name="15" />
   <point x="614" y="479" type="offcurve" name="14" />
   <point x="520" y="645" type="offcurve" name="14" />
   <point x="327" y="645" type="curve" smooth="yes" name="15" />
   <point x="141" y="645" type="offcurve" name="14" />
   <point x="40" y="492" type="offcurve" name="14" />
   <point x="40" y="305" type="curve" smooth="yes" name="15" />
   <point x="40" y="134" type="offcurve" name="14" />
   <point x="135" y="-12" type="offcurve" name="14" />
   <point x="327" y="-12" type="curve" smooth="yes" name="15" />
   <point x="345" y="-12" type="offcurve" name="14" />
   <point x="363" y="-10" type="offcurve" name="14" />
  </contour>
  <contour>
   <point x="327" y="98" type="curve" smooth="yes" name="15" />
   <point x="226" y="98" type="offcurve" name="14" />
   <point x="176" y="173" type="offcurve" name="14" />
   <point x="176" y="305" type="curve" smooth="yes" name="15" />
   <point x="176" y="441" type="offcurve" name="14" />
   <point x="226" y="533" type="offcurve" name="14" />
   <point x="327" y="533" type="curve" smooth="yes" name="15" />
   <point x="425" y="533" type="offcurve" name="14" />
   <point x="477" y="441" type="offcurve" name="14" />
   <point x="477" y="305" type="curve" smooth="yes" name="15" />
   <point x="477" y="173" type="offcurve" name="14" />
   <point x="425" y="98" type="offcurve" name="14" />
  </contour>
 </outline>
</glyph>
<glyph name="R" format="1">
 <advance width="525" />
 <unicode hex="0052" />
 <outline>
  <contour>
   <point x="80" y="0" type="line" smooth="no" name="13" />
   <point x="211" y="0" type="line" smooth="no" name="13" />
   <point x="211" y="236" type="line" smooth="no" name="13" />
   <point x="216" y="233" type="offcurve" name="14" />
   <point x="247" y="228" type="offcurve" name="14" />
   <point x="268" y="228" type="curve" smooth="yes" name="15" />
   <point x="277" y="228" type="offcurve" name="14" />
   <point x="287" y="228" type="offcurve" name="14" />
   <point x="298" y="230" type="curve" smooth="no" name="13" />
   <point x="336" y="149" type="offcurve" name="14" />
   <point x="373" y="69" type="offcurve" name="14" />
   <point x="404" y="0" type="curve" smooth="no" name="13" />
   <point x="536" y="0" type="line" smooth="no" name="13" />
   <point x="494" y="88" type="offcurve" name="14" />
   <point x="452" y="175" type="offcurve" name="14" />
   <point x="413" y="265" type="curve" smooth="no" name="13" />
   <point x="450" y="297" type="offcurve" name="14" />
   <point x="500" y="347" type="offcurve" name="14" />
   <point x="500" y="447" type="curve" smooth="yes" name="15" />
   <point x="500" y="554" type="offcurve" name="14" />
   <point x="441" y="645" type="offcurve" name="14" />
   <point x="258" y="645" type="curve" smooth="yes" name="15" />
   <point x="207" y="645" type="offcurve" name="14" />
   <point x="96" y="636" type="offcurve" name="14" />
   <point x="80" y="632" type="curve" smooth="no" name="13" />
  </contour>
  <contour>
   <point x="211" y="533" type="line" smooth="no" name="13" />
   <point x="217" y="537" type="offcurve" name="14" />
   <point x="247" y="540" type="offcurve" name="14" />
   <point x="273" y="540" type="curve" smooth="yes" name="15" />
   <point x="327" y="540" type="offcurve" name="14" />
   <point x="362" y="513" type="offcurve" name="14" />
   <point x="362" y="447" type="curve" smooth="yes" name="15" />
   <point x="362" y="364" type="offcurve" name="14" />
   <point x="324" y="333" type="offcurve" name="14" />
   <point x="276" y="333" type="curve" smooth="yes" name="15" />
   <point x="240" y="333" type="offcurve" name="14" />
   <point x="223" y="338" type="offcurve" name="14" />
   <point x="211" y="342" type="curve" smooth="no" name="13" />
  </contour>
 </outline>
</glyph>
<glyph name="S" format="1">
 <advance width="536" />
 <unicode hex="0053" />
 <outline>
  <contour>
   <point x="472" y="581" type="curve" smooth="no" name="13" />
   <point x="433" y="608" type="offcurve" name="14" />
   <point x="375" y="645" type="offcurve" name="14" />
   <point x="274" y="645" type="curve" smooth="yes" name="15" />
   <point x="136" y="645" type="offcurve" name="14" />
   <point x="65" y="567" type="offcurve" name="14" />
   <point x="65" y="473" type="curve" smooth="yes" name="15" />
   <point x="65" y="376" type="offcurve" name="14" />
   <point x="134" y="318" type="offcurve" name="14" />
   <point x="244" y="281" type="curve" smooth="yes" name="15" />
   <point x="332" y="251" type="offcurve" name="14" />
   <point x="355" y="224" type="offcurve" name="14" />
   <point x="355" y="189" type="curve" smooth="yes" name="15" />
   <point x="355" y="125" type="offcurve" name="14" />
   <point x="307" y="106" type="offcurve" name="14" />
   <point x="252" y="106" type="curve" smooth="yes" name="15" />
   <point x="204" y="106" type="offcurve" name="14" />
   <point x="149" y="114" type="offcurve" name="14" />
   <point x="103" y="145" type="curve" smooth="no" name="13" />
   <point x="45" y="64" type="line" smooth="no" name="13" />
   <point x="89" y="36" type="offcurve" name="14" />
   <point x="163" y="-12" type="offcurve" name="14" />
   <point x="269" y="-12" type="curve" smooth="yes" name="15" />
   <point x="392" y="-12" type="offcurve" name="14" />
   <point x="491" y="55" type="offcurve" name="14" />
   <point x="491" y="181" type="curve" smooth="yes" name="15" />
   <point x="491" y="276" type="offcurve" name="14" />
   <point x="427" y="336" type="offcurve" name="14" />
   <point x="288" y="390" type="curve" smooth="yes" name="15" />
   <point x="195" y="426" type="offcurve" name="14" />
   <point x="190" y="443" type="offcurve" name="14" />
   <point x="190" y="473" type="curve" smooth="yes" name="15" />
   <point x="190" y="509" type="offcurve" name="14" />
   <point x="219" y="535" type="offcurve" name="14" />
   <point x="273" y="535" type="curve" smooth="yes" name="15" />
   <point x="324" y="535" type="offcurve" name="14" />
   <point x="384" y="514" type="offcurve" name="14" />
   <point x="416" y="500" type="curve" smooth="no" name="13" />
   <point x="435" y="527" type="offcurve" name="14" />
   <point x="454" y="554" type="offcurve" name="14" />
  </contour>
 </outline>
</glyph>
<glyph name="T" format="1">
 <advance width="542" />
 <unicode hex="0054" />
 <outline>
  <contour>
   <point x="198" y="528" type="line" smooth="no" name="13" />
   <point x="198" y="0" type="line" smooth="no" name="13" />
   <point x="330" y="0" type="line" smooth="no" name="13" />
   <point x="330" y="528" type="line" smooth="no" name="13" />
   <point x="527" y="528" type="line" smooth="no" name="13" />
   <point x="527" y="633" type="line" smooth="no" name="13" />
   <point x="15" y="633" type="line" smooth="no" name="13" />
   <point x="15" y="528" type="line" smooth="no" name="13" />
  </contour>
 </outline>
</glyph>
<glyph name="U" format="1">
 <advance width="648" />
 <unicode hex="0055" />
 <outline>
  <contour>
   <point x="568" y="266" type="curve" smooth="yes" name="15" />
   <point x="568" y="633" type="line" smooth="no" name="13" />
   <point x="438" y="633" type="line" smooth="no" name="13" />
   <point x="438" y="248" type="line" smooth="yes" name="15" />
   <point x="438" y="140" type="offcurve" name="14" />
   <point x="393" y="98" type="offcurve" name="14" />
   <point x="324" y="98" type="curve" smooth="yes" name="15" />
   <point x="255" y="98" type="offcurve" name="14" />
   <point x="212" y="140" type="offcurve" name="14" />
   <point x="212" y="248" type="curve" smooth="yes" name="15" />
   <point x="212" y="633" type="line" smooth="no" name="13" />
   <point x="80" y="633" type="line" smooth="no" name="13" />
   <point x="80" y="266" type="line" smooth="yes" name="15" />
   <point x="80" y="73" type="offcurve" name="14" />
   <point x="174" y="-12" type="offcurve" name="14" />
   <point x="324" y="-12" type="curve" smooth="yes" name="15" />
   <point x="474" y="-12" type="offcurve" name="14" />
   <point x="568" y="73" type="offcurve" name="14" />
  </contour>
 </outline>
</glyph>
<glyph name="V" format="1">
 <advance width="569" />
 <unicode hex="0056" />
 <outline>
  <contour>
   <point x="139" y="633" type="line" smooth="no" name="13" />
   <point x="5" y="633" type="line" smooth="no" name="13" />
   <point x="235" y="0" type="line" smooth="no" name="13" />
   <point x="335" y="0" type="line" smooth="no" name="13" />
   <point x="566" y="633" type="line" smooth="no" name="13" />
   <point x="431" y="633" type="line" smooth="no" name="13" />
   <point x="285" y="211" type="line" smooth="no" name="13" />
  </contour>
 </outline>
</glyph>
<glyph name="W" format="1">
 <advance width="798" />
 <unicode hex="0057" />
 <outline>
  <contour>
   <point x="467" y="633" type="curve" smooth="no" name="13" />
   <point x="331" y="633" type="line" smooth="no" name="13" />
   <point x="294" y="491" type="offcurve" name="14" />
   <point x="256" y="351" type="offcurve" name="14" />
   <point x="218" y="211" type="curve" smooth="no" name="13" />
   <point x="139" y="633" type="line" smooth="no" name="13" />
   <point x="5" y="633" type="line" smooth="no" name="13" />
   <point x="158" y="0" type="line" smooth="no" name="13" />
   <point x="267" y="0" type="line" smooth="no" name="13" />
   <point x="311" y="147" type="offcurve" name="14" />
   <point x="354" y="295" type="offcurve" name="14" />
   <point x="398" y="442" type="curve" smooth="no" name="13" />
   <point x="441" y="295" type="offcurve" name="14" />
   <point x="485" y="147" type="offcurve" name="14" />
   <point x="528" y="0" type="curve" smooth="no" name="13" />
   <point x="636" y="0" type="line" smooth="no" name="13" />
   <point x="793" y="633" type="line" smooth="no" name="13" />
   <point x="658" y="633" type="line" smooth="no" name="13" />
   <point x="577" y="211" type="line" smooth="no" name="13" />
   <point x="540" y="351" type="offcurve" name="14" />
   <point x="504" y="491" type="offcurve" name="14" />
  </contour>
 </outline>
</glyph>
<glyph name="X" format="1">
 <advance width="609" />
 <unicode hex="0058" />
 <outline>
  <contour>
   <point x="606" y="633" type="line" smooth="no" name="13" />
   <point x="454" y="633" type="line" smooth="no" name="13" />
   <point x="409" y="559" type="offcurve" name="14" />
   <point x="365" y="486" type="offcurve" name="14" />
   <point x="319" y="413" type="curve" smooth="no" name="13" />
   <point x="185" y="633" type="line" smooth="no" name="13" />
   <point x="33" y="633" type="line" smooth="no" name="13" />
   <point x="221" y="325" type="line" smooth="no" name="13" />
   <point x="5" y="0" type="line" smooth="no" name="13" />
   <point x="157" y="0" type="line" smooth="no" name="13" />
   <point x="206" y="85" type="offcurve" name="14" />
   <point x="255" y="169" type="offcurve" name="14" />
   <point x="305" y="254" type="curve" smooth="no" name="13" />
   <point x="453" y="0" type="line" smooth="no" name="13" />
   <point x="602" y="0" type="line" smooth="no" name="13" />
   <point x="532" y="110" type="offcurve" name="14" />
   <point x="469" y="209" type="offcurve" name="14" />
   <point x="398" y="323" type="curve" smooth="no" name="13" />
  </contour>
 </outline>
</glyph>
<glyph name="Z" format="1">
 <advance width="484" />
 <unicode hex="005a" />
 <outline>
  <contour>
   <point x="462" y="633" type="line" smooth="no" name="13" />
   <point x="24" y="633" type="line" smooth="no" name="13" />
   <point x="24" y="528" type="line" smooth="no" name="13" />
   <point x="310" y="528" type="line" smooth="no" name="13" />
   <point x="212" y="383" type="offcurve" name="14" />
   <point x="113" y="237" type="offcurve" name="14" />
   <point x="15" y="93" type="curve" smooth="no" name="13" />
   <point x="15" y="0" type="line" smooth="no" name="13" />
   <point x="469" y="0" type="line" smooth="no" name="13" />
   <point x="469" y="105" type="line" smooth="no" name="13" />
   <point x="182" y="105" type="line" smooth="no" name="13" />
   <point x="462" y="524" type="line" smooth="no" name="13" />
  </contour>
 </outline>
</glyph>
<glyph name="bracketleft" format="1">
 <advance width="347" />
 <unicode hex="005b" />
 <outline>
  <contour>
   <point x="312" y="-140" type="line" smooth="no" name="13" />
   <point x="312" y="-46" type="line" smooth="no" name="13" />
   <point x="202" y="-46" type="line" smooth="no" name="13" />
   <point x="202" y="548" type="line" smooth="no" name="13" />
   <point x="312" y="548" type="line" smooth="no" name="13" />
   <point x="312" y="645" type="line" smooth="no" name="13" />
   <point x="81" y="645" type="line" smooth="no" name="13" />
   <point x="81" y="-140" type="line" smooth="no" name="13" />
  </contour>
 </outline>
</glyph>
<glyph name="backslash" format="1">
 <advance width="372" />
 <unicode hex="005c" />
 <outline>
  <contour>
   <point x="313" y="-30" type="line" smooth="no" name="13" />
   <point x="412" y="-30" type="line" smooth="no" name="13" />
   <point x="101" y="633" type="line" smooth="no" name="13" />
   <point x="0" y="633" type="line" smooth="no" name="13" />
  </contour>
 </outline>
</glyph>
<glyph name="bracketright" format="1">
 <advance width="348" />
 <unicode hex="005d" />
 <outline>
  <contour>
   <point x="35" y="645" type="line" smooth="no" name="13" />
   <point x="35" y="548" type="line" smooth="no" name="13" />
   <point x="144" y="548" type="line" smooth="no" name="13" />
   <point x="144" y="-46" type="line" smooth="no" name="13" />
   <point x="35" y="-46" type="line" smooth="no" name="13" />
   <point x="35" y="-140" type="line" smooth="no" name="13" />
   <point x="267" y="-140" type="line" smooth="no" name="13" />
   <point x="267" y="645" type="line" smooth="no" name="13" />
  </contour>
 </outline>
</glyph>
<glyph name="asciicircum" format="1">
 <advance width="450" />
 <unicode hex="005e" />
 <outline>
  <contour>
   <point x="177" y="609" type="line" smooth="no" name="13" />
   <point x="25" y="302" type="line" smooth="no" name="13" />
   <point x="149" y="302" type="line" smooth="no" name="13" />
   <point x="223" y="460" type="line" smooth="no" name="13" />
   <point x="310" y="302" type="line" smooth="no" name="13" />
   <point x="425" y="302" type="line" smooth="no" name="13" />
   <point x="273" y="609" type="line" smooth="no" name="13" />
  </contour>
 </outline>
</glyph>
<glyph name="underscore" format="1">
 <advance width="404" />
 <unicode hex="005f" />
 <outline>
  <contour>
   <point x="409" y="-131" type="line" smooth="no" name="13" />
   <point x="409" y="-30" type="line" smooth="no" name="13" />
   <point x="-5" y="-30" type="line" smooth="no" name="13" />
   <point x="-5" y="-131" type="line" smooth="no" name="13" />
  </contour>
 </outline>
</glyph>
<glyph name="grave" format="1">
 <advance width="226" />
 <unicode hex="0060" />
 <outline>
  <contour>
   <point x="124" y="509" type="line" smooth="no" name="13" />
   <point x="211" y="509" type="line" smooth="no" name="13" />
   <point x="139" y="655" type="line" smooth="no" name="13" />
   <point x="15" y="655" type="line" smooth="no" name="13" />
  </contour>
 </outline>
</glyph>
<glyph name="b" format="1">
 <advance width="561" />
 <unicode hex="0062" />
 <outline>
  <contour>
   <point x="168" y="0" type="line" smooth="no" name="13" />
   <point x="178" y="45" type="line" smooth="no" name="13" />
   <point x="203" y="14" type="offcurve" name="14" />
   <point x="248" y="-12" type="offcurve" name="14" />
   <point x="308" y="-12" type="curve" smooth="yes" name="15" />
   <point x="421" y="-12" type="offcurve" name="14" />
   <point x="525" y="63" type="offcurve" name="14" />
   <point x="525" y="236" type="curve" smooth="yes" name="15" />
   <point x="525" y="382" type="offcurve" name="14" />
   <point x="441" y="467" type="offcurve" name="14" />
   <point x="317" y="467" type="curve" smooth="yes" name="15" />
   <point x="294" y="467" type="offcurve" name="14" />
   <point x="268" y="461" type="offcurve" name="14" />
   <point x="251" y="453" type="curve" smooth="yes" name="15" />
   <point x="223" y="440" type="offcurve" name="14" />
   <point x="203" y="420" type="offcurve" name="14" />
   <point x="192" y="403" type="curve" smooth="no" name="13" />
   <point x="192" y="645" type="line" smooth="no" name="13" />
   <point x="66" y="574" type="line" smooth="no" name="13" />
   <point x="66" y="0" type="line" smooth="no" name="13" />
  </contour>
  <contour>
   <point x="192" y="272" type="line" smooth="yes" name="15" />
   <point x="192" y="308" type="offcurve" name="14" />
   <point x="218" y="375" type="offcurve" name="14" />
   <point x="293" y="375" type="curve" smooth="yes" name="15" />
   <point x="352" y="375" type="offcurve" name="14" />
   <point x="391" y="321" type="offcurve" name="14" />
   <point x="391" y="226" type="curve" smooth="yes" name="15" />
   <point x="391" y="127" type="offcurve" name="14" />
   <point x="347" y="76" type="offcurve" name="14" />
   <point x="287" y="76" type="curve" smooth="yes" name="15" />
   <point x="223" y="76" type="offcurve" name="14" />
   <point x="195" y="131" type="offcurve" name="14" />
   <point x="192" y="163" type="curve" smooth="no" name="13" />
  </contour>
 </outline>
</glyph>
<glyph name="c" format="1">
 <advance width="477" />
 <unicode hex="0063" />
 <outline>
  <contour>
   <point x="449" y="58" type="curve" smooth="no" name="13" />
   <point x="406" y="127" type="line" smooth="no" name="13" />
   <point x="382" y="102" type="offcurve" name="14" />
   <point x="347" y="78" type="offcurve" name="14" />
   <point x="293" y="78" type="curve" smooth="yes" name="15" />
   <point x="229" y="78" type="offcurve" name="14" />
   <point x="167" y="127" type="offcurve" name="14" />
   <point x="167" y="222" type="curve" smooth="yes" name="15" />
   <point x="167" y="314" type="offcurve" name="14" />
   <point x="221" y="377" type="offcurve" name="14" />
   <point x="295" y="377" type="curve" smooth="yes" name="15" />
   <point x="336" y="377" type="offcurve" name="14" />
   <point x="371" y="363" type="offcurve" name="14" />
   <point x="406" y="332" type="curve" smooth="no" name="13" />
   <point x="444" y="400" type="line" smooth="no" name="13" />
   <point x="406" y="439" type="offcurve" name="14" />
   <point x="348" y="466" type="offcurve" name="14" />
   <point x="275" y="466" type="curve" smooth="yes" name="15" />
   <point x="138" y="466" type="offcurve" name="14" />
   <point x="38" y="361" type="offcurve" name="14" />
   <point x="38" y="225" type="curve" smooth="yes" name="15" />
   <point x="38" y="84" type="offcurve" name="14" />
   <point x="136" y="-12" type="offcurve" name="14" />
   <point x="281" y="-12" type="curve" smooth="yes" name="15" />
   <point x="337" y="-12" type="offcurve" name="14" />
   <point x="394" y="4" type="offcurve" name="14" />
  </contour>
 </outline>
</glyph>
<glyph name="d" format="1">
 <advance width="561" />
 <unicode hex="0064" />
 <outline>
  <contour>
   <point x="392" y="0" type="line" smooth="no" name="13" />
   <point x="493" y="0" type="line" smooth="no" name="13" />
   <point x="493" y="643" type="line" smooth="no" name="13" />
   <point x="367" y="573" type="line" smooth="no" name="13" />
   <point x="367" y="428" type="line" smooth="no" name="13" />
   <point x="346" y="445" type="offcurve" name="14" />
   <point x="312" y="466" type="offcurve" name="14" />
   <point x="251" y="466" type="curve" smooth="yes" name="15" />
   <point x="147" y="466" type="offcurve" name="14" />
   <point x="38" y="387" type="offcurve" name="14" />
   <point x="38" y="211" type="curve" smooth="yes" name="15" />
   <point x="38" y="82" type="offcurve" name="14" />
   <point x="111" y="-12" type="offcurve" name="14" />
   <point x="248" y="-12" type="curve" smooth="yes" name="15" />
   <point x="313" y="-12" type="offcurve" name="14" />
   <point x="359" y="24" type="offcurve" name="14" />
   <point x="374" y="48" type="curve" smooth="no" name="13" />
  </contour>
  <contour>
   <point x="367" y="173" type="line" smooth="no" name="13" />
   <point x="364" y="151" type="offcurve" name="14" />
   <point x="334" y="79" type="offcurve" name="14" />
   <point x="264" y="79" type="curve" smooth="yes" name="15" />
   <point x="201" y="79" type="offcurve" name="14" />
   <point x="167" y="132" type="offcurve" name="14" />
   <point x="167" y="228" type="curve" smooth="yes" name="15" />
   <point x="167" y="329" type="offcurve" name="14" />
   <point x="218" y="376" type="offcurve" name="14" />
   <point x="278" y="376" type="curve" smooth="yes" name="15" />
   <point x="321" y="376" type="offcurve" name="14" />
   <point x="358" y="345" type="offcurve" name="14" />
   <point x="367" y="300" type="curve" smooth="no" name="13" />
  </contour>
 </outline>
</glyph>
<glyph name="g" format="1">
 <advance width="551" />
 <unicode hex="0067" />
 <outline>
  <contour>
   <point x="356" y="55" type="curve" smooth="no" name="13" />
   <point x="356" y="-36" type="offcurve" name="14" />
   <point x="332" y="-95" type="offcurve" name="14" />
   <point x="248" y="-95" type="curve" smooth="yes" name="15" />
   <point x="227" y="-95" type="offcurve" name="14" />
   <point x="164" y="-90" type="offcurve" name="14" />
   <point x="111" y="-55" type="curve" smooth="no" name="13" />
   <point x="79" y="-119" type="line" smooth="no" name="13" />
   <point x="139" y="-174" type="offcurve" name="14" />
   <point x="218" y="-191" type="offcurve" name="14" />
   <point x="266" y="-191" type="curve" smooth="yes" name="15" />
   <point x="422" y="-191" type="offcurve" name="14" />
   <point x="483" y="-86" type="offcurve" name="14" />
   <point x="483" y="47" type="curve" smooth="yes" name="15" />
   <point x="483" y="454" type="line" smooth="no" name="13" />
   <point x="386" y="454" type="line" smooth="no" name="13" />
   <point x="376" y="405" type="line" smooth="no" name="13" />
   <point x="376" y="411" type="offcurve" name="14" />
   <point x="333" y="466" type="offcurve" name="14" />
   <point x="240" y="466" type="curve" smooth="yes" name="15" />
   <point x="137" y="466" type="offcurve" name="14" />
   <point x="27" y="387" type="offcurve" name="14" />
   <point x="27" y="211" type="curve" smooth="yes" name="15" />
   <point x="27" y="82" type="offcurve" name="14" />
   <point x="102" y="-12" type="offcurve" name="14" />
   <point x="229" y="-12" type="curve" smooth="yes" name="15" />
   <point x="289" y="-12" type="offcurve" name="14" />
   <point x="332" y="19" type="offcurve" name="14" />
  </contour>
  <contour>
   <point x="356" y="300" type="curve" smooth="no" name="13" />
   <point x="356" y="185" type="line" smooth="yes" name="15" />
   <point x="356" y="150" type="offcurve" name="14" />
   <point x="328" y="79" type="offcurve" name="14" />
   <point x="255" y="79" type="curve" smooth="yes" name="15" />
   <point x="191" y="79" type="offcurve" name="14" />
   <point x="157" y="132" type="offcurve" name="14" />
   <point x="157" y="228" type="curve" smooth="yes" name="15" />
   <point x="157" y="329" type="offcurve" name="14" />
   <point x="208" y="376" type="offcurve" name="14" />
   <point x="267" y="376" type="curve" smooth="yes" name="15" />
   <point x="310" y="376" type="offcurve" name="14" />
   <point x="351" y="341" type="offcurve" name="14" />
  </contour>
 </outline>
</glyph>
<glyph name="h" format="1">
 <advance width="551" />
 <unicode hex="0068" />
 <outline>
  <contour>
   <point x="68" y="576" type="line" smooth="no" name="13" />
   <point x="68" y="0" type="line" smooth="no" name="13" />
   <point x="194" y="0" type="line" smooth="no" name="13" />
   <point x="194" y="326" type="line" smooth="no" name="13" />
   <point x="204" y="341" type="offcurve" name="14" />
   <point x="235" y="360" type="offcurve" name="14" />
   <point x="278" y="360" type="curve" smooth="yes" name="15" />
   <point x="330" y="360" type="offcurve" name="14" />
   <point x="362" y="335" type="offcurve" name="14" />
   <point x="362" y="262" type="curve" smooth="yes" name="15" />
   <point x="362" y="0" type="line" smooth="no" name="13" />
   <point x="488" y="0" type="line" smooth="no" name="13" />
   <point x="488" y="267" type="line" smooth="yes" name="15" />
   <point x="488" y="410" type="offcurve" name="14" />
   <point x="435" y="467" type="offcurve" name="14" />
   <point x="322" y="467" type="curve" smooth="yes" name="15" />
   <point x="299" y="467" type="offcurve" name="14" />
   <point x="279" y="461" type="offcurve" name="14" />
   <point x="260" y="453" type="curve" smooth="yes" name="15" />
   <point x="233" y="441" type="offcurve" name="14" />
   <point x="203" y="417" type="offcurve" name="14" />
   <point x="194" y="400" type="curve" smooth="no" name="13" />
   <point x="194" y="645" type="line" smooth="no" name="13" />
  </contour>
 </outline>
</glyph>
<glyph name="i" format="1">
 <advance width="252" />
 <unicode hex="0069" />
 <outline>
  <contour>
   <point x="190" y="454" type="line" smooth="no" name="13" />
   <point x="63" y="454" type="line" smooth="no" name="13" />
   <point x="63" y="0" type="line" smooth="no" name="13" />
   <point x="190" y="0" type="line" smooth="no" name="13" />
  </contour>
  <contour>
   <point x="48" y="570" type="curve" smooth="yes" name="15" />
   <point x="48" y="523" type="offcurve" name="14" />
   <point x="81" y="491" type="offcurve" name="14" />
   <point x="124" y="491" type="curve" smooth="yes" name="15" />
   <point x="171" y="491" type="offcurve" name="14" />
   <point x="204" y="523" type="offcurve" name="14" />
   <point x="204" y="570" type="curve" smooth="yes" name="15" />
   <point x="204" y="611" type="offcurve" name="14" />
   <point x="171" y="649" type="offcurve" name="14" />
   <point x="124" y="649" type="curve" smooth="yes" name="15" />
   <point x="81" y="649" type="offcurve" name="14" />
   <point x="48" y="611" type="offcurve" name="14" />
  </contour>
 </outline>
</glyph>
<glyph name="j" format="1">
 <advance width="263" />
 <unicode hex="006a" />
 <outline>
  <contour>
   <point x="203" y="454" type="line" smooth="no" name="13" />
   <point x="77" y="454" type="line" smooth="no" name="13" />
   <point x="77" y="-48" type="line" smooth="yes" name="15" />
   <point x="77" y="-96" type="offcurve" name="14" />
   <point x="54" y="-98" type="offcurve" name="14" />
   <point x="46" y="-98" type="curve" smooth="yes" name="15" />
   <point x="46" y="-98" type="offcurve" name="14" />
   <point x="45" y="-98" type="offcurve" name="14" />
   <point x="45" y="-98" type="curve" smooth="yes" name="15" />
   <point x="35" y="-98" type="offcurve" name="14" />
   <point x="4" y="-95" type="offcurve" name="14" />
   <point x="-32" y="-74" type="curve" smooth="no" name="13" />
   <point x="-74" y="-138" type="line" smooth="no" name="13" />
   <point x="-43" y="-162" type="offcurve" name="14" />
   <point x="17" y="-191" type="offcurve" name="14" />
   <point x="77" y="-191" type="curve" smooth="yes" name="15" />
   <point x="180" y="-191" type="offcurve" name="14" />
   <point x="203" y="-135" type="offcurve" name="14" />
   <point x="203" y="-60" type="curve" smooth="yes" name="15" />
  </contour>
  <contour>
   <point x="60" y="570" type="curve" smooth="yes" name="15" />
   <point x="60" y="523" type="offcurve" name="14" />
   <point x="93" y="491" type="offcurve" name="14" />
   <point x="136" y="491" type="curve" smooth="yes" name="15" />
   <point x="183" y="491" type="offcurve" name="14" />
   <point x="216" y="523" type="offcurve" name="14" />
   <point x="216" y="570" type="curve" smooth="yes" name="15" />
   <point x="216" y="611" type="offcurve" name="14" />
   <point x="183" y="649" type="offcurve" name="14" />
   <point x="136" y="649" type="curve" smooth="yes" name="15" />
   <point x="93" y="649" type="offcurve" name="14" />
   <point x="60" y="611" type="offcurve" name="14" />
  </contour>
 </outline>
</glyph>
<glyph name="k" format="1">
 <advance width="496" />
 <unicode hex="006b" />
 <outline>
  <contour>
   <point x="491" y="454" type="line" smooth="no" name="13" />
   <point x="323" y="454" type="line" smooth="no" name="13" />
   <point x="281" y="417" type="offcurve" name="14" />
   <point x="237" y="380" type="offcurve" name="14" />
   <point x="192" y="344" type="curve" smooth="no" name="13" />
   <point x="192" y="645" type="line" smooth="no" name="13" />
   <point x="66" y="579" type="line" smooth="no" name="13" />
   <point x="66" y="0" type="line" smooth="no" name="13" />
   <point x="192" y="0" type="line" smooth="no" name="13" />
   <point x="192" y="216" type="line" smooth="no" name="13" />
   <point x="235" y="144" type="offcurve" name="14" />
   <point x="277" y="72" type="offcurve" name="14" />
   <point x="319" y="0" type="curve" smooth="no" name="13" />
   <point x="461" y="0" type="line" smooth="no" name="13" />
   <point x="397" y="89" type="offcurve" name="14" />
   <point x="338" y="178" type="offcurve" name="14" />
   <point x="276" y="271" type="curve" smooth="no" name="13" />
  </contour>
 </outline>
</glyph>
<glyph name="l" format="1">
 <advance width="262" />
 <unicode hex="006c" />
 <outline>
  <contour>
   <point x="194" y="645" type="line" smooth="no" name="13" />
   <point x="68" y="579" type="line" smooth="no" name="13" />
   <point x="68" y="0" type="line" smooth="no" name="13" />
   <point x="194" y="0" type="line" smooth="no" name="13" />
  </contour>
 </outline>
</glyph>
<glyph name="m" format="1">
 <advance width="886" />
 <unicode hex="006d" />
 <outline>
  <contour>
   <point x="189" y="410" type="curve" smooth="no" name="13" />
   <point x="184" y="410" type="line" smooth="no" name="13" />
   <point x="175" y="454" type="line" smooth="no" name="13" />
   <point x="68" y="454" type="line" smooth="no" name="13" />
   <point x="68" y="0" type="line" smooth="no" name="13" />
   <point x="194" y="0" type="line" smooth="no" name="13" />
   <point x="194" y="329" type="line" smooth="no" name="13" />
   <point x="202" y="342" type="offcurve" name="14" />
   <point x="237" y="360" type="offcurve" name="14" />
   <point x="285" y="360" type="curve" smooth="yes" name="15" />
   <point x="341" y="360" type="offcurve" name="14" />
   <point x="378" y="344" type="offcurve" name="14" />
   <point x="378" y="252" type="curve" smooth="yes" name="15" />
   <point x="378" y="0" type="line" smooth="no" name="13" />
   <point x="504" y="0" type="line" smooth="no" name="13" />
   <point x="504" y="308" type="line" smooth="no" name="13" />
   <point x="534" y="346" type="offcurve" name="14" />
   <point x="573" y="360" type="offcurve" name="14" />
   <point x="611" y="360" type="curve" smooth="yes" name="15" />
   <point x="666" y="360" type="offcurve" name="14" />
   <point x="696" y="336" type="offcurve" name="14" />
   <point x="696" y="238" type="curve" smooth="yes" name="15" />
   <point x="696" y="0" type="line" smooth="no" name="13" />
   <point x="823" y="0" type="line" smooth="no" name="13" />
   <point x="823" y="272" type="line" smooth="yes" name="15" />
   <point x="823" y="413" type="offcurve" name="14" />
   <point x="764" y="466" type="offcurve" name="14" />
   <point x="663" y="466" type="curve" smooth="yes" name="15" />
   <point x="593" y="466" type="offcurve" name="14" />
   <point x="523" y="432" type="offcurve" name="14" />
   <point x="493" y="376" type="curve" smooth="no" name="13" />
   <point x="468" y="436" type="offcurve" name="14" />
   <point x="399" y="466" type="offcurve" name="14" />
   <point x="329" y="466" type="curve" smooth="yes" name="15" />
   <point x="251" y="466" type="offcurve" name="14" />
   <point x="206" y="427" type="offcurve" name="14" />
  </contour>
 </outline>
</glyph>
<glyph name="n" format="1">
 <advance width="552" />
 <unicode hex="006e" />
 <outline>
  <contour>
   <point x="190" y="410" type="curve" smooth="no" name="13" />
   <point x="185" y="410" type="line" smooth="no" name="13" />
   <point x="181" y="425" type="offcurve" name="14" />
   <point x="178" y="439" type="offcurve" name="14" />
   <point x="175" y="454" type="curve" smooth="no" name="13" />
   <point x="68" y="454" type="line" smooth="no" name="13" />
   <point x="68" y="0" type="line" smooth="no" name="13" />
   <point x="194" y="0" type="line" smooth="no" name="13" />
   <point x="194" y="329" type="line" smooth="no" name="13" />
   <point x="203" y="341" type="offcurve" name="14" />
   <point x="238" y="360" type="offcurve" name="14" />
   <point x="275" y="360" type="curve" smooth="yes" name="15" />
   <point x="330" y="360" type="offcurve" name="14" />
   <point x="362" y="335" type="offcurve" name="14" />
   <point x="362" y="262" type="curve" smooth="yes" name="15" />
   <point x="362" y="0" type="line" smooth="no" name="13" />
   <point x="489" y="0" type="line" smooth="no" name="13" />
   <point x="489" y="267" type="line" smooth="yes" name="15" />
   <point x="489" y="409" type="offcurve" name="14" />
   <point x="440" y="466" type="offcurve" name="14" />
   <point x="326" y="466" type="curve" smooth="yes" name="15" />
   <point x="265" y="466" type="offcurve" name="14" />
   <point x="209" y="432" type="offcurve" name="14" />
  </contour>
 </outline>
</glyph>
<glyph name="o" format="1">
 <advance width="528" />
 <unicode hex="006f" />
 <outline>
  <contour>
   <point x="264" y="466" type="curve" smooth="yes" name="15" />
   <point x="120" y="466" type="offcurve" name="14" />
   <point x="38" y="358" type="offcurve" name="14" />
   <point x="38" y="226" type="curve" smooth="yes" name="15" />
   <point x="38" y="84" type="offcurve" name="14" />
   <point x="145" y="-12" type="offcurve" name="14" />
   <point x="264" y="-12" type="curve" smooth="yes" name="15" />
   <point x="383" y="-12" type="offcurve" name="14" />
   <point x="490" y="84" type="offcurve" name="14" />
   <point x="490" y="226" type="curve" smooth="yes" name="15" />
   <point x="490" y="358" type="offcurve" name="14" />
   <point x="408" y="466" type="offcurve" name="14" />
  </contour>
  <contour>
   <point x="264" y="82" type="curve" smooth="yes" name="15" />
   <point x="211" y="82" type="offcurve" name="14" />
   <point x="167" y="117" type="offcurve" name="14" />
   <point x="167" y="226" type="curve" smooth="yes" name="15" />
   <point x="167" y="318" type="offcurve" name="14" />
   <point x="198" y="376" type="offcurve" name="14" />
   <point x="264" y="376" type="curve" smooth="yes" name="15" />
   <point x="330" y="376" type="offcurve" name="14" />
   <point x="361" y="318" type="offcurve" name="14" />
   <point x="361" y="226" type="curve" smooth="yes" name="15" />
   <point x="361" y="117" type="offcurve" name="14" />
   <point x="317" y="82" type="offcurve" name="14" />
  </contour>
 </outline>
</glyph>
<glyph name="p" format="1">
 <advance width="549" />
 <unicode hex="0070" />
 <outline>
  <contour>
   <point x="163" y="454" type="line" smooth="no" name="13" />
   <point x="68" y="454" type="line" smooth="no" name="13" />
   <point x="68" y="-178" type="line" smooth="no" name="13" />
   <point x="192" y="-178" type="line" smooth="no" name="13" />
   <point x="192" y="24" type="line" smooth="no" name="13" />
   <point x="198" y="17" type="offcurve" name="14" />
   <point x="235" y="-12" type="offcurve" name="14" />
   <point x="288" y="-12" type="curve" smooth="yes" name="15" />
   <point x="406" y="-12" type="offcurve" name="14" />
   <point x="511" y="71" type="offcurve" name="14" />
   <point x="511" y="236" type="curve" smooth="yes" name="15" />
   <point x="511" y="373" type="offcurve" name="14" />
   <point x="427" y="466" type="offcurve" name="14" />
   <point x="293" y="466" type="curve" smooth="yes" name="15" />
   <point x="237" y="466" type="offcurve" name="14" />
   <point x="197" y="440" type="offcurve" name="14" />
   <point x="175" y="411" type="curve" smooth="no" name="13" />
  </contour>
  <contour>
   <point x="192" y="277" type="line" smooth="yes" name="15" />
   <point x="192" y="300" type="offcurve" name="14" />
   <point x="212" y="375" type="offcurve" name="14" />
   <point x="281" y="375" type="curve" smooth="yes" name="15" />
   <point x="339" y="375" type="offcurve" name="14" />
   <point x="379" y="320" type="offcurve" name="14" />
   <point x="379" y="226" type="curve" smooth="yes" name="15" />
   <point x="379" y="131" type="offcurve" name="14" />
   <point x="327" y="76" type="offcurve" name="14" />
   <point x="274" y="76" type="curve" smooth="yes" name="15" />
   <point x="219" y="76" type="offcurve" name="14" />
   <point x="192" y="127" type="offcurve" name="14" />
   <point x="192" y="161" type="curve" smooth="yes" name="15" />
  </contour>
 </outline>
</glyph>
<glyph name="q" format="1">
 <advance width="551" />
 <unicode hex="0071" />
 <outline>
  <contour>
   <point x="356" y="-177" type="line" smooth="no" name="13" />
   <point x="483" y="-177" type="line" smooth="no" name="13" />
   <point x="483" y="454" type="line" smooth="no" name="13" />
   <point x="383" y="454" type="line" smooth="no" name="13" />
   <point x="376" y="405" type="line" smooth="no" name="13" />
   <point x="360" y="427" type="offcurve" name="14" />
   <point x="331" y="466" type="offcurve" name="14" />
   <point x="253" y="466" type="curve" smooth="yes" name="15" />
   <point x="141" y="466" type="offcurve" name="14" />
   <point x="38" y="379" type="offcurve" name="14" />
   <point x="38" y="214" type="curve" smooth="yes" name="15" />
   <point x="38" y="85" type="offcurve" name="14" />
   <point x="107" y="-12" type="offcurve" name="14" />
   <point x="242" y="-12" type="curve" smooth="yes" name="15" />
   <point x="308" y="-12" type="offcurve" name="14" />
   <point x="353" y="34" type="offcurve" name="14" />
   <point x="356" y="47" type="curve" smooth="no" name="13" />
  </contour>
  <contour>
   <point x="356" y="184" type="line" smooth="yes" name="15" />
   <point x="356" y="182" type="offcurve" name="14" />
   <point x="356" y="181" type="offcurve" name="14" />
   <point x="356" y="179" type="curve" smooth="yes" name="15" />
   <point x="356" y="131" type="offcurve" name="14" />
   <point x="328" y="79" type="offcurve" name="14" />
   <point x="269" y="79" type="curve" smooth="yes" name="15" />
   <point x="199" y="79" type="offcurve" name="14" />
   <point x="166" y="134" type="offcurve" name="14" />
   <point x="166" y="228" type="curve" smooth="yes" name="15" />
   <point x="166" y="325" type="offcurve" name="14" />
   <point x="214" y="376" type="offcurve" name="14" />
   <point x="276" y="376" type="curve" smooth="yes" name="15" />
   <point x="327" y="376" type="offcurve" name="14" />
   <point x="356" y="321" type="offcurve" name="14" />
   <point x="356" y="298" type="curve" smooth="yes" name="15" />
   <point x="356" y="297" type="offcurve" name="14" />
   <point x="356" y="296" type="offcurve" name="14" />
   <point x="356" y="295" type="curve" smooth="yes" name="15" />
  </contour>
 </outline>
</glyph>
<glyph name="r" format="1">
 <advance width="417" />
 <unicode hex="0072" />
 <outline>
  <contour>
   <point x="175" y="454" type="line" smooth="no" name="13" />
   <point x="68" y="454" type="line" smooth="no" name="13" />
   <point x="68" y="0" type="line" smooth="no" name="13" />
   <point x="192" y="0" type="line" smooth="no" name="13" />
   <point x="192" y="326" type="line" smooth="no" name="13" />
   <point x="204" y="352" type="offcurve" name="14" />
   <point x="225" y="361" type="offcurve" name="14" />
   <point x="242" y="361" type="curve" smooth="yes" name="15" />
   <point x="271" y="361" type="offcurve" name="14" />
   <point x="294" y="344" type="offcurve" name="14" />
   <point x="312" y="323" type="curve" smooth="no" name="13" />
   <point x="418" y="381" type="line" smooth="no" name="13" />
   <point x="390" y="435" type="offcurve" name="14" />
   <point x="343" y="466" type="offcurve" name="14" />
   <point x="284" y="466" type="curve" smooth="yes" name="15" />
   <point x="240" y="466" type="offcurve" name="14" />
   <point x="199" y="439" type="offcurve" name="14" />
   <point x="187" y="414" type="curve" smooth="no" name="13" />
  </contour>
 </outline>
</glyph>
<glyph name="s" format="1">
 <advance width="428" />
 <unicode hex="0073" />
 <outline>
  <contour>
   <point x="333" y="344" type="curve" smooth="no" name="13" />
   <point x="379" y="411" type="line" smooth="no" name="13" />
   <point x="347" y="436" type="offcurve" name="14" />
   <point x="285" y="466" type="offcurve" name="14" />
   <point x="214" y="466" type="curve" smooth="yes" name="15" />
   <point x="115" y="466" type="offcurve" name="14" />
   <point x="51" y="404" type="offcurve" name="14" />
   <point x="51" y="333" type="curve" smooth="yes" name="15" />
   <point x="51" y="248" type="offcurve" name="14" />
   <point x="118" y="201" type="offcurve" name="14" />
   <point x="203" y="185" type="curve" smooth="yes" name="15" />
   <point x="242" y="178" type="offcurve" name="14" />
   <point x="274" y="168" type="offcurve" name="14" />
   <point x="274" y="130" type="curve" smooth="yes" name="15" />
   <point x="274" y="105" type="offcurve" name="14" />
   <point x="254" y="79" type="offcurve" name="14" />
   <point x="209" y="79" type="curve" smooth="yes" name="15" />
   <point x="159" y="79" type="offcurve" name="14" />
   <point x="108" y="101" type="offcurve" name="14" />
   <point x="84" y="120" type="curve" smooth="no" name="13" />
   <point x="38" y="50" type="line" smooth="no" name="13" />
   <point x="72" y="22" type="offcurve" name="14" />
   <point x="135" y="-12" type="offcurve" name="14" />
   <point x="222" y="-12" type="curve" smooth="yes" name="15" />
   <point x="317" y="-12" type="offcurve" name="14" />
   <point x="390" y="37" type="offcurve" name="14" />
   <point x="390" y="128" type="curve" smooth="yes" name="15" />
   <point x="390" y="242" type="offcurve" name="14" />
   <point x="314" y="262" type="offcurve" name="14" />
   <point x="238" y="281" type="curve" smooth="yes" name="15" />
   <point x="178" y="296" type="offcurve" name="14" />
   <point x="173" y="316" type="offcurve" name="14" />
   <point x="173" y="335" type="curve" smooth="yes" name="15" />
   <point x="173" y="357" type="offcurve" name="14" />
   <point x="191" y="376" type="offcurve" name="14" />
   <point x="221" y="376" type="curve" smooth="yes" name="15" />
   <point x="264" y="376" type="offcurve" name="14" />
   <point x="310" y="359" type="offcurve" name="14" />
  </contour>
 </outline>
</glyph>
<glyph name="t" format="1">
 <advance width="397" />
 <unicode hex="0074" />
 <outline>
  <contour>
   <point x="352" y="353" type="line" smooth="no" name="13" />
   <point x="352" y="454" type="line" smooth="no" name="13" />
   <point x="223" y="454" type="line" smooth="no" name="13" />
   <point x="223" y="602" type="line" smooth="no" name="13" />
   <point x="179" y="579" type="offcurve" name="14" />
   <point x="139" y="558" type="offcurve" name="14" />
   <point x="96" y="535" type="curve" smooth="no" name="13" />
   <point x="96" y="454" type="line" smooth="no" name="13" />
   <point x="32" y="454" type="line" smooth="no" name="13" />
   <point x="32" y="353" type="line" smooth="no" name="13" />
   <point x="95" y="353" type="line" smooth="no" name="13" />
   <point x="95" y="116" type="line" smooth="yes" name="15" />
   <point x="95" y="40" type="offcurve" name="14" />
   <point x="120" y="-16" type="offcurve" name="14" />
   <point x="215" y="-16" type="curve" smooth="yes" name="15" />
   <point x="279" y="-16" type="offcurve" name="14" />
   <point x="334" y="10" type="offcurve" name="14" />
   <point x="372" y="40" type="curve" smooth="no" name="13" />
   <point x="330" y="104" type="line" smooth="no" name="13" />
   <point x="302" y="88" type="offcurve" name="14" />
   <point x="273" y="78" type="offcurve" name="14" />
   <point x="255" y="78" type="curve" smooth="yes" name="15" />
   <point x="229" y="78" type="offcurve" name="14" />
   <point x="222" y="92" type="offcurve" name="14" />
   <point x="222" y="128" type="curve" smooth="yes" name="15" />
   <point x="222" y="353" type="line" smooth="no" name="13" />
  </contour>
 </outline>
</glyph>
<glyph name="v" format="1">
 <advance width="489" />
 <unicode hex="0076" />
 <outline>
  <contour>
   <point x="290" y="0" type="line" smooth="no" name="13" />
   <point x="338" y="117" type="offcurve" name="14" />
   <point x="386" y="235" type="offcurve" name="14" />
   <point x="433" y="353" type="curve" smooth="yes" name="15" />
   <point x="447" y="387" type="offcurve" name="14" />
   <point x="460" y="420" type="offcurve" name="14" />
   <point x="474" y="454" type="curve" smooth="no" name="13" />
   <point x="342" y="454" type="line" smooth="no" name="13" />
   <point x="239" y="154" type="line" smooth="no" name="13" />
   <point x="142" y="454" type="line" smooth="no" name="13" />
   <point x="15" y="454" type="line" smooth="no" name="13" />
   <point x="192" y="0" type="line" smooth="no" name="13" />
  </contour>
 </outline>
</glyph>
<glyph name="w" format="1">
 <advance width="716" />
 <unicode hex="0077" />
 <outline>
  <contour>
   <point x="282" y="0" type="line" smooth="no" name="13" />
   <point x="296" y="51" type="offcurve" name="14" />
   <point x="308" y="103" type="offcurve" name="14" />
   <point x="321" y="155" type="curve" smooth="yes" name="15" />
   <point x="332" y="199" type="offcurve" name="14" />
   <point x="343" y="243" type="offcurve" name="14" />
   <point x="354" y="288" type="curve" smooth="no" name="13" />
   <point x="369" y="231" type="offcurve" name="14" />
   <point x="383" y="175" type="offcurve" name="14" />
   <point x="396" y="119" type="curve" smooth="yes" name="15" />
   <point x="406" y="79" type="offcurve" name="14" />
   <point x="416" y="39" type="offcurve" name="14" />
   <point x="426" y="0" type="curve" smooth="no" name="13" />
   <point x="538" y="0" type="line" smooth="no" name="13" />
   <point x="582" y="120" type="offcurve" name="14" />
   <point x="624" y="240" type="offcurve" name="14" />
   <point x="667" y="360" type="curve" smooth="yes" name="15" />
   <point x="679" y="391" type="offcurve" name="14" />
   <point x="690" y="423" type="offcurve" name="14" />
   <point x="701" y="454" type="curve" smooth="no" name="13" />
   <point x="571" y="454" type="line" smooth="no" name="13" />
   <point x="485" y="153" type="line" smooth="no" name="13" />
   <point x="480" y="177" type="offcurve" name="14" />
   <point x="475" y="200" type="offcurve" name="14" />
   <point x="470" y="223" type="curve" smooth="yes" name="15" />
   <point x="453" y="300" type="offcurve" name="14" />
   <point x="436" y="377" type="offcurve" name="14" />
   <point x="420" y="454" type="curve" smooth="no" name="13" />
   <point x="292" y="454" type="line" smooth="no" name="13" />
   <point x="225" y="153" type="line" smooth="no" name="13" />
   <point x="142" y="454" type="line" smooth="no" name="13" />
   <point x="15" y="454" type="line" smooth="no" name="13" />
   <point x="171" y="0" type="line" smooth="no" name="13" />
  </contour>
 </outline>
</glyph>
<glyph name="x" format="1">
 <advance width="479" />
 <unicode hex="0078" />
 <outline>
  <contour>
   <point x="471" y="454" type="curve" smooth="no" name="13" />
   <point x="334" y="454" type="line" smooth="no" name="13" />
   <point x="323" y="437" type="offcurve" name="14" />
   <point x="312" y="420" type="offcurve" name="14" />
   <point x="301" y="403" type="curve" smooth="yes" name="15" />
   <point x="283" y="376" type="offcurve" name="14" />
   <point x="265" y="348" type="offcurve" name="14" />
   <point x="247" y="321" type="curve" smooth="no" name="13" />
   <point x="173" y="454" type="line" smooth="no" name="13" />
   <point x="35" y="454" type="line" smooth="no" name="13" />
   <point x="55" y="423" type="offcurve" name="14" />
   <point x="75" y="393" type="offcurve" name="14" />
   <point x="95" y="362" type="curve" smooth="yes" name="15" />
   <point x="125" y="316" type="offcurve" name="14" />
   <point x="155" y="270" type="offcurve" name="14" />
   <point x="184" y="224" type="curve" smooth="no" name="13" />
   <point x="140" y="170" type="offcurve" name="14" />
   <point x="96" y="115" type="offcurve" name="14" />
   <point x="53" y="60" type="curve" smooth="yes" name="15" />
   <point x="37" y="40" type="offcurve" name="14" />
   <point x="21" y="20" type="offcurve" name="14" />
   <point x="5" y="0" type="curve" smooth="no" name="13" />
   <point x="142" y="0" type="line" smooth="no" name="13" />
   <point x="243" y="140" type="line" smooth="no" name="13" />
   <point x="336" y="0" type="line" smooth="no" name="13" />
   <point x="474" y="0" type="line" smooth="no" name="13" />
   <point x="313" y="227" type="line" smooth="no" name="13" />
   <point x="366" y="303" type="offcurve" name="14" />
   <point x="419" y="379" type="offcurve" name="14" />
  </contour>
 </outline>
</glyph>
<glyph name="y" format="1">
 <advance width="499" />
 <unicode hex="0079" />
 <outline>
  <contour>
   <point x="484" y="454" type="curve" smooth="no" name="13" />
   <point x="358" y="454" type="line" smooth="no" name="13" />
   <point x="242" y="144" type="line" smooth="no" name="13" />
   <point x="222" y="208" type="offcurve" name="14" />
   <point x="201" y="271" type="offcurve" name="14" />
   <point x="180" y="335" type="curve" smooth="yes" name="15" />
   <point x="166" y="374" type="offcurve" name="14" />
   <point x="153" y="414" type="offcurve" name="14" />
   <point x="140" y="454" type="curve" smooth="no" name="13" />
   <point x="15" y="454" type="line" smooth="no" name="13" />
   <point x="174" y="0" type="line" smooth="no" name="13" />
   <point x="198" y="0" type="line" smooth="no" name="13" />
   <point x="171" y="-82" type="offcurve" name="14" />
   <point x="142" y="-98" type="offcurve" name="14" />
   <point x="125" y="-98" type="curve" smooth="yes" name="15" />
   <point x="106" y="-98" type="offcurve" name="14" />
   <point x="86" y="-91" type="offcurve" name="14" />
   <point x="60" y="-74" type="curve" smooth="no" name="13" />
   <point x="49" y="-95" type="offcurve" name="14" />
   <point x="38" y="-114" type="offcurve" name="14" />
   <point x="26" y="-134" type="curve" smooth="no" name="13" />
   <point x="53" y="-156" type="offcurve" name="14" />
   <point x="100" y="-191" type="offcurve" name="14" />
   <point x="162" y="-191" type="curve" smooth="yes" name="15" />
   <point x="216" y="-191" type="offcurve" name="14" />
   <point x="258" y="-162" type="offcurve" name="14" />
   <point x="294" y="-66" type="curve" smooth="yes" name="15" />
   <point x="321" y="7" type="offcurve" name="14" />
   <point x="347" y="80" type="offcurve" name="14" />
   <point x="374" y="153" type="curve" smooth="yes" name="15" />
   <point x="411" y="253" type="offcurve" name="14" />
   <point x="448" y="354" type="offcurve" name="14" />
  </contour>
 </outline>
</glyph>
<glyph name="z" format="1">
 <advance width="423" />
 <unicode hex="007a" />
 <outline>
  <contour>
   <point x="408" y="0" type="line" smooth="no" name="13" />
   <point x="408" y="100" type="line" smooth="no" name="13" />
   <point x="164" y="100" type="line" smooth="no" name="13" />
   <point x="402" y="350" type="line" smooth="no" name="13" />
   <point x="402" y="454" type="line" smooth="no" name="13" />
   <point x="29" y="454" type="line" smooth="no" name="13" />
   <point x="29" y="353" type="line" smooth="no" name="13" />
   <point x="250" y="353" type="line" smooth="no" name="13" />
   <point x="15" y="103" type="line" smooth="no" name="13" />
   <point x="15" y="0" type="line" smooth="no" name="13" />
  </contour>
 </outline>
</glyph>
<glyph name="braceleft" format="1">
 <advance width="396" />
 <unicode hex="007b" />
 <outline>
  <contour>
   <point x="258" y="94" type="line" smooth="yes" name="15" />
   <point x="258" y="211" type="offcurve" name="14" />
   <point x="220" y="235" type="offcurve" name="14" />
   <point x="186" y="250" type="curve" smooth="no" name="13" />
   <point x="220" y="266" type="offcurve" name="14" />
   <point x="258" y="294" type="offcurve" name="14" />
   <point x="258" y="411" type="curve" smooth="yes" name="15" />
   <point x="258" y="470" type="line" smooth="yes" name="15" />
   <point x="258" y="549" type="offcurve" name="14" />
   <point x="277" y="549" type="offcurve" name="14" />
   <point x="322" y="549" type="curve" smooth="yes" name="15" />
   <point x="349" y="549" type="line" smooth="no" name="13" />
   <point x="349" y="644" type="line" smooth="no" name="13" />
   <point x="305" y="644" type="line" smooth="yes" name="15" />
   <point x="170" y="644" type="offcurve" name="14" />
   <point x="138" y="604" type="offcurve" name="14" />
   <point x="138" y="470" type="curve" smooth="yes" name="15" />
   <point x="138" y="411" type="line" smooth="yes" name="15" />
   <point x="138" y="319" type="offcurve" name="14" />
   <point x="88" y="296" type="offcurve" name="14" />
   <point x="38" y="296" type="curve" smooth="no" name="13" />
   <point x="38" y="204" type="line" smooth="no" name="13" />
   <point x="92" y="204" type="offcurve" name="14" />
   <point x="138" y="186" type="offcurve" name="14" />
   <point x="138" y="94" type="curve" smooth="yes" name="15" />
   <point x="138" y="35" type="line" smooth="yes" name="15" />
   <point x="138" y="-99" type="offcurve" name="14" />
   <point x="170" y="-139" type="offcurve" name="14" />
   <point x="305" y="-139" type="curve" smooth="yes" name="15" />
   <point x="349" y="-139" type="line" smooth="no" name="13" />
   <point x="349" y="-44" type="line" smooth="no" name="13" />
   <point x="322" y="-44" type="line" smooth="yes" name="15" />
   <point x="277" y="-44" type="offcurve" name="14" />
   <point x="258" y="-44" type="offcurve" name="14" />
   <point x="258" y="35" type="curve" smooth="yes" name="15" />
  </contour>
 </outline>
</glyph>
<glyph name="bar" format="1">
 <advance width="277" />
 <unicode hex="007c" />
 <outline>
  <contour>
   <point x="197" y="662" type="line" smooth="no" name="13" />
   <point x="80" y="662" type="line" smooth="no" name="13" />
   <point x="80" y="-179" type="line" smooth="no" name="13" />
   <point x="197" y="-179" type="line" smooth="no" name="13" />
  </contour>
 </outline>
</glyph>
<glyph name="braceright" format="1">
 <advance width="396" />
 <unicode hex="007d" />
 <outline>
  <contour>
   <point x="149" y="36" type="line" smooth="yes" name="15" />
   <point x="149" y="-43" type="offcurve" name="14" />
   <point x="130" y="-43" type="offcurve" name="14" />
   <point x="85" y="-43" type="curve" smooth="yes" name="15" />
   <point x="58" y="-43" type="line" smooth="no" name="13" />
   <point x="58" y="-138" type="line" smooth="no" name="13" />
   <point x="102" y="-138" type="line" smooth="yes" name="15" />
   <point x="237" y="-138" type="offcurve" name="14" />
   <point x="269" y="-98" type="offcurve" name="14" />
   <point x="269" y="36" type="curve" smooth="yes" name="15" />
   <point x="269" y="95" type="line" smooth="yes" name="15" />
   <point x="269" y="187" type="offcurve" name="14" />
   <point x="315" y="205" type="offcurve" name="14" />
   <point x="369" y="205" type="curve" smooth="no" name="13" />
   <point x="369" y="297" type="line" smooth="no" name="13" />
   <point x="319" y="297" type="offcurve" name="14" />
   <point x="269" y="320" type="offcurve" name="14" />
   <point x="269" y="412" type="curve" smooth="yes" name="15" />
   <point x="269" y="471" type="line" smooth="yes" name="15" />
   <point x="269" y="605" type="offcurve" name="14" />
   <point x="237" y="645" type="offcurve" name="14" />
   <point x="102" y="645" type="curve" smooth="yes" name="15" />
   <point x="58" y="645" type="line" smooth="no" name="13" />
   <point x="58" y="550" type="line" smooth="no" name="13" />
   <point x="85" y="550" type="line" smooth="yes" name="15" />
   <point x="130" y="550" type="offcurve" name="14" />
   <point x="149" y="550" type="offcurve" name="14" />
   <point x="149" y="471" type="curve" smooth="yes" name="15" />
   <point x="149" y="412" type="line" smooth="yes" name="15" />
   <point x="149" y="295" type="offcurve" name="14" />
   <point x="187" y="267" type="offcurve" name="14" />
   <point x="221" y="251" type="curve" smooth="no" name="13" />
   <point x="187" y="236" type="offcurve" name="14" />
   <point x="149" y="212" type="offcurve" name="14" />
   <point x="149" y="95" type="curve" smooth="yes" name="15" />
  </contour>
 </outline>
</glyph>
<glyph name="asciitilde" format="1">
 <advance width="508" />
 <unicode hex="007e" />
 <outline>
  <contour>
   <point x="25" y="216" type="curve" smooth="no" name="13" />
   <point x="87" y="171" type="line" smooth="no" name="13" />
   <point x="102" y="205" type="offcurve" name="14" />
   <point x="123" y="229" type="offcurve" name="14" />
   <point x="157" y="229" type="curve" smooth="yes" name="15" />
   <point x="177" y="229" type="offcurve" name="14" />
   <point x="207" y="217" type="offcurve" name="14" />
   <point x="239" y="203" type="curve" smooth="yes" name="15" />
   <point x="278" y="187" type="offcurve" name="14" />
   <point x="319" y="170" type="offcurve" name="14" />
   <point x="352" y="170" type="curve" smooth="yes" name="15" />
   <point x="417" y="170" type="offcurve" name="14" />
   <point x="464" y="205" type="offcurve" name="14" />
   <point x="483" y="275" type="curve" smooth="no" name="13" />
   <point x="421" y="320" type="line" smooth="no" name="13" />
   <point x="406" y="286" type="offcurve" name="14" />
   <point x="391" y="261" type="offcurve" name="14" />
   <point x="356" y="261" type="curve" smooth="yes" name="15" />
   <point x="331" y="261" type="offcurve" name="14" />
   <point x="294" y="275" type="offcurve" name="14" />
   <point x="258" y="289" type="curve" smooth="yes" name="15" />
   <point x="220" y="304" type="offcurve" name="14" />
   <point x="180" y="320" type="offcurve" name="14" />
   <point x="149" y="320" type="curve" smooth="yes" name="15" />
   <point x="91" y="320" type="offcurve" name="14" />
   <point x="44" y="286" type="offcurve" name="14" />
  </contour>
 </outline>
</glyph>
<glyph name="exclamdown" format="1">
 <advance width="280" />
 <unicode hex="00a1" />
 <outline>
  <contour>
   <point x="74" y="288" type="line" smooth="no" name="13" />
   <point x="74" y="-168" type="line" smooth="no" name="13" />
   <point x="200" y="-168" type="line" smooth="no" name="13" />
   <point x="200" y="288" type="line" smooth="no" name="13" />
  </contour>
  <contour>
   <point x="215" y="413" type="curve" smooth="yes" name="15" />
   <point x="215" y="414" type="offcurve" name="14" />
   <point x="215" y="414" type="offcurve" name="14" />
   <point x="215" y="415" type="curve" smooth="yes" name="15" />
   <point x="215" y="453" type="offcurve" name="14" />
   <point x="191" y="487" type="offcurve" name="14" />
   <point x="142" y="487" type="curve" smooth="yes" name="15" />
   <point x="91" y="487" type="offcurve" name="14" />
   <point x="67" y="452" type="offcurve" name="14" />
   <point x="67" y="413" type="curve" smooth="yes" name="15" />
   <point x="67" y="412" type="offcurve" name="14" />
   <point x="67" y="411" type="offcurve" name="14" />
   <point x="67" y="410" type="curve" smooth="yes" name="15" />
   <point x="69" y="374" type="offcurve" name="14" />
   <point x="94" y="341" type="offcurve" name="14" />
   <point x="142" y="341" type="curve" smooth="yes" name="15" />
   <point x="190" y="341" type="offcurve" name="14" />
   <point x="215" y="375" type="offcurve" name="14" />
  </contour>
 </outline>
</glyph>
<glyph name="cent" format="1">
 <advance width="487" />
 <unicode hex="00a2" />
 <outline>
  <contour>
   <point x="290" y="-14" type="line" smooth="no" name="13" />
   <point x="333" y="-11" type="offcurve" name="14" />
   <point x="395" y="1" type="offcurve" name="14" />
   <point x="449" y="58" type="curve" smooth="no" name="13" />
   <point x="412" y="129" type="line" smooth="no" name="13" />
   <point x="376" y="90" type="offcurve" name="14" />
   <point x="333" y="79" type="offcurve" name="14" />
   <point x="290" y="79" type="curve" smooth="no" name="13" />
   <point x="290" y="376" type="line" smooth="no" name="13" />
   <point x="331" y="376" type="offcurve" name="14" />
   <point x="378" y="360" type="offcurve" name="14" />
   <point x="416" y="332" type="curve" smooth="no" name="13" />
   <point x="444" y="400" type="line" smooth="no" name="13" />
   <point x="372" y="457" type="offcurve" name="14" />
   <point x="319" y="464" type="offcurve" name="14" />
   <point x="290" y="465" type="curve" smooth="no" name="13" />
   <point x="290" y="512" type="line" smooth="no" name="13" />
   <point x="242" y="512" type="line" smooth="no" name="13" />
   <point x="242" y="463" type="line" smooth="no" name="13" />
   <point x="121" y="446" type="offcurve" name="14" />
   <point x="38" y="346" type="offcurve" name="14" />
   <point x="38" y="225" type="curve" smooth="yes" name="15" />
   <point x="38" y="97" type="offcurve" name="14" />
   <point x="117" y="4" type="offcurve" name="14" />
   <point x="242" y="-11" type="curve" smooth="no" name="13" />
   <point x="242" y="-52" type="line" smooth="no" name="13" />
   <point x="290" y="-52" type="line" smooth="no" name="13" />
  </contour>
  <contour>
   <point x="242" y="368" type="curve" smooth="no" name="13" />
   <point x="242" y="86" type="line" smooth="no" name="13" />
   <point x="201" y="111" type="offcurve" name="14" />
   <point x="167" y="164" type="offcurve" name="14" />
   <point x="167" y="222" type="curve" smooth="yes" name="15" />
   <point x="167" y="288" type="offcurve" name="14" />
   <point x="199" y="343" type="offcurve" name="14" />
  </contour>
 </outline>
</glyph>
<glyph name="sterling" format="1">
 <advance width="503" />
 <unicode hex="00a3" />
 <outline>
  <contour>
   <point x="378" y="283" type="line" smooth="no" name="13" />
   <point x="378" y="378" type="line" smooth="no" name="13" />
   <point x="229" y="378" type="line" smooth="no" name="13" />
   <point x="229" y="433" type="line" smooth="yes" name="15" />
   <point x="229" y="499" type="offcurve" name="14" />
   <point x="260" y="535" type="offcurve" name="14" />
   <point x="316" y="535" type="curve" smooth="yes" name="15" />
   <point x="368" y="535" type="offcurve" name="14" />
   <point x="413" y="506" type="offcurve" name="14" />
   <point x="453" y="481" type="curve" smooth="no" name="13" />
   <point x="503" y="560" type="line" smooth="no" name="13" />
   <point x="409" y="632" type="offcurve" name="14" />
   <point x="362" y="645" type="offcurve" name="14" />
   <point x="304" y="645" type="curve" smooth="yes" name="15" />
   <point x="148" y="645" type="offcurve" name="14" />
   <point x="98" y="552" type="offcurve" name="14" />
   <point x="98" y="427" type="curve" smooth="yes" name="15" />
   <point x="98" y="378" type="line" smooth="no" name="13" />
   <point x="32" y="378" type="line" smooth="no" name="13" />
   <point x="32" y="283" type="line" smooth="no" name="13" />
   <point x="98" y="283" type="line" smooth="no" name="13" />
   <point x="98" y="105" type="line" smooth="no" name="13" />
   <point x="34" y="105" type="line" smooth="no" name="13" />
   <point x="34" y="0" type="line" smooth="no" name="13" />
   <point x="450" y="0" type="line" smooth="no" name="13" />
   <point x="450" y="105" type="line" smooth="no" name="13" />
   <point x="229" y="105" type="line" smooth="no" name="13" />
   <point x="229" y="283" type="line" smooth="no" name="13" />
  </contour>
 </outline>
</glyph>
<glyph name="currency" format="1">
 <advance width="490" />
 <unicode hex="00a4" />
 <outline>
  <contour>
   <point x="430" y="91" type="line" smooth="yes" name="15" />
   <point x="432" y="89" type="offcurve" name="14" />
   <point x="434" y="88" type="offcurve" name="14" />
   <point x="436" y="88" type="curve" smooth="yes" name="15" />
   <point x="452" y="88" type="offcurve" name="14" />
   <point x="477" y="118" type="offcurve" name="14" />
   <point x="477" y="132" type="curve" smooth="yes" name="15" />
   <point x="477" y="134" type="offcurve" name="14" />
   <point x="477" y="135" type="offcurve" name="14" />
   <point x="476" y="136" type="curve" smooth="yes" name="15" />
   <point x="400" y="210" type="line" smooth="no" name="13" />
   <point x="421" y="243" type="offcurve" name="14" />
   <point x="433" y="275" type="offcurve" name="14" />
   <point x="433" y="315" type="curve" smooth="yes" name="15" />
   <point x="433" y="356" type="offcurve" name="14" />
   <point x="420" y="391" type="offcurve" name="14" />
   <point x="400" y="419" type="curve" smooth="no" name="13" />
   <point x="475" y="493" type="line" smooth="yes" name="15" />
   <point x="476" y="494" type="offcurve" name="14" />
   <point x="476" y="496" type="offcurve" name="14" />
   <point x="476" y="498" type="curve" smooth="yes" name="15" />
   <point x="476" y="512" type="offcurve" name="14" />
   <point x="450" y="540" type="offcurve" name="14" />
   <point x="435" y="540" type="curve" smooth="yes" name="15" />
   <point x="433" y="540" type="offcurve" name="14" />
   <point x="430" y="539" type="offcurve" name="14" />
   <point x="429" y="537" type="curve" smooth="no" name="13" />
   <point x="353" y="462" type="line" smooth="no" name="13" />
   <point x="325" y="479" type="offcurve" name="14" />
   <point x="290" y="489" type="offcurve" name="14" />
   <point x="252" y="489" type="curve" smooth="yes" name="15" />
   <point x="215" y="489" type="offcurve" name="14" />
   <point x="182" y="479" type="offcurve" name="14" />
   <point x="154" y="462" type="curve" smooth="no" name="13" />
   <point x="77" y="537" type="line" smooth="yes" name="15" />
   <point x="75" y="539" type="offcurve" name="14" />
   <point x="73" y="540" type="offcurve" name="14" />
   <point x="71" y="540" type="curve" smooth="yes" name="15" />
   <point x="57" y="540" type="offcurve" name="14" />
   <point x="30" y="511" type="offcurve" name="14" />
   <point x="30" y="498" type="curve" smooth="yes" name="15" />
   <point x="30" y="496" type="offcurve" name="14" />
   <point x="31" y="494" type="offcurve" name="14" />
   <point x="32" y="493" type="curve" smooth="yes" name="15" />
   <point x="105" y="420" type="line" smooth="no" name="13" />
   <point x="83" y="392" type="offcurve" name="14" />
   <point x="70" y="356" type="offcurve" name="14" />
   <point x="70" y="315" type="curve" smooth="yes" name="15" />
   <point x="70" y="274" type="offcurve" name="14" />
   <point x="83" y="240" type="offcurve" name="14" />
   <point x="105" y="209" type="curve" smooth="no" name="13" />
   <point x="32" y="136" type="line" smooth="yes" name="15" />
   <point x="31" y="135" type="offcurve" name="14" />
   <point x="30" y="134" type="offcurve" name="14" />
   <point x="30" y="132" type="curve" smooth="yes" name="15" />
   <point x="30" y="119" type="offcurve" name="14" />
   <point x="57" y="89" type="offcurve" name="14" />
   <point x="72" y="89" type="curve" smooth="yes" name="15" />
   <point x="74" y="89" type="offcurve" name="14" />
   <point x="76" y="90" type="offcurve" name="14" />
   <point x="78" y="92" type="curve" smooth="yes" name="15" />
   <point x="154" y="167" type="line" smooth="no" name="13" />
   <point x="181" y="150" type="offcurve" name="14" />
   <point x="215" y="142" type="offcurve" name="14" />
   <point x="252" y="142" type="curve" smooth="yes" name="15" />
   <point x="290" y="142" type="offcurve" name="14" />
   <point x="324" y="151" type="offcurve" name="14" />
   <point x="351" y="168" type="curve" smooth="no" name="13" />
  </contour>
  <contour>
   <point x="156" y="313" type="curve" smooth="yes" name="15" />
   <point x="156" y="314" type="offcurve" name="14" />
   <point x="156" y="315" type="offcurve" name="14" />
   <point x="156" y="316" type="curve" smooth="yes" name="15" />
   <point x="156" y="372" type="offcurve" name="14" />
   <point x="193" y="417" type="offcurve" name="14" />
   <point x="253" y="417" type="curve" smooth="yes" name="15" />
   <point x="313" y="417" type="offcurve" name="14" />
   <point x="346" y="372" type="offcurve" name="14" />
   <point x="347" y="317" type="curve" smooth="yes" name="15" />
   <point x="347" y="260" type="offcurve" name="14" />
   <point x="315" y="215" type="offcurve" name="14" />
   <point x="253" y="215" type="curve" smooth="yes" name="15" />
   <point x="192" y="215" type="offcurve" name="14" />
   <point x="156" y="258" type="offcurve" name="14" />
  </contour>
 </outline>
</glyph>
<glyph name="yen" format="1">
 <advance width="525" />
 <unicode hex="00a5" />
 <outline>
  <contour>
   <point x="197" y="0" type="line" smooth="no" name="13" />
   <point x="327" y="0" type="line" smooth="no" name="13" />
   <point x="327" y="137" type="line" smooth="no" name="13" />
   <point x="425" y="137" type="line" smooth="no" name="13" />
   <point x="425" y="200" type="line" smooth="no" name="13" />
   <point x="327" y="200" type="line" smooth="no" name="13" />
   <point x="327" y="242" type="line" smooth="no" name="13" />
   <point x="425" y="242" type="line" smooth="no" name="13" />
   <point x="425" y="315" type="line" smooth="no" name="13" />
   <point x="332" y="315" type="line" smooth="no" name="13" />
   <point x="493" y="633" type="line" smooth="no" name="13" />
   <point x="375" y="633" type="line" smooth="no" name="13" />
   <point x="264" y="416" type="line" smooth="no" name="13" />
   <point x="153" y="633" type="line" smooth="no" name="13" />
   <point x="33" y="633" type="line" smooth="no" name="13" />
   <point x="193" y="315" type="line" smooth="no" name="13" />
   <point x="103" y="315" type="line" smooth="no" name="13" />
   <point x="103" y="242" type="line" smooth="no" name="13" />
   <point x="197" y="242" type="line" smooth="no" name="13" />
   <point x="197" y="200" type="line" smooth="no" name="13" />
   <point x="103" y="200" type="line" smooth="no" name="13" />
   <point x="103" y="137" type="line" smooth="no" name="13" />
   <point x="197" y="137" type="line" smooth="no" name="13" />
  </contour>
 </outline>
</glyph>
<glyph name="brokenbar" format="1">
 <advance width="228" />
 <unicode hex="00a6" />
 <outline>
  <contour>
   <point x="56" y="238" type="line" smooth="no" name="13" />
   <point x="56" y="-179" type="line" smooth="no" name="13" />
   <point x="172" y="-179" type="line" smooth="no" name="13" />
   <point x="172" y="238" type="line" smooth="no" name="13" />
  </contour>
  <contour>
   <point x="172" y="662" type="line" smooth="no" name="13" />
   <point x="56" y="662" type="line" smooth="no" name="13" />
   <point x="56" y="278" type="line" smooth="no" name="13" />
   <point x="172" y="278" type="line" smooth="no" name="13" />
  </contour>
 </outline>
</glyph>
<glyph name="section" format="1">
 <advance width="468" />
 <unicode hex="00a7" />
 <outline>
  <contour>
   <point x="372" y="130" type="curve" smooth="no" name="13" />
   <point x="399" y="145" type="offcurve" name="14" />
   <point x="428" y="181" type="offcurve" name="14" />
   <point x="428" y="234" type="curve" smooth="yes" name="15" />
   <point x="428" y="320" type="offcurve" name="14" />
   <point x="378" y="370" type="offcurve" name="14" />
   <point x="293" y="400" type="curve" smooth="yes" name="15" />
   <point x="227" y="424" type="offcurve" name="14" />
   <point x="179" y="454" type="offcurve" name="14" />
   <point x="179" y="501" type="curve" smooth="yes" name="15" />
   <point x="179" y="534" type="offcurve" name="14" />
   <point x="203" y="552" type="offcurve" name="14" />
   <point x="237" y="552" type="curve" smooth="yes" name="15" />
   <point x="282" y="552" type="offcurve" name="14" />
   <point x="328" y="535" type="offcurve" name="14" />
   <point x="351" y="519" type="curve" smooth="no" name="13" />
   <point x="395" y="590" type="line" smooth="no" name="13" />
   <point x="363" y="615" type="offcurve" name="14" />
   <point x="309" y="645" type="offcurve" name="14" />
   <point x="236" y="645" type="curve" smooth="yes" name="15" />
   <point x="135" y="645" type="offcurve" name="14" />
   <point x="56" y="588" type="offcurve" name="14" />
   <point x="56" y="500" type="curve" smooth="yes" name="15" />
   <point x="56" y="445" type="offcurve" name="14" />
   <point x="81" y="407" type="offcurve" name="14" />
   <point x="119" y="382" type="curve" smooth="no" name="13" />
   <point x="63" y="358" type="offcurve" name="14" />
   <point x="40" y="298" type="offcurve" name="14" />
   <point x="40" y="258" type="curve" smooth="yes" name="15" />
   <point x="40" y="158" type="offcurve" name="14" />
   <point x="114" y="132" type="offcurve" name="14" />
   <point x="180" y="108" type="curve" smooth="yes" name="15" />
   <point x="199" y="102" type="offcurve" name="14" />
   <point x="216" y="96" type="offcurve" name="14" />
   <point x="232" y="88" type="curve" smooth="yes" name="15" />
   <point x="263" y="73" type="offcurve" name="14" />
   <point x="292" y="57" type="offcurve" name="14" />
   <point x="292" y="18" type="curve" smooth="yes" name="15" />
   <point x="292" y="-18" type="offcurve" name="14" />
   <point x="267" y="-47" type="offcurve" name="14" />
   <point x="216" y="-47" type="curve" smooth="yes" name="15" />
   <point x="179" y="-47" type="offcurve" name="14" />
   <point x="130" y="-32" type="offcurve" name="14" />
   <point x="102" y="-13" type="curve" smooth="no" name="13" />
   <point x="54" y="-81" type="line" smooth="no" name="13" />
   <point x="89" y="-111" type="offcurve" name="14" />
   <point x="152" y="-140" type="offcurve" name="14" />
   <point x="231" y="-140" type="curve" smooth="yes" name="15" />
   <point x="347" y="-140" type="offcurve" name="14" />
   <point x="416" y="-64" type="offcurve" name="14" />
   <point x="416" y="14" type="curve" smooth="yes" name="15" />
   <point x="416" y="86" type="offcurve" name="14" />
   <point x="394" y="105" type="offcurve" name="14" />
  </contour>
  <contour>
   <point x="188" y="338" type="curve" smooth="no" name="13" />
   <point x="194" y="336" type="offcurve" name="14" />
   <point x="200" y="333" type="offcurve" name="14" />
   <point x="206" y="331" type="curve" smooth="yes" name="15" />
   <point x="255" y="312" type="offcurve" name="14" />
   <point x="312" y="289" type="offcurve" name="14" />
   <point x="312" y="222" type="curve" smooth="yes" name="15" />
   <point x="312" y="210" type="offcurve" name="14" />
   <point x="309" y="186" type="offcurve" name="14" />
   <point x="301" y="173" type="curve" smooth="no" name="13" />
   <point x="291" y="178" type="offcurve" name="14" />
   <point x="281" y="181" type="offcurve" name="14" />
   <point x="269" y="184" type="curve" smooth="yes" name="15" />
   <point x="265" y="185" type="offcurve" name="14" />
   <point x="262" y="186" type="offcurve" name="14" />
   <point x="258" y="187" type="curve" smooth="yes" name="15" />
   <point x="177" y="205" type="offcurve" name="14" />
   <point x="161" y="237" type="offcurve" name="14" />
   <point x="161" y="273" type="curve" smooth="yes" name="15" />
   <point x="161" y="299" type="offcurve" name="14" />
   <point x="178" y="325" type="offcurve" name="14" />
  </contour>
 </outline>
</glyph>
<glyph name="dieresis" format="1">
 <advance width="373" />
 <unicode hex="00a8" />
 <outline>
  <contour>
   <point x="24" y="578" type="curve" smooth="yes" name="15" />
   <point x="24" y="537" type="offcurve" name="14" />
   <point x="52" y="510" type="offcurve" name="14" />
   <point x="92" y="510" type="curve" smooth="yes" name="15" />
   <point x="125" y="510" type="offcurve" name="14" />
   <point x="157" y="537" type="offcurve" name="14" />
   <point x="157" y="578" type="curve" smooth="yes" name="15" />
   <point x="157" y="613" type="offcurve" name="14" />
   <point x="125" y="645" type="offcurve" name="14" />
   <point x="92" y="645" type="curve" smooth="yes" name="15" />
   <point x="52" y="645" type="offcurve" name="14" />
   <point x="24" y="613" type="offcurve" name="14" />
  </contour>
  <contour>
   <point x="208" y="578" type="curve" smooth="yes" name="15" />
   <point x="208" y="537" type="offcurve" name="14" />
   <point x="238" y="510" type="offcurve" name="14" />
   <point x="274" y="510" type="curve" smooth="yes" name="15" />
   <point x="312" y="510" type="offcurve" name="14" />
   <point x="342" y="537" type="offcurve" name="14" />
   <point x="342" y="578" type="curve" smooth="yes" name="15" />
   <point x="342" y="613" type="offcurve" name="14" />
   <point x="312" y="645" type="offcurve" name="14" />
   <point x="274" y="645" type="curve" smooth="yes" name="15" />
   <point x="238" y="645" type="offcurve" name="14" />
   <point x="208" y="613" type="offcurve" name="14" />
  </contour>
 </outline>
</glyph>
<glyph name="copyright" format="1">
 <advance width="679" />
 <unicode hex="00a9" />
 <outline>
  <contour>
   <point x="477" y="170" type="curve" smooth="no" name="13" />
   <point x="451" y="220" type="line" smooth="no" name="13" />
   <point x="424" y="196" type="offcurve" name="14" />
   <point x="399" y="183" type="offcurve" name="14" />
   <point x="358" y="183" type="curve" smooth="yes" name="15" />
   <point x="308" y="183" type="offcurve" name="14" />
   <point x="256" y="226" type="offcurve" name="14" />
   <point x="256" y="308" type="curve" smooth="yes" name="15" />
   <point x="256" y="394" type="offcurve" name="14" />
   <point x="316" y="437" type="offcurve" name="14" />
   <point x="356" y="437" type="curve" smooth="yes" name="15" />
   <point x="398" y="437" type="offcurve" name="14" />
   <point x="417" y="426" type="offcurve" name="14" />
   <point x="446" y="409" type="curve" smooth="no" name="13" />
   <point x="471" y="459" type="line" smooth="no" name="13" />
   <point x="432" y="487" type="offcurve" name="14" />
   <point x="398" y="502" type="offcurve" name="14" />
   <point x="348" y="502" type="curve" smooth="yes" name="15" />
   <point x="244" y="502" type="offcurve" name="14" />
   <point x="162" y="418" type="offcurve" name="14" />
   <point x="162" y="308" type="curve" smooth="yes" name="15" />
   <point x="162" y="182" type="offcurve" name="14" />
   <point x="242" y="121" type="offcurve" name="14" />
   <point x="354" y="121" type="curve" smooth="yes" name="15" />
   <point x="388" y="121" type="offcurve" name="14" />
   <point x="438" y="131" type="offcurve" name="14" />
  </contour>
  <contour>
   <point x="339" y="617" type="curve" smooth="yes" name="15" />
   <point x="174" y="617" type="offcurve" name="14" />
   <point x="38" y="481" type="offcurve" name="14" />
   <point x="38" y="315" type="curve" smooth="yes" name="15" />
   <point x="38" y="150" type="offcurve" name="14" />
   <point x="174" y="14" type="offcurve" name="14" />
   <point x="339" y="14" type="curve" smooth="yes" name="15" />
   <point x="505" y="14" type="offcurve" name="14" />
   <point x="641" y="150" type="offcurve" name="14" />
   <point x="641" y="315" type="curve" smooth="yes" name="15" />
   <point x="641" y="481" type="offcurve" name="14" />
   <point x="505" y="617" type="offcurve" name="14" />
  </contour>
  <contour>
   <point x="342" y="85" type="curve" smooth="yes" name="15" />
   <point x="213" y="85" type="offcurve" name="14" />
   <point x="113" y="187" type="offcurve" name="14" />
   <point x="113" y="313" type="curve" smooth="yes" name="15" />
   <point x="113" y="441" type="offcurve" name="14" />
   <point x="217" y="545" type="offcurve" name="14" />
   <point x="346" y="545" type="curve" smooth="yes" name="15" />
   <point x="471" y="545" type="offcurve" name="14" />
   <point x="576" y="441" type="offcurve" name="14" />
   <point x="576" y="313" type="curve" smooth="yes" name="15" />
   <point x="576" y="187" type="offcurve" name="14" />
   <point x="467" y="85" type="offcurve" name="14" />
  </contour>
 </outline>
</glyph>
<glyph name="ordfeminine" format="1">
 <advance width="248" />
 <unicode hex="00aa" />
 <outline>
  <contour>
   <point x="236" y="406" type="line" smooth="no" name="13" />
   <point x="236" y="544" type="line" smooth="yes" name="15" />
   <point x="236" y="611" type="offcurve" name="14" />
   <point x="201" y="645" type="offcurve" name="14" />
   <point x="143" y="645" type="curve" smooth="yes" name="15" />
   <point x="104" y="645" type="offcurve" name="14" />
   <point x="72" y="631" type="offcurve" name="14" />
   <point x="47" y="611" type="curve" smooth="no" name="13" />
   <point x="61" y="571" type="line" smooth="no" name="13" />
   <point x="86" y="584" type="offcurve" name="14" />
   <point x="110" y="591" type="offcurve" name="14" />
   <point x="138" y="591" type="curve" smooth="yes" name="15" />
   <point x="160" y="591" type="offcurve" name="14" />
   <point x="172" y="583" type="offcurve" name="14" />
   <point x="172" y="560" type="curve" smooth="yes" name="15" />
   <point x="172" y="558" type="line" smooth="no" name="13" />
   <point x="145" y="558" type="line" smooth="yes" name="15" />
   <point x="62" y="558" type="offcurve" name="14" />
   <point x="23" y="515" type="offcurve" name="14" />
   <point x="23" y="473" type="curve" smooth="yes" name="15" />
   <point x="23" y="419" type="offcurve" name="14" />
   <point x="71" y="400" type="offcurve" name="14" />
   <point x="98" y="400" type="curve" smooth="yes" name="15" />
   <point x="137" y="400" type="offcurve" name="14" />
   <point x="160" y="413" type="offcurve" name="14" />
   <point x="177" y="436" type="curve" smooth="no" name="13" />
   <point x="181" y="406" type="line" smooth="no" name="13" />
  </contour>
  <contour>
   <point x="171" y="518" type="line" smooth="no" name="13" />
   <point x="171" y="490" type="line" smooth="yes" name="15" />
   <point x="171" y="475" type="offcurve" name="14" />
   <point x="158" y="444" type="offcurve" name="14" />
   <point x="122" y="444" type="curve" smooth="yes" name="15" />
   <point x="105" y="444" type="offcurve" name="14" />
   <point x="86" y="452" type="offcurve" name="14" />
   <point x="86" y="476" type="curve" smooth="yes" name="15" />
   <point x="86" y="505" type="offcurve" name="14" />
   <point x="104" y="518" type="offcurve" name="14" />
   <point x="153" y="518" type="curve" smooth="yes" name="15" />
  </contour>
 </outline>
</glyph>
<glyph name="guillemotleft" format="1">
 <advance width="658" />
 <unicode hex="00ab" />
 <outline>
  <contour>
   <point x="331" y="1" type="curve" smooth="no" name="13" />
   <point x="331" y="117" type="line" smooth="no" name="13" />
   <point x="269" y="142" type="offcurve" name="14" />
   <point x="219" y="180" type="offcurve" name="14" />
   <point x="187" y="245" type="curve" smooth="no" name="13" />
   <point x="219" y="308" type="offcurve" name="14" />
   <point x="269" y="348" type="offcurve" name="14" />
   <point x="331" y="372" type="curve" smooth="no" name="13" />
   <point x="331" y="487" type="line" smooth="no" name="13" />
   <point x="222" y="484" type="offcurve" name="14" />
   <point x="105" y="380" type="offcurve" name="14" />
   <point x="52" y="245" type="curve" smooth="no" name="13" />
   <point x="105" y="108" type="offcurve" name="14" />
   <point x="222" y="4" type="offcurve" name="14" />
  </contour>
  <contour>
   <point x="617" y="1" type="curve" smooth="no" name="13" />
   <point x="617" y="117" type="line" smooth="no" name="13" />
   <point x="554" y="142" type="offcurve" name="14" />
   <point x="504" y="180" type="offcurve" name="14" />
   <point x="472" y="245" type="curve" smooth="no" name="13" />
   <point x="504" y="308" type="offcurve" name="14" />
   <point x="554" y="348" type="offcurve" name="14" />
   <point x="617" y="372" type="curve" smooth="no" name="13" />
   <point x="617" y="487" type="line" smooth="no" name="13" />
   <point x="507" y="484" type="offcurve" name="14" />
   <point x="391" y="380" type="offcurve" name="14" />
   <point x="337" y="245" type="curve" smooth="no" name="13" />
   <point x="391" y="108" type="offcurve" name="14" />
   <point x="507" y="4" type="offcurve" name="14" />
  </contour>
 </outline>
</glyph>
<glyph name="logicalnot" format="1">
 <advance width="477" />
 <unicode hex="00ac" />
 <outline>
  <contour>
   <point x="316" y="0" type="line" smooth="no" name="13" />
   <point x="445" y="0" type="line" smooth="no" name="13" />
   <point x="445" y="245" type="line" smooth="no" name="13" />
   <point x="32" y="245" type="line" smooth="no" name="13" />
   <point x="32" y="142" type="line" smooth="no" name="13" />
   <point x="316" y="142" type="line" smooth="no" name="13" />
  </contour>
 </outline>
</glyph>
<glyph name="registered" format="1">
 <advance width="391" />
 <unicode hex="00ae" />
 <outline>
  <contour>
   <point x="197" y="470" type="line" smooth="no" name="13" />
   <point x="224" y="410" type="line" smooth="no" name="13" />
   <point x="279" y="410" type="line" smooth="no" name="13" />
   <point x="240" y="477" type="line" smooth="no" name="13" />
   <point x="255" y="486" type="offcurve" name="14" />
   <point x="267" y="495" type="offcurve" name="14" />
   <point x="267" y="520" type="curve" smooth="yes" name="15" />
   <point x="267" y="550" type="offcurve" name="14" />
   <point x="244" y="567" type="offcurve" name="14" />
   <point x="214" y="567" type="curve" smooth="yes" name="15" />
   <point x="141" y="567" type="line" smooth="no" name="13" />
   <point x="141" y="410" type="line" smooth="no" name="13" />
   <point x="188" y="410" type="line" smooth="no" name="13" />
   <point x="188" y="470" type="line" smooth="no" name="13" />
  </contour>
  <contour>
   <point x="197" y="529" type="line" smooth="yes" name="15" />
   <point x="214" y="529" type="offcurve" name="14" />
   <point x="222" y="526" type="offcurve" name="14" />
   <point x="222" y="514" type="curve" smooth="yes" name="15" />
   <point x="222" y="502" type="offcurve" name="14" />
   <point x="213" y="500" type="offcurve" name="14" />
   <point x="195" y="500" type="curve" smooth="yes" name="15" />
   <point x="188" y="500" type="line" smooth="no" name="13" />
   <point x="188" y="529" type="line" smooth="no" name="13" />
  </contour>
  <contour>
   <point x="197" y="322" type="curve" smooth="yes" name="15" />
   <point x="286" y="322" type="offcurve" name="14" />
   <point x="356" y="395" type="offcurve" name="14" />
   <point x="356" y="484" type="curve" smooth="yes" name="15" />
   <point x="356" y="573" type="offcurve" name="14" />
   <point x="286" y="646" type="offcurve" name="14" />
   <point x="197" y="646" type="curve" smooth="yes" name="15" />
   <point x="108" y="646" type="offcurve" name="14" />
   <point x="35" y="573" type="offcurve" name="14" />
   <point x="35" y="484" type="curve" smooth="yes" name="15" />
   <point x="35" y="395" type="offcurve" name="14" />
   <point x="108" y="322" type="offcurve" name="14" />
  </contour>
  <contour>
   <point x="77" y="484" type="curve" smooth="yes" name="15" />
   <point x="77" y="561" type="offcurve" name="14" />
   <point x="131" y="607" type="offcurve" name="14" />
   <point x="197" y="607" type="curve" smooth="yes" name="15" />
   <point x="263" y="607" type="offcurve" name="14" />
   <point x="317" y="556" type="offcurve" name="14" />
   <point x="317" y="484" type="curve" smooth="yes" name="15" />
   <point x="317" y="414" type="offcurve" name="14" />
   <point x="272" y="361" type="offcurve" name="14" />
   <point x="197" y="361" type="curve" smooth="yes" name="15" />
   <point x="131" y="361" type="offcurve" name="14" />
   <point x="77" y="407" type="offcurve" name="14" />
  </contour>
 </outline>
</glyph>
<glyph name="macron" format="1">
 <advance width="256" />
 <unicode hex="00af" />
 <outline>
  <contour>
   <point x="250" y="541" type="line" smooth="no" name="13" />
   <point x="250" y="633" type="line" smooth="no" name="13" />
   <point x="6" y="633" type="line" smooth="no" name="13" />
   <point x="6" y="541" type="line" smooth="no" name="13" />
  </contour>
 </outline>
</glyph>
<glyph name="degree" format="1">
 <advance width="258" />
 <unicode hex="00b0" />
 <outline>
  <contour>
   <point x="14" y="537" type="curve" smooth="yes" name="15" />
   <point x="14" y="474" type="offcurve" name="14" />
   <point x="66" y="421" type="offcurve" name="14" />
   <point x="129" y="421" type="curve" smooth="yes" name="15" />
   <point x="192" y="421" type="offcurve" name="14" />
   <point x="244" y="474" type="offcurve" name="14" />
   <point x="244" y="537" type="curve" smooth="yes" name="15" />
   <point x="244" y="600" type="offcurve" name="14" />
   <point x="192" y="652" type="offcurve" name="14" />
   <point x="129" y="652" type="curve" smooth="yes" name="15" />
   <point x="66" y="652" type="offcurve" name="14" />
   <point x="14" y="600" type="offcurve" name="14" />
  </contour>
  <contour>
   <point x="76" y="538" type="curve" smooth="yes" name="15" />
   <point x="76" y="568" type="offcurve" name="14" />
   <point x="99" y="592" type="offcurve" name="14" />
   <point x="129" y="592" type="curve" smooth="yes" name="15" />
   <point x="159" y="592" type="offcurve" name="14" />
   <point x="183" y="568" type="offcurve" name="14" />
   <point x="183" y="538" type="curve" smooth="yes" name="15" />
   <point x="183" y="508" type="offcurve" name="14" />
   <point x="159" y="485" type="offcurve" name="14" />
   <point x="129" y="485" type="curve" smooth="yes" name="15" />
   <point x="99" y="485" type="offcurve" name="14" />
   <point x="76" y="508" type="offcurve" name="14" />
  </contour>
 </outline>
</glyph>
<glyph name="plusminus" format="1">
 <advance width="516" />
 <unicode hex="00b1" />
 <outline>
  <contour>
   <point x="201" y="223" type="line" smooth="no" name="13" />
   <point x="201" y="111" type="line" smooth="no" name="13" />
   <point x="317" y="111" type="line" smooth="no" name="13" />
   <point x="317" y="223" type="line" smooth="no" name="13" />
   <point x="484" y="223" type="line" smooth="no" name="13" />
   <point x="484" y="324" type="line" smooth="no" name="13" />
   <point x="317" y="324" type="line" smooth="no" name="13" />
   <point x="317" y="454" type="line" smooth="no" name="13" />
   <point x="201" y="454" type="line" smooth="no" name="13" />
   <point x="201" y="324" type="line" smooth="no" name="13" />
   <point x="32" y="324" type="line" smooth="no" name="13" />
   <point x="32" y="223" type="line" smooth="no" name="13" />
  </contour>
  <contour>
   <point x="484" y="0" type="line" smooth="no" name="13" />
   <point x="484" y="100" type="line" smooth="no" name="13" />
   <point x="32" y="100" type="line" smooth="no" name="13" />
   <point x="32" y="0" type="line" smooth="no" name="13" />
  </contour>
 </outline>
</glyph>
<glyph name="twosuperior" format="1">
 <advance width="367" />
 <unicode hex="00b2" />
 <outline>
  <contour>
   <point x="52" y="316" type="line" smooth="no" name="13" />
   <point x="311" y="316" type="line" smooth="no" name="13" />
   <point x="311" y="392" type="line" smooth="no" name="13" />
   <point x="206" y="392" type="line" smooth="no" name="13" />
   <point x="256" y="419" type="offcurve" name="14" />
   <point x="320" y="448" type="offcurve" name="14" />
   <point x="320" y="535" type="curve" smooth="yes" name="15" />
   <point x="320" y="567" type="offcurve" name="14" />
   <point x="298" y="645" type="offcurve" name="14" />
   <point x="189" y="645" type="curve" smooth="yes" name="15" />
   <point x="137" y="645" type="offcurve" name="14" />
   <point x="93" y="630" type="offcurve" name="14" />
   <point x="47" y="584" type="curve" smooth="no" name="13" />
   <point x="92" y="537" type="line" smooth="no" name="13" />
   <point x="122" y="558" type="offcurve" name="14" />
   <point x="139" y="566" type="offcurve" name="14" />
   <point x="168" y="566" type="curve" smooth="yes" name="15" />
   <point x="194" y="566" type="offcurve" name="14" />
   <point x="219" y="555" type="offcurve" name="14" />
   <point x="219" y="529" type="curve" smooth="yes" name="15" />
   <point x="219" y="477" type="offcurve" name="14" />
   <point x="115" y="427" type="offcurve" name="14" />
   <point x="52" y="392" type="curve" smooth="no" name="13" />
  </contour>
 </outline>
</glyph>
<glyph name="threesuperior" format="1">
 <advance width="356" />
 <unicode hex="00b3" />
 <outline>
  <contour>
   <point x="111" y="445" type="line" smooth="no" name="13" />
   <point x="154" y="445" type="line" smooth="yes" name="15" />
   <point x="185" y="445" type="offcurve" name="14" />
   <point x="208" y="440" type="offcurve" name="14" />
   <point x="208" y="419" type="curve" smooth="yes" name="15" />
   <point x="208" y="396" type="offcurve" name="14" />
   <point x="189" y="390" type="offcurve" name="14" />
   <point x="172" y="390" type="curve" smooth="yes" name="15" />
   <point x="149" y="390" type="offcurve" name="14" />
   <point x="129" y="397" type="offcurve" name="14" />
   <point x="97" y="419" type="curve" smooth="no" name="13" />
   <point x="81" y="403" type="offcurve" name="14" />
   <point x="64" y="387" type="offcurve" name="14" />
   <point x="47" y="371" type="curve" smooth="no" name="13" />
   <point x="100" y="317" type="offcurve" name="14" />
   <point x="156" y="314" type="offcurve" name="14" />
   <point x="192" y="314" type="curve" smooth="yes" name="15" />
   <point x="280" y="314" type="offcurve" name="14" />
   <point x="309" y="362" type="offcurve" name="14" />
   <point x="309" y="410" type="curve" smooth="yes" name="15" />
   <point x="309" y="454" type="offcurve" name="14" />
   <point x="274" y="482" type="offcurve" name="14" />
   <point x="230" y="491" type="curve" smooth="no" name="13" />
   <point x="277" y="500" type="offcurve" name="14" />
   <point x="304" y="516" type="offcurve" name="14" />
   <point x="304" y="556" type="curve" smooth="yes" name="15" />
   <point x="304" y="592" type="offcurve" name="14" />
   <point x="280" y="645" type="offcurve" name="14" />
   <point x="182" y="645" type="curve" smooth="yes" name="15" />
   <point x="138" y="645" type="offcurve" name="14" />
   <point x="93" y="632" type="offcurve" name="14" />
   <point x="47" y="587" type="curve" smooth="no" name="13" />
   <point x="93" y="541" type="line" smooth="no" name="13" />
   <point x="125" y="559" type="offcurve" name="14" />
   <point x="152" y="566" type="offcurve" name="14" />
   <point x="173" y="566" type="curve" smooth="yes" name="15" />
   <point x="191" y="566" type="offcurve" name="14" />
   <point x="203" y="558" type="offcurve" name="14" />
   <point x="203" y="543" type="curve" smooth="yes" name="15" />
   <point x="203" y="522" type="offcurve" name="14" />
   <point x="187" y="520" type="offcurve" name="14" />
   <point x="169" y="520" type="curve" smooth="yes" name="15" />
   <point x="165" y="520" type="offcurve" name="14" />
   <point x="161" y="520" type="offcurve" name="14" />
   <point x="157" y="520" type="curve" smooth="yes" name="15" />
   <point x="111" y="520" type="line" smooth="no" name="13" />
  </contour>
 </outline>
</glyph>
<glyph name="acute" format="1">
 <advance width="226" />
 <unicode hex="00b4" />
 <outline>
  <contour>
   <point x="211" y="655" type="line" smooth="no" name="13" />
   <point x="87" y="655" type="line" smooth="no" name="13" />
   <point x="15" y="509" type="line" smooth="no" name="13" />
   <point x="102" y="509" type="line" smooth="no" name="13" />
  </contour>
 </outline>
</glyph>
<glyph name="mu" format="1">
 <advance width="600" />
 <unicode hex="00b5" />
 <outline>
  <contour>
   <point x="191" y="17" type="line" smooth="no" name="13" />
   <point x="208" y="0" type="offcurve" name="14" />
   <point x="233" y="-12" type="offcurve" name="14" />
   <point x="270" y="-12" type="curve" smooth="yes" name="15" />
   <point x="316" y="-12" type="offcurve" name="14" />
   <point x="350" y="14" type="offcurve" name="14" />
   <point x="378" y="36" type="curve" smooth="no" name="13" />
   <point x="389" y="10" type="offcurve" name="14" />
   <point x="404" y="-13" type="offcurve" name="14" />
   <point x="460" y="-13" type="curve" smooth="yes" name="15" />
   <point x="522" y="-13" type="offcurve" name="14" />
   <point x="567" y="22" type="offcurve" name="14" />
   <point x="583" y="38" type="curve" smooth="no" name="13" />
   <point x="542" y="98" type="line" smooth="no" name="13" />
   <point x="529" y="89" type="offcurve" name="14" />
   <point x="517" y="83" type="offcurve" name="14" />
   <point x="507" y="83" type="curve" smooth="yes" name="15" />
   <point x="500" y="83" type="offcurve" name="14" />
   <point x="488" y="84" type="offcurve" name="14" />
   <point x="488" y="113" type="curve" smooth="yes" name="15" />
   <point x="488" y="454" type="line" smooth="no" name="13" />
   <point x="364" y="454" type="line" smooth="no" name="13" />
   <point x="364" y="110" type="line" smooth="no" name="13" />
   <point x="354" y="103" type="offcurve" name="14" />
   <point x="307" y="86" type="offcurve" name="14" />
   <point x="280" y="86" type="curve" smooth="yes" name="15" />
   <point x="218" y="86" type="offcurve" name="14" />
   <point x="191" y="123" type="offcurve" name="14" />
   <point x="191" y="231" type="curve" smooth="yes" name="15" />
   <point x="191" y="454" type="line" smooth="no" name="13" />
   <point x="68" y="454" type="line" smooth="no" name="13" />
   <point x="68" y="-181" type="line" smooth="no" name="13" />
   <point x="191" y="-181" type="line" smooth="no" name="13" />
  </contour>
 </outline>
</glyph>
<glyph name="paragraph" format="1">
 <advance width="543" />
 <unicode hex="00b6" />
 <outline>
  <contour>
   <point x="463" y="0" type="line" smooth="no" name="13" />
   <point x="463" y="633" type="line" smooth="no" name="13" />
   <point x="374" y="633" type="line" smooth="no" name="13" />
   <point x="374" y="0" type="line" smooth="no" name="13" />
  </contour>
  <contour>
   <point x="255" y="0" type="line" smooth="no" name="13" />
   <point x="345" y="0" type="line" smooth="no" name="13" />
   <point x="345" y="633" type="line" smooth="no" name="13" />
   <point x="202" y="633" type="line" smooth="yes" name="15" />
   <point x="105" y="633" type="offcurve" name="14" />
   <point x="45" y="584" type="offcurve" name="14" />
   <point x="45" y="492" type="curve" smooth="yes" name="15" />
   <point x="45" y="416" type="offcurve" name="14" />
   <point x="77" y="357" type="offcurve" name="14" />
   <point x="212" y="357" type="curve" smooth="yes" name="15" />
   <point x="255" y="357" type="line" smooth="no" name="13" />
  </contour>
 </outline>
</glyph>
<glyph name="periodcentered" format="1">
 <advance width="186" />
 <unicode hex="00b7" />
 <outline>
  <contour>
   <point x="25" y="372" type="curve" smooth="yes" name="15" />
   <point x="25" y="334" type="offcurve" name="14" />
   <point x="55" y="305" type="offcurve" name="14" />
   <point x="93" y="305" type="curve" smooth="yes" name="15" />
   <point x="131" y="305" type="offcurve" name="14" />
   <point x="161" y="334" type="offcurve" name="14" />
   <point x="161" y="372" type="curve" smooth="yes" name="15" />
   <point x="161" y="410" type="offcurve" name="14" />
   <point x="131" y="441" type="offcurve" name="14" />
   <point x="93" y="441" type="curve" smooth="yes" name="15" />
   <point x="55" y="441" type="offcurve" name="14" />
   <point x="25" y="410" type="offcurve" name="14" />
  </contour>
 </outline>
</glyph>
<glyph name="cedilla" format="1">
 <advance width="211" />
 <unicode hex="00b8" />
 <outline>
  <contour>
   <point x="44" y="-55" type="line" smooth="no" name="13" />
   <point x="59" y="-53" type="offcurve" name="14" />
   <point x="68" y="-53" type="offcurve" name="14" />
   <point x="77" y="-53" type="curve" smooth="yes" name="15" />
   <point x="108" y="-53" type="offcurve" name="14" />
   <point x="122" y="-62" type="offcurve" name="14" />
   <point x="122" y="-82" type="curve" smooth="yes" name="15" />
   <point x="122" y="-100" type="offcurve" name="14" />
   <point x="110" y="-108" type="offcurve" name="14" />
   <point x="84" y="-108" type="curve" smooth="yes" name="15" />
   <point x="68" y="-108" type="offcurve" name="14" />
   <point x="41" y="-102" type="offcurve" name="14" />
   <point x="29" y="-99" type="curve" smooth="no" name="13" />
   <point x="15" y="-149" type="line" smooth="no" name="13" />
   <point x="38" y="-158" type="offcurve" name="14" />
   <point x="65" y="-165" type="offcurve" name="14" />
   <point x="105" y="-165" type="curve" smooth="yes" name="15" />
   <point x="169" y="-165" type="offcurve" name="14" />
   <point x="209" y="-135" type="offcurve" name="14" />
   <point x="209" y="-86" type="curve" smooth="yes" name="15" />
   <point x="209" y="-46" type="offcurve" name="14" />
   <point x="180" y="-24" type="offcurve" name="14" />
   <point x="146" y="-24" type="curve" smooth="yes" name="15" />
   <point x="140" y="-24" type="line" smooth="no" name="13" />
   <point x="152" y="10" type="line" smooth="no" name="13" />
   <point x="64" y="10" type="line" smooth="no" name="13" />
  </contour>
 </outline>
</glyph>
<glyph name="onesuperior" format="1">
 <advance width="325" />
 <unicode hex="00b9" />
 <outline>
  <contour>
   <point x="265" y="633" type="line" smooth="no" name="13" />
   <point x="153" y="633" type="line" smooth="no" name="13" />
   <point x="34" y="519" type="line" smooth="no" name="13" />
   <point x="92" y="452" type="line" smooth="no" name="13" />
   <point x="166" y="517" type="line" smooth="no" name="13" />
   <point x="166" y="318" type="line" smooth="no" name="13" />
   <point x="265" y="318" type="line" smooth="no" name="13" />
  </contour>
 </outline>
</glyph>
<glyph name="ordmasculine" format="1">
 <advance width="273" />
 <unicode hex="00ba" />
 <outline>
  <contour>
   <point x="139" y="645" type="curve" smooth="yes" name="15" />
   <point x="68" y="645" type="offcurve" name="14" />
   <point x="16" y="599" type="offcurve" name="14" />
   <point x="16" y="522" type="curve" smooth="yes" name="15" />
   <point x="16" y="443" type="offcurve" name="14" />
   <point x="75" y="400" type="offcurve" name="14" />
   <point x="140" y="400" type="curve" smooth="yes" name="15" />
   <point x="203" y="400" type="offcurve" name="14" />
   <point x="257" y="445" type="offcurve" name="14" />
   <point x="257" y="522" type="curve" smooth="yes" name="15" />
   <point x="257" y="600" type="offcurve" name="14" />
   <point x="203" y="645" type="offcurve" name="14" />
  </contour>
  <contour>
   <point x="138" y="585" type="curve" smooth="yes" name="15" />
   <point x="158" y="585" type="offcurve" name="14" />
   <point x="175" y="566" type="offcurve" name="14" />
   <point x="175" y="522" type="curve" smooth="yes" name="15" />
   <point x="175" y="468" type="offcurve" name="14" />
   <point x="153" y="458" type="offcurve" name="14" />
   <point x="136" y="458" type="curve" smooth="yes" name="15" />
   <point x="119" y="458" type="offcurve" name="14" />
   <point x="98" y="468" type="offcurve" name="14" />
   <point x="98" y="522" type="curve" smooth="yes" name="15" />
   <point x="98" y="571" type="offcurve" name="14" />
   <point x="116" y="585" type="offcurve" name="14" />
  </contour>
 </outline>
</glyph>
<glyph name="guillemotright" format="1">
 <advance width="658" />
 <unicode hex="00bb" />
 <outline>
  <contour>
   <point x="42" y="1" type="line" smooth="no" name="13" />
   <point x="151" y="4" type="offcurve" name="14" />
   <point x="268" y="108" type="offcurve" name="14" />
   <point x="321" y="245" type="curve" smooth="no" name="13" />
   <point x="268" y="380" type="offcurve" name="14" />
   <point x="151" y="484" type="offcurve" name="14" />
   <point x="42" y="487" type="curve" smooth="no" name="13" />
   <point x="42" y="372" type="line" smooth="no" name="13" />
   <point x="104" y="348" type="offcurve" name="14" />
   <point x="154" y="308" type="offcurve" name="14" />
   <point x="186" y="245" type="curve" smooth="no" name="13" />
   <point x="154" y="180" type="offcurve" name="14" />
   <point x="104" y="142" type="offcurve" name="14" />
   <point x="42" y="117" type="curve" smooth="no" name="13" />
  </contour>
  <contour>
   <point x="327" y="1" type="line" smooth="no" name="13" />
   <point x="436" y="4" type="offcurve" name="14" />
   <point x="552" y="108" type="offcurve" name="14" />
   <point x="607" y="245" type="curve" smooth="no" name="13" />
   <point x="552" y="380" type="offcurve" name="14" />
   <point x="436" y="484" type="offcurve" name="14" />
   <point x="327" y="487" type="curve" smooth="no" name="13" />
   <point x="327" y="372" type="line" smooth="no" name="13" />
   <point x="389" y="348" type="offcurve" name="14" />
   <point x="439" y="308" type="offcurve" name="14" />
   <point x="471" y="245" type="curve" smooth="no" name="13" />
   <point x="439" y="180" type="offcurve" name="14" />
   <point x="389" y="142" type="offcurve" name="14" />
   <point x="327" y="117" type="curve" smooth="no" name="13" />
  </contour>
 </outline>
</glyph>
<glyph name="onequarter" format="1">
 <advance width="891" />
 <unicode hex="00bc" />
 <outline>
  <contour>
   <point x="537" y="143" type="curve" smooth="no" name="13" />
   <point x="537" y="55" type="line" smooth="no" name="13" />
   <point x="690" y="55" type="line" smooth="no" name="13" />
   <point x="690" y="0" type="line" smooth="no" name="13" />
   <point x="789" y="0" type="line" smooth="no" name="13" />
   <point x="789" y="55" type="line" smooth="no" name="13" />
   <point x="844" y="55" type="line" smooth="no" name="13" />
   <point x="844" y="134" type="line" smooth="no" name="13" />
   <point x="789" y="134" type="line" smooth="no" name="13" />
   <point x="789" y="318" type="line" smooth="no" name="13" />
   <point x="687" y="318" type="line" smooth="no" name="13" />
   <point x="658" y="283" type="offcurve" name="14" />
   <point x="629" y="249" type="offcurve" name="14" />
   <point x="599" y="215" type="curve" smooth="yes" name="15" />
   <point x="579" y="192" type="offcurve" name="14" />
   <point x="558" y="168" type="offcurve" name="14" />
  </contour>
  <contour>
   <point x="638" y="134" type="line" smooth="no" name="13" />
   <point x="648" y="150" type="offcurve" name="14" />
   <point x="660" y="164" type="offcurve" name="14" />
   <point x="671" y="179" type="curve" smooth="yes" name="15" />
   <point x="677" y="187" type="offcurve" name="14" />
   <point x="684" y="195" type="offcurve" name="14" />
   <point x="690" y="203" type="curve" smooth="no" name="13" />
   <point x="690" y="134" type="line" smooth="no" name="13" />
  </contour>
  <contour>
   <point x="727" y="633" type="curve" smooth="no" name="13" />
   <point x="646" y="633" type="line" smooth="no" name="13" />
   <point x="262" y="-30" type="line" smooth="no" name="13" />
   <point x="340" y="-30" type="line" smooth="no" name="13" />
   <point x="463" y="176" type="offcurve" name="14" />
   <point x="599" y="412" type="offcurve" name="14" />
  </contour>
  <contour>
   <point x="278" y="633" type="line" smooth="no" name="13" />
   <point x="166" y="633" type="line" smooth="no" name="13" />
   <point x="47" y="519" type="line" smooth="no" name="13" />
   <point x="105" y="452" type="line" smooth="no" name="13" />
   <point x="179" y="517" type="line" smooth="no" name="13" />
   <point x="179" y="318" type="line" smooth="no" name="13" />
   <point x="278" y="318" type="line" smooth="no" name="13" />
  </contour>
 </outline>
</glyph>
<glyph name="onehalf" format="1">
 <advance width="845" />
 <unicode hex="00bd" />
 <outline>
  <contour>
   <point x="278" y="633" type="line" smooth="no" name="13" />
   <point x="166" y="633" type="line" smooth="no" name="13" />
   <point x="47" y="519" type="line" smooth="no" name="13" />
   <point x="105" y="452" type="line" smooth="no" name="13" />
   <point x="179" y="517" type="line" smooth="no" name="13" />
   <point x="179" y="318" type="line" smooth="no" name="13" />
   <point x="278" y="318" type="line" smooth="no" name="13" />
  </contour>
  <contour>
   <point x="531" y="0" type="line" smooth="no" name="13" />
   <point x="789" y="0" type="line" smooth="no" name="13" />
   <point x="789" y="76" type="line" smooth="no" name="13" />
   <point x="684" y="76" type="line" smooth="no" name="13" />
   <point x="745" y="107" type="offcurve" name="14" />
   <point x="798" y="149" type="offcurve" name="14" />
   <point x="798" y="219" type="curve" smooth="yes" name="15" />
   <point x="798" y="251" type="offcurve" name="14" />
   <point x="777" y="329" type="offcurve" name="14" />
   <point x="667" y="329" type="curve" smooth="yes" name="15" />
   <point x="615" y="329" type="offcurve" name="14" />
   <point x="569" y="310" type="offcurve" name="14" />
   <point x="523" y="264" type="curve" smooth="no" name="13" />
   <point x="573" y="219" type="line" smooth="no" name="13" />
   <point x="587" y="238" type="offcurve" name="14" />
   <point x="616" y="250" type="offcurve" name="14" />
   <point x="646" y="250" type="curve" smooth="yes" name="15" />
   <point x="673" y="250" type="offcurve" name="14" />
   <point x="697" y="239" type="offcurve" name="14" />
   <point x="697" y="213" type="curve" smooth="yes" name="15" />
   <point x="697" y="161" type="offcurve" name="14" />
   <point x="583" y="104" type="offcurve" name="14" />
   <point x="531" y="76" type="curve" smooth="no" name="13" />
  </contour>
  <contour>
   <point x="641" y="633" type="line" smooth="no" name="13" />
   <point x="562" y="633" type="line" smooth="no" name="13" />
   <point x="178" y="-30" type="line" smooth="no" name="13" />
   <point x="256" y="-30" type="line" smooth="no" name="13" />
  </contour>
 </outline>
</glyph>
<glyph name="threequarters" format="1">
 <advance width="877" />
 <unicode hex="00be" />
 <outline>
  <contour>
   <point x="110" y="445" type="line" smooth="no" name="13" />
   <point x="153" y="445" type="line" smooth="yes" name="15" />
   <point x="184" y="445" type="offcurve" name="14" />
   <point x="207" y="440" type="offcurve" name="14" />
   <point x="207" y="419" type="curve" smooth="yes" name="15" />
   <point x="207" y="396" type="offcurve" name="14" />
   <point x="188" y="390" type="offcurve" name="14" />
   <point x="171" y="390" type="curve" smooth="yes" name="15" />
   <point x="148" y="390" type="offcurve" name="14" />
   <point x="128" y="397" type="offcurve" name="14" />
   <point x="96" y="419" type="curve" smooth="no" name="13" />
   <point x="47" y="369" type="line" smooth="no" name="13" />
   <point x="79" y="334" type="offcurve" name="14" />
   <point x="128" y="314" type="offcurve" name="14" />
   <point x="184" y="314" type="curve" smooth="yes" name="15" />
   <point x="262" y="314" type="offcurve" name="14" />
   <point x="308" y="365" type="offcurve" name="14" />
   <point x="308" y="410" type="curve" smooth="yes" name="15" />
   <point x="308" y="454" type="offcurve" name="14" />
   <point x="277" y="481" type="offcurve" name="14" />
   <point x="229" y="491" type="curve" smooth="no" name="13" />
   <point x="276" y="493" type="offcurve" name="14" />
   <point x="303" y="520" type="offcurve" name="14" />
   <point x="303" y="558" type="curve" smooth="yes" name="15" />
   <point x="303" y="592" type="offcurve" name="14" />
   <point x="279" y="645" type="offcurve" name="14" />
   <point x="181" y="645" type="curve" smooth="yes" name="15" />
   <point x="137" y="645" type="offcurve" name="14" />
   <point x="94" y="633" type="offcurve" name="14" />
   <point x="48" y="588" type="curve" smooth="no" name="13" />
   <point x="92" y="541" type="line" smooth="no" name="13" />
   <point x="124" y="559" type="offcurve" name="14" />
   <point x="151" y="566" type="offcurve" name="14" />
   <point x="172" y="566" type="curve" smooth="yes" name="15" />
   <point x="190" y="566" type="offcurve" name="14" />
   <point x="202" y="558" type="offcurve" name="14" />
   <point x="202" y="543" type="curve" smooth="yes" name="15" />
   <point x="202" y="525" type="offcurve" name="14" />
   <point x="178" y="520" type="offcurve" name="14" />
   <point x="156" y="520" type="curve" smooth="yes" name="15" />
   <point x="110" y="520" type="line" smooth="no" name="13" />
  </contour>
  <contour>
   <point x="522" y="143" type="curve" smooth="no" name="13" />
   <point x="522" y="55" type="line" smooth="no" name="13" />
   <point x="676" y="55" type="line" smooth="no" name="13" />
   <point x="676" y="0" type="line" smooth="no" name="13" />
   <point x="774" y="0" type="line" smooth="no" name="13" />
   <point x="774" y="55" type="line" smooth="no" name="13" />
   <point x="830" y="55" type="line" smooth="no" name="13" />
   <point x="830" y="134" type="line" smooth="no" name="13" />
   <point x="774" y="134" type="line" smooth="no" name="13" />
   <point x="774" y="318" type="line" smooth="no" name="13" />
   <point x="676" y="318" type="line" smooth="no" name="13" />
   <point x="657" y="297" type="offcurve" name="14" />
   <point x="639" y="276" type="offcurve" name="14" />
   <point x="620" y="255" type="curve" smooth="yes" name="15" />
   <point x="588" y="217" type="offcurve" name="14" />
   <point x="555" y="180" type="offcurve" name="14" />
  </contour>
  <contour>
   <point x="623" y="134" type="line" smooth="no" name="13" />
   <point x="633" y="149" type="offcurve" name="14" />
   <point x="644" y="162" type="offcurve" name="14" />
   <point x="655" y="176" type="curve" smooth="yes" name="15" />
   <point x="662" y="185" type="offcurve" name="14" />
   <point x="669" y="194" type="offcurve" name="14" />
   <point x="676" y="203" type="curve" smooth="no" name="13" />
   <point x="676" y="134" type="line" smooth="no" name="13" />
  </contour>
  <contour>
   <point x="668" y="633" type="curve" smooth="no" name="13" />
   <point x="588" y="633" type="line" smooth="no" name="13" />
   <point x="204" y="-30" type="line" smooth="no" name="13" />
   <point x="282" y="-30" type="line" smooth="no" name="13" />
   <point x="346" y="81" type="offcurve" name="14" />
   <point x="411" y="191" type="offcurve" name="14" />
   <point x="475" y="302" type="curve" smooth="yes" name="15" />
   <point x="540" y="412" type="offcurve" name="14" />
   <point x="604" y="523" type="offcurve" name="14" />
  </contour>
 </outline>
</glyph>
<glyph name="questiondown" format="1">
 <advance width="397" />
 <unicode hex="00bf" />
 <outline>
  <contour>
   <point x="186" y="300" type="line" smooth="no" name="13" />
   <point x="186" y="233" type="line" smooth="yes" name="15" />
   <point x="186" y="187" type="offcurve" name="14" />
   <point x="165" y="168" type="offcurve" name="14" />
   <point x="142" y="148" type="curve" smooth="yes" name="15" />
   <point x="136" y="143" type="offcurve" name="14" />
   <point x="131" y="138" type="offcurve" name="14" />
   <point x="126" y="133" type="curve" smooth="yes" name="15" />
   <point x="84" y="91" type="offcurve" name="14" />
   <point x="52" y="34" type="offcurve" name="14" />
   <point x="52" y="-32" type="curve" smooth="yes" name="15" />
   <point x="52" y="-109" type="offcurve" name="14" />
   <point x="104" y="-193" type="offcurve" name="14" />
   <point x="216" y="-193" type="curve" smooth="yes" name="15" />
   <point x="287" y="-193" type="offcurve" name="14" />
   <point x="345" y="-165" type="offcurve" name="14" />
   <point x="385" y="-128" type="curve" smooth="no" name="13" />
   <point x="338" y="-58" type="line" smooth="no" name="13" />
   <point x="316" y="-77" type="offcurve" name="14" />
   <point x="275" y="-97" type="offcurve" name="14" />
   <point x="245" y="-97" type="curve" smooth="yes" name="15" />
   <point x="209" y="-97" type="offcurve" name="14" />
   <point x="170" y="-71" type="offcurve" name="14" />
   <point x="170" y="-27" type="curve" smooth="yes" name="15" />
   <point x="170" y="18" type="offcurve" name="14" />
   <point x="203" y="60" type="offcurve" name="14" />
   <point x="240" y="88" type="curve" smooth="yes" name="15" />
   <point x="309" y="141" type="offcurve" name="14" />
   <point x="309" y="165" type="offcurve" name="14" />
   <point x="309" y="225" type="curve" smooth="yes" name="15" />
   <point x="309" y="300" type="line" smooth="no" name="13" />
  </contour>
  <contour>
   <point x="318" y="397" type="curve" smooth="yes" name="15" />
   <point x="318" y="435" type="offcurve" name="14" />
   <point x="288" y="464" type="offcurve" name="14" />
   <point x="250" y="464" type="curve" smooth="yes" name="15" />
   <point x="212" y="464" type="offcurve" name="14" />
   <point x="182" y="435" type="offcurve" name="14" />
   <point x="182" y="397" type="curve" smooth="yes" name="15" />
   <point x="182" y="359" type="offcurve" name="14" />
   <point x="212" y="328" type="offcurve" name="14" />
   <point x="250" y="328" type="curve" smooth="yes" name="15" />
   <point x="288" y="328" type="offcurve" name="14" />
   <point x="318" y="359" type="offcurve" name="14" />
  </contour>
 </outline>
</glyph>
<glyph name="Aacute" format="1">
 <advance width="586" />
 <unicode hex="00c1" />
 <outline>
  <contour>
   <point x="238" y="633" type="line" smooth="no" name="13" />
   <point x="5" y="0" type="line" smooth="no" name="13" />
   <point x="136" y="0" type="line" smooth="no" name="13" />
   <point x="142" y="18" type="offcurve" name="14" />
   <point x="148" y="35" type="offcurve" name="14" />
   <point x="153" y="53" type="curve" smooth="yes" name="15" />
   <point x="162" y="79" type="offcurve" name="14" />
   <point x="171" y="106" type="offcurve" name="14" />
   <point x="179" y="132" type="curve" smooth="no" name="13" />
   <point x="406" y="132" type="line" smooth="no" name="13" />
   <point x="411" y="117" type="offcurve" name="14" />
   <point x="415" y="103" type="offcurve" name="14" />
   <point x="420" y="88" type="curve" smooth="yes" name="15" />
   <point x="429" y="59" type="offcurve" name="14" />
   <point x="438" y="29" type="offcurve" name="14" />
   <point x="448" y="0" type="curve" smooth="no" name="13" />
   <point x="581" y="0" type="line" smooth="no" name="13" />
   <point x="348" y="633" type="line" smooth="no" name="13" />
  </contour>
  <contour>
   <point x="294" y="462" type="curve" smooth="no" name="13" />
   <point x="311" y="407" type="offcurve" name="14" />
   <point x="331" y="350" type="offcurve" name="14" />
   <point x="350" y="294" type="curve" smooth="yes" name="15" />
   <point x="357" y="276" type="offcurve" name="14" />
   <point x="363" y="258" type="offcurve" name="14" />
   <point x="369" y="240" type="curve" smooth="no" name="13" />
   <point x="217" y="240" type="line" smooth="no" name="13" />
   <point x="243" y="315" type="offcurve" name="14" />
   <point x="268" y="388" type="offcurve" name="14" />
  </contour>
  <contour>
   <point x="445" y="823" type="line" smooth="no" name="13" />
   <point x="321" y="823" type="line" smooth="no" name="13" />
   <point x="249" y="677" type="line" smooth="no" name="13" />
   <point x="336" y="677" type="line" smooth="no" name="13" />
  </contour>
 </outline>
</glyph>
<glyph name="Atilde" format="1">
 <advance width="586" />
 <unicode hex="00c3" />
 <outline>
  <contour>
   <point x="238" y="633" type="line" smooth="no" name="13" />
   <point x="5" y="0" type="line" smooth="no" name="13" />
   <point x="136" y="0" type="line" smooth="no" name="13" />
   <point x="142" y="18" type="offcurve" name="14" />
   <point x="148" y="35" type="offcurve" name="14" />
   <point x="153" y="53" type="curve" smooth="yes" name="15" />
   <point x="162" y="79" type="offcurve" name="14" />
   <point x="171" y="106" type="offcurve" name="14" />
   <point x="179" y="132" type="curve" smooth="no" name="13" />
   <point x="406" y="132" type="line" smooth="no" name="13" />
   <point x="411" y="117" type="offcurve" name="14" />
   <point x="415" y="103" type="offcurve" name="14" />
   <point x="420" y="88" type="curve" smooth="yes" name="15" />
   <point x="429" y="59" type="offcurve" name="14" />
   <point x="438" y="29" type="offcurve" name="14" />
   <point x="448" y="0" type="curve" smooth="no" name="13" />
   <point x="581" y="0" type="line" smooth="no" name="13" />
   <point x="348" y="633" type="line" smooth="no" name="13" />
  </contour>
  <contour>
   <point x="294" y="462" type="curve" smooth="no" name="13" />
   <point x="311" y="407" type="offcurve" name="14" />
   <point x="331" y="350" type="offcurve" name="14" />
   <point x="350" y="294" type="curve" smooth="yes" name="15" />
   <point x="357" y="276" type="offcurve" name="14" />
   <point x="363" y="258" type="offcurve" name="14" />
   <point x="369" y="240" type="curve" smooth="no" name="13" />
   <point x="217" y="240" type="line" smooth="no" name="13" />
   <point x="243" y="315" type="offcurve" name="14" />
   <point x="268" y="388" type="offcurve" name="14" />
  </contour>
  <contour>
   <point x="441" y="780" type="curve" smooth="no" name="13" />
   <point x="395" y="814" type="line" smooth="no" name="13" />
   <point x="380" y="783" type="offcurve" name="14" />
   <point x="368" y="761" type="offcurve" name="14" />
   <point x="348" y="761" type="curve" smooth="yes" name="15" />
   <point x="332" y="761" type="offcurve" name="14" />
   <point x="318" y="771" type="offcurve" name="14" />
   <point x="302" y="781" type="curve" smooth="yes" name="15" />
   <point x="284" y="794" type="offcurve" name="14" />
   <point x="265" y="807" type="offcurve" name="14" />
   <point x="239" y="807" type="curve" smooth="yes" name="15" />
   <point x="200" y="807" type="offcurve" name="14" />
   <point x="163" y="779" type="offcurve" name="14" />
   <point x="148" y="703" type="curve" smooth="no" name="13" />
   <point x="193" y="672" type="line" smooth="no" name="13" />
   <point x="204" y="696" type="offcurve" name="14" />
   <point x="216" y="717" type="offcurve" name="14" />
   <point x="239" y="717" type="curve" smooth="yes" name="15" />
   <point x="255" y="717" type="offcurve" name="14" />
   <point x="265" y="711" type="offcurve" name="14" />
   <point x="288" y="697" type="curve" smooth="yes" name="15" />
   <point x="306" y="687" type="offcurve" name="14" />
   <point x="326" y="678" type="offcurve" name="14" />
   <point x="350" y="678" type="curve" smooth="yes" name="15" />
   <point x="394" y="678" type="offcurve" name="14" />
   <point x="426" y="703" type="offcurve" name="14" />
  </contour>
 </outline>
</glyph>
<glyph name="Adieresis" format="1">
 <advance width="586" />
 <unicode hex="00c4" />
 <outline>
  <contour>
   <point x="238" y="633" type="line" smooth="no" name="13" />
   <point x="5" y="0" type="line" smooth="no" name="13" />
   <point x="136" y="0" type="line" smooth="no" name="13" />
   <point x="142" y="18" type="offcurve" name="14" />
   <point x="148" y="35" type="offcurve" name="14" />
   <point x="153" y="53" type="curve" smooth="yes" name="15" />
   <point x="162" y="79" type="offcurve" name="14" />
   <point x="171" y="106" type="offcurve" name="14" />
   <point x="179" y="132" type="curve" smooth="no" name="13" />
   <point x="406" y="132" type="line" smooth="no" name="13" />
   <point x="411" y="117" type="offcurve" name="14" />
   <point x="415" y="103" type="offcurve" name="14" />
   <point x="420" y="88" type="curve" smooth="yes" name="15" />
   <point x="429" y="59" type="offcurve" name="14" />
   <point x="438" y="29" type="offcurve" name="14" />
   <point x="448" y="0" type="curve" smooth="no" name="13" />
   <point x="581" y="0" type="line" smooth="no" name="13" />
   <point x="348" y="633" type="line" smooth="no" name="13" />
  </contour>
  <contour>
   <point x="294" y="462" type="curve" smooth="no" name="13" />
   <point x="311" y="407" type="offcurve" name="14" />
   <point x="331" y="350" type="offcurve" name="14" />
   <point x="350" y="294" type="curve" smooth="yes" name="15" />
   <point x="357" y="276" type="offcurve" name="14" />
   <point x="363" y="258" type="offcurve" name="14" />
   <point x="369" y="240" type="curve" smooth="no" name="13" />
   <point x="217" y="240" type="line" smooth="no" name="13" />
   <point x="243" y="315" type="offcurve" name="14" />
   <point x="268" y="388" type="offcurve" name="14" />
  </contour>
  <contour>
   <point x="135" y="746" type="curve" smooth="yes" name="15" />
   <point x="135" y="705" type="offcurve" name="14" />
   <point x="163" y="678" type="offcurve" name="14" />
   <point x="203" y="678" type="curve" smooth="yes" name="15" />
   <point x="236" y="678" type="offcurve" name="14" />
   <point x="268" y="705" type="offcurve" name="14" />
   <point x="268" y="746" type="curve" smooth="yes" name="15" />
   <point x="268" y="781" type="offcurve" name="14" />
   <point x="236" y="813" type="offcurve" name="14" />
   <point x="203" y="813" type="curve" smooth="yes" name="15" />
   <point x="163" y="813" type="offcurve" name="14" />
   <point x="135" y="781" type="offcurve" name="14" />
  </contour>
  <contour>
   <point x="319" y="746" type="curve" smooth="yes" name="15" />
   <point x="319" y="705" type="offcurve" name="14" />
   <point x="349" y="678" type="offcurve" name="14" />
   <point x="385" y="678" type="curve" smooth="yes" name="15" />
   <point x="423" y="678" type="offcurve" name="14" />
   <point x="453" y="705" type="offcurve" name="14" />
   <point x="453" y="746" type="curve" smooth="yes" name="15" />
   <point x="453" y="781" type="offcurve" name="14" />
   <point x="423" y="813" type="offcurve" name="14" />
   <point x="385" y="813" type="curve" smooth="yes" name="15" />
   <point x="349" y="813" type="offcurve" name="14" />
   <point x="319" y="781" type="offcurve" name="14" />
  </contour>
 </outline>
</glyph>
